<?xml version="1.0" standalone="no"?>
 <!DOCTYPE svg PUBLIC "-//W3C//DTD SVG 1.1//EN" 
 "http://www.w3.org/Graphics/SVG/1.1/DTD/svg11.dtd"> 
<svg xmlns="http://www.w3.org/2000/svg" version="1.1" 
    width="29.7002cm" height="21.0007cm" viewBox="0 0 116930 82680 ">
<title>SVG Picture created as WiFi_Plotter-F.Paste.svg date 2018/07/23 22:21:27 </title>
  <desc>Picture generated by PCBNEW </desc>
<g style="fill:#000000; fill-opacity:1;stroke:#000000; stroke-opacity:1;
stroke-linecap:round; stroke-linejoin:round; "
 transform="translate(0 0) scale(1 1)">
</g>
<g style="fill:#000000; fill-opacity:0.0; 
stroke:#000000; stroke-width:-0.000393701; stroke-opacity:1; 
stroke-linecap:round; stroke-linejoin:round;">
</g>
<g style="fill:#000000; fill-opacity:0.0; 
stroke:#000000; stroke-width:0; stroke-opacity:1; 
stroke-linecap:round; stroke-linejoin:round;">
</g>
<g style="fill:#000000; fill-opacity:1.0; 
stroke:#000000; stroke-width:0; stroke-opacity:1; 
stroke-linecap:round; stroke-linejoin:round;">
<polyline style="fill-rule:evenodd;"
points="33681,48188
33681,47874
34035,47874
34035,48188
33681,48188
" /> 
<polyline style="fill-rule:evenodd;"
points="32893,48562
32893,48248
33248,48248
33248,48562
32893,48562
" /> 
<polyline style="fill-rule:evenodd;"
points="32893,47814
32893,47500
33248,47500
33248,47814
32893,47814
" /> 
<polyline style="fill-rule:evenodd;"
points="36629,48651
36236,48651
36236,47411
36629,47411
36629,48651
" /> 
<polyline style="fill-rule:evenodd;"
points="35629,48651
35236,48651
35236,47411
35629,47411
35629,48651
" /> 
<polyline style="fill-rule:evenodd;"
points="34629,48651
34236,48651
34236,47411
34629,47411
34629,48651
" /> 
<polyline style="fill-rule:evenodd;"
points="34070,49212
34070,48818
34334,48818
34334,49212
34070,49212
" /> 
<polyline style="fill-rule:evenodd;"
points="33381,49212
33381,48818
33645,48818
33645,49212
33381,49212
" /> 
<polyline style="fill-rule:evenodd;"
points="32889,49212
32889,48818
33153,48818
33153,49212
32889,49212
" /> 
<polyline style="fill-rule:evenodd;"
points="32200,49212
32200,48818
32464,48818
32464,49212
32200,49212
" /> 
<polyline style="fill-rule:evenodd;"
points="40141,52952
40141,53346
39877,53346
39877,52952
40141,52952
" /> 
<polyline style="fill-rule:evenodd;"
points="40830,52952
40830,53346
40566,53346
40566,52952
40830,52952
" /> 
<polyline style="fill-rule:evenodd;"
points="36885,52240
37248,52240
37248,52602
36885,52602
36885,52240
" /> 
<polyline style="fill-rule:evenodd;"
points="36885,51787
37248,51787
37248,52149
36885,52149
36885,51787
" /> 
<polyline style="fill-rule:evenodd;"
points="36885,51334
37248,51334
37248,51696
36885,51696
36885,51334
" /> 
<polyline style="fill-rule:evenodd;"
points="36433,52240
36795,52240
36795,52602
36433,52602
36433,52240
" /> 
<polyline style="fill-rule:evenodd;"
points="36433,51787
36795,51787
36795,52149
36433,52149
36433,51787
" /> 
<polyline style="fill-rule:evenodd;"
points="36433,51334
36795,51334
36795,51696
36433,51696
36433,51334
" /> 
<polyline style="fill-rule:evenodd;"
points="35980,51334
36342,51334
36342,51696
35980,51696
35980,51334
" /> 
<polyline style="fill-rule:evenodd;"
points="35980,51787
36342,51787
36342,52149
35980,52149
35980,51787
" /> 
<polyline style="fill-rule:evenodd;"
points="35980,52240
36342,52240
36342,52602
35980,52602
35980,52240
" /> 
<polyline style="fill-rule:evenodd;"
points="37421,51328
37421,51230
37696,51230
37696,51328
37421,51328
" /> 
<polyline style="fill-rule:evenodd;"
points="37421,51525
37421,51427
37696,51427
37696,51525
37421,51525
" /> 
<polyline style="fill-rule:evenodd;"
points="37421,51722
37421,51624
37696,51624
37696,51722
37421,51722
" /> 
<polyline style="fill-rule:evenodd;"
points="37421,51919
37421,51820
37696,51820
37696,51919
37421,51919
" /> 
<polyline style="fill-rule:evenodd;"
points="37421,52116
37421,52017
37696,52017
37696,52116
37421,52116
" /> 
<polyline style="fill-rule:evenodd;"
points="37421,52312
37421,52214
37696,52214
37696,52312
37421,52312
" /> 
<polyline style="fill-rule:evenodd;"
points="37421,52509
37421,52411
37696,52411
37696,52509
37421,52509
" /> 
<polyline style="fill-rule:evenodd;"
points="37421,52706
37421,52608
37696,52608
37696,52706
37421,52706
" /> 
<polyline style="fill-rule:evenodd;"
points="37253,52775
37352,52775
37352,53051
37253,53051
37253,52775
" /> 
<polyline style="fill-rule:evenodd;"
points="37057,52775
37155,52775
37155,53051
37057,53051
37057,52775
" /> 
<polyline style="fill-rule:evenodd;"
points="36860,52775
36958,52775
36958,53051
36860,53051
36860,52775
" /> 
<polyline style="fill-rule:evenodd;"
points="36663,52775
36761,52775
36761,53051
36663,53051
36663,52775
" /> 
<polyline style="fill-rule:evenodd;"
points="36466,52775
36564,52775
36564,53051
36466,53051
36466,52775
" /> 
<polyline style="fill-rule:evenodd;"
points="36269,52775
36368,52775
36368,53051
36269,53051
36269,52775
" /> 
<polyline style="fill-rule:evenodd;"
points="36072,52775
36171,52775
36171,53051
36072,53051
36072,52775
" /> 
<polyline style="fill-rule:evenodd;"
points="35875,52775
35974,52775
35974,53051
35875,53051
35875,52775
" /> 
<polyline style="fill-rule:evenodd;"
points="35531,52706
35531,52608
35807,52608
35807,52706
35531,52706
" /> 
<polyline style="fill-rule:evenodd;"
points="35531,52509
35531,52411
35807,52411
35807,52509
35531,52509
" /> 
<polyline style="fill-rule:evenodd;"
points="35531,52312
35531,52214
35807,52214
35807,52312
35531,52312
" /> 
<polyline style="fill-rule:evenodd;"
points="35531,52116
35531,52017
35807,52017
35807,52116
35531,52116
" /> 
<polyline style="fill-rule:evenodd;"
points="35531,51919
35531,51820
35807,51820
35807,51919
35531,51919
" /> 
<polyline style="fill-rule:evenodd;"
points="35531,51722
35531,51624
35807,51624
35807,51722
35531,51722
" /> 
<polyline style="fill-rule:evenodd;"
points="35531,51525
35531,51427
35807,51427
35807,51525
35531,51525
" /> 
<polyline style="fill-rule:evenodd;"
points="35531,51328
35531,51230
35807,51230
35807,51328
35531,51328
" /> 
<polyline style="fill-rule:evenodd;"
points="35875,50885
35974,50885
35974,51161
35875,51161
35875,50885
" /> 
<polyline style="fill-rule:evenodd;"
points="36072,50885
36171,50885
36171,51161
36072,51161
36072,50885
" /> 
<polyline style="fill-rule:evenodd;"
points="36269,50885
36368,50885
36368,51161
36269,51161
36269,50885
" /> 
<polyline style="fill-rule:evenodd;"
points="36466,50885
36564,50885
36564,51161
36466,51161
36466,50885
" /> 
<polyline style="fill-rule:evenodd;"
points="36663,50885
36761,50885
36761,51161
36663,51161
36663,50885
" /> 
<polyline style="fill-rule:evenodd;"
points="36860,50885
36958,50885
36958,51161
36860,51161
36860,50885
" /> 
<polyline style="fill-rule:evenodd;"
points="37057,50885
37155,50885
37155,51161
37057,51161
37057,50885
" /> 
<polyline style="fill-rule:evenodd;"
points="37253,50885
37352,50885
37352,51161
37253,51161
37253,50885
" /> 
<polyline style="fill-rule:evenodd;"
points="38537,50000
38537,50393
38204,50393
38204,50000
38537,50000
" /> 
<polyline style="fill-rule:evenodd;"
points="37779,50000
37779,50393
37446,50393
37446,50000
37779,50000
" /> 
<polyline style="fill-rule:evenodd;"
points="35039,51854
34645,51854
34645,51590
35039,51590
35039,51854
" /> 
<polyline style="fill-rule:evenodd;"
points="35039,51165
34645,51165
34645,50901
35039,50901
35039,51165
" /> 
<polyline style="fill-rule:evenodd;"
points="39350,53405
39035,53405
39035,53051
39350,53051
39350,53405
" /> 
<polyline style="fill-rule:evenodd;"
points="39350,52854
39035,52854
39035,52500
39350,52500
39350,52854
" /> 
<polyline style="fill-rule:evenodd;"
points="38917,52854
38602,52854
38602,52500
38917,52500
38917,52854
" /> 
<polyline style="fill-rule:evenodd;"
points="38917,53405
38602,53405
38602,53051
38917,53051
38917,53405
" /> 
<polyline style="fill-rule:evenodd;"
points="35039,50673
34645,50673
34645,50409
35039,50409
35039,50673
" /> 
<polyline style="fill-rule:evenodd;"
points="35039,49984
34645,49984
34645,49720
35039,49720
35039,49984
" /> 
<polyline style="fill-rule:evenodd;"
points="32322,52224
33818,52224
33818,53011
32322,53011
32322,52224
" /> 
<polyline style="fill-rule:evenodd;"
points="32775,49744
33366,49744
33366,50531
32775,50531
32775,49744
" /> 
<polyline style="fill-rule:evenodd;"
points="31870,49744
32460,49744
32460,50531
31870,50531
31870,49744
" /> 
<polyline style="fill-rule:evenodd;"
points="33681,49744
34271,49744
34271,50531
33681,50531
33681,49744
" /> 
<polyline style="fill-rule:evenodd;"
points="32677,47818
32283,47818
32283,47555
32677,47555
32677,47818
" /> 
<polyline style="fill-rule:evenodd;"
points="32677,48507
32283,48507
32283,48244
32677,48244
32677,48507
" /> 
<polyline style="fill-rule:evenodd;"
points="28543,52543
28149,52543
28149,52279
28543,52279
28543,52543
" /> 
<polyline style="fill-rule:evenodd;"
points="28543,53232
28149,53232
28149,52968
28543,52968
28543,53232
" /> 
<polyline style="fill-rule:evenodd;"
points="28543,50870
28149,50870
28149,50606
28543,50606
28543,50870
" /> 
<polyline style="fill-rule:evenodd;"
points="28543,50181
28149,50181
28149,49917
28543,49917
28543,50181
" /> 
<polyline style="fill-rule:evenodd;"
points="28149,49425
28543,49425
28543,49688
28149,49688
28149,49425
" /> 
<polyline style="fill-rule:evenodd;"
points="28149,48736
28543,48736
28543,49000
28149,49000
28149,48736
" /> 
<polyline style="fill-rule:evenodd;"
points="30232,48818
30232,48425
30496,48425
30496,48818
30232,48818
" /> 
<polyline style="fill-rule:evenodd;"
points="30921,48818
30921,48425
31185,48425
31185,48818
30921,48818
" /> 
<polyline style="fill-rule:evenodd;"
points="29314,48425
29314,48818
29051,48818
29051,48425
29314,48425
" /> 
<polyline style="fill-rule:evenodd;"
points="30003,48425
30003,48818
29740,48818
29740,48425
30003,48425
" /> 
<polyline style="fill-rule:evenodd;"
points="40830,52362
40830,52755
40566,52755
40566,52362
40830,52362
" /> 
<polyline style="fill-rule:evenodd;"
points="40141,52362
40141,52755
39877,52755
39877,52362
40141,52362
" /> 
<polyline style="fill-rule:evenodd;"
points="37877,49409
37877,49803
37614,49803
37614,49409
37877,49409
" /> 
<polyline style="fill-rule:evenodd;"
points="37188,49409
37188,49803
36925,49803
36925,49409
37188,49409
" /> 
<polyline style="fill-rule:evenodd;"
points="38795,50984
38795,50590
39059,50590
39059,50984
38795,50984
" /> 
<polyline style="fill-rule:evenodd;"
points="38106,50984
38106,50590
38370,50590
38370,50984
38106,50984
" /> 
<polyline style="fill-rule:evenodd;"
points="39287,52165
39287,51771
39551,51771
39551,52165
39287,52165
" /> 
<polyline style="fill-rule:evenodd;"
points="39976,52165
39976,51771
40240,51771
40240,52165
39976,52165
" /> 
<polyline style="fill-rule:evenodd;"
points="28149,51787
28543,51787
28543,52051
28149,52051
28149,51787
" /> 
<polyline style="fill-rule:evenodd;"
points="28149,51098
28543,51098
28543,51362
28149,51362
28149,51098
" /> 
<polyline style="fill-rule:evenodd;"
points="36220,50673
35826,50673
35826,50409
36220,50409
36220,50673
" /> 
<polyline style="fill-rule:evenodd;"
points="36220,49984
35826,49984
35826,49720
36220,49720
36220,49984
" /> 
<polyline style="fill-rule:evenodd;"
points="35629,49984
35236,49984
35236,49720
35629,49720
35629,49984
" /> 
<polyline style="fill-rule:evenodd;"
points="35629,50673
35236,50673
35236,50409
35629,50409
35629,50673
" /> 
<polyline style="fill-rule:evenodd;"
points="32086,53232
31692,53232
31692,52968
32086,52968
32086,53232
" /> 
<polyline style="fill-rule:evenodd;"
points="32086,52543
31692,52543
31692,52279
32086,52279
32086,52543
" /> 
<polyline style="fill-rule:evenodd;"
points="28526,55015
28526,53645
29253,53645
29253,55015
28526,55015
" /> 
<polyline style="fill-rule:evenodd;"
points="29616,55015
29616,53645
30343,53645
30343,55015
29616,55015
" /> 
<polyline style="fill-rule:evenodd;"
points="30707,55015
30707,53645
31434,53645
31434,55015
30707,55015
" /> 
<polyline style="fill-rule:evenodd;"
points="31797,55015
31797,53645
32524,53645
32524,55015
31797,55015
" /> 
<polyline style="fill-rule:evenodd;"
points="32888,55015
32888,53645
33615,53645
33615,55015
32888,55015
" /> 
<polyline style="fill-rule:evenodd;"
points="33979,55015
33979,53645
34706,53645
34706,55015
33979,55015
" /> 
<polyline style="fill-rule:evenodd;"
points="35069,55015
35069,53645
35796,53645
35796,55015
35069,55015
" /> 
<polyline style="fill-rule:evenodd;"
points="36160,55015
36160,53645
36887,53645
36887,55015
36160,55015
" /> 
<polyline style="fill-rule:evenodd;"
points="37250,55015
37250,53645
37977,53645
37977,55015
37250,55015
" /> 
<polyline style="fill-rule:evenodd;"
points="38341,55015
38341,53645
39068,53645
39068,55015
38341,55015
" /> 
<polyline style="fill-rule:evenodd;"
points="39431,55015
39431,53645
40158,53645
40158,55015
39431,55015
" /> 
<polyline style="fill-rule:evenodd;"
points="40522,55015
40522,53645
41249,53645
41249,55015
40522,55015
" /> 
<polyline style="fill-rule:evenodd;"
points="41612,55015
41612,53645
42339,53645
42339,55015
41612,55015
" /> 
<polyline style="fill-rule:evenodd;"
points="28759,49549
28759,49312
29350,49312
29350,49549
28759,49549
" /> 
<polyline style="fill-rule:evenodd;"
points="28759,50049
28759,49812
29350,49812
29350,50049
28759,50049
" /> 
<polyline style="fill-rule:evenodd;"
points="28759,50549
28759,50312
29350,50312
29350,50549
28759,50549
" /> 
<polyline style="fill-rule:evenodd;"
points="28759,51049
28759,50812
29350,50812
29350,51049
28759,51049
" /> 
<polyline style="fill-rule:evenodd;"
points="28759,51549
28759,51312
29350,51312
29350,51549
28759,51549
" /> 
<polyline style="fill-rule:evenodd;"
points="28759,52049
28759,51812
29350,51812
29350,52049
28759,52049
" /> 
<polyline style="fill-rule:evenodd;"
points="28759,52549
28759,52312
29350,52312
29350,52549
28759,52549
" /> 
<polyline style="fill-rule:evenodd;"
points="28759,53049
28759,52812
29350,52812
29350,53049
28759,53049
" /> 
<polyline style="fill-rule:evenodd;"
points="30885,53049
30885,52812
31476,52812
31476,53049
30885,53049
" /> 
<polyline style="fill-rule:evenodd;"
points="30885,52549
30885,52312
31476,52312
31476,52549
30885,52549
" /> 
<polyline style="fill-rule:evenodd;"
points="30885,52049
30885,51812
31476,51812
31476,52049
30885,52049
" /> 
<polyline style="fill-rule:evenodd;"
points="30885,51549
30885,51312
31476,51312
31476,51549
30885,51549
" /> 
<polyline style="fill-rule:evenodd;"
points="30885,51049
30885,50812
31476,50812
31476,51049
30885,51049
" /> 
<polyline style="fill-rule:evenodd;"
points="30885,50549
30885,50312
31476,50312
31476,50549
30885,50549
" /> 
<polyline style="fill-rule:evenodd;"
points="30885,50049
30885,49812
31476,49812
31476,50049
30885,50049
" /> 
<polyline style="fill-rule:evenodd;"
points="30885,49549
30885,49312
31476,49312
31476,49549
30885,49549
" /> 
<polyline style="fill-rule:evenodd;"
points="38696,51574
38696,51181
38960,51181
38960,51574
38696,51574
" /> 
<polyline style="fill-rule:evenodd;"
points="39385,51574
39385,51181
39649,51181
39649,51574
39385,51574
" /> 
</g> 
</svg>
