G04 #@! TF.GenerationSoftware,KiCad,Pcbnew,(5.0.0-rc2-dev-231-ge0e0687cd)*
G04 #@! TF.CreationDate,2018-07-23T22:11:46+02:00*
G04 #@! TF.ProjectId,WiFi_Plotter,576946695F506C6F747465722E6B6963,rev?*
G04 #@! TF.SameCoordinates,Original*
G04 #@! TF.FileFunction,Legend,Top*
G04 #@! TF.FilePolarity,Positive*
%FSLAX46Y46*%
G04 Gerber Fmt 4.6, Leading zero omitted, Abs format (unit mm)*
G04 Created by KiCad (PCBNEW (5.0.0-rc2-dev-231-ge0e0687cd)) date Mon Jul 23 22:11:46 2018*
%MOMM*%
%LPD*%
G01*
G04 APERTURE LIST*
%ADD10C,0.120000*%
%ADD11C,0.150000*%
G04 APERTURE END LIST*
D10*
X85760000Y-123580000D02*
X84300000Y-123580000D01*
X85760000Y-120420000D02*
X83600000Y-120420000D01*
X85760000Y-120420000D02*
X85760000Y-121350000D01*
X85760000Y-123580000D02*
X85760000Y-122650000D01*
X84530000Y-125260000D02*
X86800000Y-125260000D01*
X84530000Y-123740000D02*
X84530000Y-125260000D01*
X86800000Y-123740000D02*
X84530000Y-123740000D01*
X82780000Y-125010000D02*
X83220000Y-125010000D01*
X82780000Y-123990000D02*
X83220000Y-123990000D01*
X102720000Y-134490000D02*
X102280000Y-134490000D01*
X102720000Y-135510000D02*
X102280000Y-135510000D01*
D11*
X95625000Y-134625000D02*
X95625000Y-134100000D01*
X90375000Y-134625000D02*
X90375000Y-134100000D01*
X90375000Y-129375000D02*
X90375000Y-129900000D01*
X95625000Y-129375000D02*
X95625000Y-129900000D01*
X90375000Y-134625000D02*
X90900000Y-134625000D01*
X90375000Y-129375000D02*
X90900000Y-129375000D01*
X95625000Y-134625000D02*
X95100000Y-134625000D01*
D10*
X96720000Y-128010000D02*
X96280000Y-128010000D01*
X96720000Y-126990000D02*
X96280000Y-126990000D01*
X87990000Y-130720000D02*
X87990000Y-130280000D01*
X89010000Y-130720000D02*
X89010000Y-130280000D01*
X97850000Y-135850000D02*
X100150000Y-135850000D01*
X100150000Y-135850000D02*
X100150000Y-133150000D01*
X87990000Y-127720000D02*
X87990000Y-127280000D01*
X89010000Y-127720000D02*
X89010000Y-127280000D01*
X80590000Y-132410000D02*
X81850000Y-132410000D01*
X87410000Y-132410000D02*
X86150000Y-132410000D01*
X80590000Y-128650000D02*
X80590000Y-132410000D01*
X87410000Y-126400000D02*
X87410000Y-132410000D01*
X83010000Y-122219999D02*
X83010000Y-121779999D01*
X81990000Y-122219999D02*
X81990000Y-121779999D01*
X72510000Y-134220000D02*
X72510000Y-133780000D01*
X71490000Y-134220000D02*
X71490000Y-133780000D01*
X71490000Y-128220000D02*
X71490000Y-127780000D01*
X72510000Y-128220000D02*
X72510000Y-127780000D01*
X71490000Y-124780000D02*
X71490000Y-125220000D01*
X72510000Y-124780000D02*
X72510000Y-125220000D01*
X77780000Y-122990000D02*
X78220000Y-122990000D01*
X77780000Y-124010000D02*
X78220000Y-124010000D01*
X75220000Y-122990000D02*
X74780000Y-122990000D01*
X75220000Y-124010000D02*
X74780000Y-124010000D01*
X102720000Y-134010000D02*
X102280000Y-134010000D01*
X102720000Y-132990000D02*
X102280000Y-132990000D01*
X95220000Y-126510000D02*
X94780000Y-126510000D01*
X95220000Y-125490000D02*
X94780000Y-125490000D01*
X97780000Y-129510000D02*
X98220000Y-129510000D01*
X97780000Y-128490000D02*
X98220000Y-128490000D01*
X100780000Y-131490000D02*
X101220000Y-131490000D01*
X100780000Y-132510000D02*
X101220000Y-132510000D01*
X71490000Y-130780000D02*
X71490000Y-131220000D01*
X72510000Y-130780000D02*
X72510000Y-131220000D01*
X90990000Y-127720000D02*
X90990000Y-127280000D01*
X92010000Y-127720000D02*
X92010000Y-127280000D01*
X90510000Y-127720000D02*
X90510000Y-127280000D01*
X89490000Y-127720000D02*
X89490000Y-127280000D01*
X80490000Y-134220000D02*
X80490000Y-133780000D01*
X81510000Y-134220000D02*
X81510000Y-133780000D01*
X107803333Y-139740000D02*
X107803333Y-136000000D01*
X107803333Y-136000000D02*
X72196667Y-136000000D01*
X72196667Y-136000000D02*
X72196667Y-139740000D01*
X71956667Y-138000000D02*
X71956667Y-135760000D01*
X71956667Y-135760000D02*
X76150000Y-135760000D01*
D11*
X74425000Y-124925000D02*
X74425000Y-124950000D01*
X78575000Y-124925000D02*
X78575000Y-125030000D01*
X78575000Y-135075000D02*
X78575000Y-134970000D01*
X74425000Y-135075000D02*
X74425000Y-134970000D01*
X74425000Y-124925000D02*
X78575000Y-124925000D01*
X74425000Y-135075000D02*
X78575000Y-135075000D01*
X74425000Y-124950000D02*
X73050000Y-124950000D01*
D10*
X99280000Y-129990000D02*
X99720000Y-129990000D01*
X99280000Y-131010000D02*
X99720000Y-131010000D01*
X80923809Y-121438095D02*
X80847619Y-121400000D01*
X80771428Y-121323809D01*
X80657142Y-121209523D01*
X80580952Y-121171428D01*
X80504761Y-121171428D01*
X80542857Y-121361904D02*
X80466666Y-121323809D01*
X80390476Y-121247619D01*
X80352380Y-121095238D01*
X80352380Y-120828571D01*
X80390476Y-120676190D01*
X80466666Y-120600000D01*
X80542857Y-120561904D01*
X80695238Y-120561904D01*
X80771428Y-120600000D01*
X80847619Y-120676190D01*
X80885714Y-120828571D01*
X80885714Y-121095238D01*
X80847619Y-121247619D01*
X80771428Y-121323809D01*
X80695238Y-121361904D01*
X80542857Y-121361904D01*
X81647619Y-121361904D02*
X81190476Y-121361904D01*
X81419047Y-121361904D02*
X81419047Y-120561904D01*
X81342857Y-120676190D01*
X81266666Y-120752380D01*
X81190476Y-120790476D01*
X94233333Y-120561904D02*
X94233333Y-121133333D01*
X94195238Y-121247619D01*
X94119047Y-121323809D01*
X94004761Y-121361904D01*
X93928571Y-121361904D01*
X95033333Y-121361904D02*
X94576190Y-121361904D01*
X94804761Y-121361904D02*
X94804761Y-120561904D01*
X94728571Y-120676190D01*
X94652380Y-120752380D01*
X94576190Y-120790476D01*
X87409523Y-124861904D02*
X87409523Y-124061904D01*
X87600000Y-124061904D01*
X87714285Y-124100000D01*
X87790476Y-124176190D01*
X87828571Y-124252380D01*
X87866666Y-124404761D01*
X87866666Y-124519047D01*
X87828571Y-124671428D01*
X87790476Y-124747619D01*
X87714285Y-124823809D01*
X87600000Y-124861904D01*
X87409523Y-124861904D01*
X88628571Y-124861904D02*
X88171428Y-124861904D01*
X88400000Y-124861904D02*
X88400000Y-124061904D01*
X88323809Y-124176190D01*
X88247619Y-124252380D01*
X88171428Y-124290476D01*
X80866666Y-124861904D02*
X80600000Y-124480952D01*
X80409523Y-124861904D02*
X80409523Y-124061904D01*
X80714285Y-124061904D01*
X80790476Y-124100000D01*
X80828571Y-124138095D01*
X80866666Y-124214285D01*
X80866666Y-124328571D01*
X80828571Y-124404761D01*
X80790476Y-124442857D01*
X80714285Y-124480952D01*
X80409523Y-124480952D01*
X81133333Y-124061904D02*
X81628571Y-124061904D01*
X81361904Y-124366666D01*
X81476190Y-124366666D01*
X81552380Y-124404761D01*
X81590476Y-124442857D01*
X81628571Y-124519047D01*
X81628571Y-124709523D01*
X81590476Y-124785714D01*
X81552380Y-124823809D01*
X81476190Y-124861904D01*
X81247619Y-124861904D01*
X81171428Y-124823809D01*
X81133333Y-124785714D01*
X107866666Y-135285714D02*
X107828571Y-135323809D01*
X107714285Y-135361904D01*
X107638095Y-135361904D01*
X107523809Y-135323809D01*
X107447619Y-135247619D01*
X107409523Y-135171428D01*
X107371428Y-135019047D01*
X107371428Y-134904761D01*
X107409523Y-134752380D01*
X107447619Y-134676190D01*
X107523809Y-134600000D01*
X107638095Y-134561904D01*
X107714285Y-134561904D01*
X107828571Y-134600000D01*
X107866666Y-134638095D01*
X108247619Y-135361904D02*
X108400000Y-135361904D01*
X108476190Y-135323809D01*
X108514285Y-135285714D01*
X108590476Y-135171428D01*
X108628571Y-135019047D01*
X108628571Y-134714285D01*
X108590476Y-134638095D01*
X108552380Y-134600000D01*
X108476190Y-134561904D01*
X108323809Y-134561904D01*
X108247619Y-134600000D01*
X108209523Y-134638095D01*
X108171428Y-134714285D01*
X108171428Y-134904761D01*
X108209523Y-134980952D01*
X108247619Y-135019047D01*
X108323809Y-135057142D01*
X108476190Y-135057142D01*
X108552380Y-135019047D01*
X108590476Y-134980952D01*
X108628571Y-134904761D01*
X92890476Y-127061904D02*
X92890476Y-127709523D01*
X92928571Y-127785714D01*
X92966666Y-127823809D01*
X93042857Y-127861904D01*
X93195238Y-127861904D01*
X93271428Y-127823809D01*
X93309523Y-127785714D01*
X93347619Y-127709523D01*
X93347619Y-127061904D01*
X93690476Y-127138095D02*
X93728571Y-127100000D01*
X93804761Y-127061904D01*
X93995238Y-127061904D01*
X94071428Y-127100000D01*
X94109523Y-127138095D01*
X94147619Y-127214285D01*
X94147619Y-127290476D01*
X94109523Y-127404761D01*
X93652380Y-127861904D01*
X94147619Y-127861904D01*
X100366666Y-127861904D02*
X99985714Y-127861904D01*
X99985714Y-127061904D01*
X101052380Y-127861904D02*
X100595238Y-127861904D01*
X100823809Y-127861904D02*
X100823809Y-127061904D01*
X100747619Y-127176190D01*
X100671428Y-127252380D01*
X100595238Y-127290476D01*
X88785714Y-134014285D02*
X88823809Y-134052380D01*
X88861904Y-134166666D01*
X88861904Y-134242857D01*
X88823809Y-134357142D01*
X88747619Y-134433333D01*
X88671428Y-134471428D01*
X88519047Y-134509523D01*
X88404761Y-134509523D01*
X88252380Y-134471428D01*
X88176190Y-134433333D01*
X88100000Y-134357142D01*
X88061904Y-134242857D01*
X88061904Y-134166666D01*
X88100000Y-134052380D01*
X88138095Y-134014285D01*
X88861904Y-133252380D02*
X88861904Y-133709523D01*
X88861904Y-133480952D02*
X88061904Y-133480952D01*
X88176190Y-133557142D01*
X88252380Y-133633333D01*
X88290476Y-133709523D01*
X88061904Y-132566666D02*
X88061904Y-132719047D01*
X88100000Y-132795238D01*
X88138095Y-132833333D01*
X88252380Y-132909523D01*
X88404761Y-132947619D01*
X88709523Y-132947619D01*
X88785714Y-132909523D01*
X88823809Y-132871428D01*
X88861904Y-132795238D01*
X88861904Y-132642857D01*
X88823809Y-132566666D01*
X88785714Y-132528571D01*
X88709523Y-132490476D01*
X88519047Y-132490476D01*
X88442857Y-132528571D01*
X88404761Y-132566666D01*
X88366666Y-132642857D01*
X88366666Y-132795238D01*
X88404761Y-132871428D01*
X88442857Y-132909523D01*
X88519047Y-132947619D01*
X98119047Y-132480952D02*
X98119047Y-132861904D01*
X97852380Y-132061904D02*
X98119047Y-132480952D01*
X98385714Y-132061904D01*
X99071428Y-132861904D02*
X98614285Y-132861904D01*
X98842857Y-132861904D02*
X98842857Y-132061904D01*
X98766666Y-132176190D01*
X98690476Y-132252380D01*
X98614285Y-132290476D01*
X87866666Y-125861904D02*
X87600000Y-125480952D01*
X87409523Y-125861904D02*
X87409523Y-125061904D01*
X87714285Y-125061904D01*
X87790476Y-125100000D01*
X87828571Y-125138095D01*
X87866666Y-125214285D01*
X87866666Y-125328571D01*
X87828571Y-125404761D01*
X87790476Y-125442857D01*
X87714285Y-125480952D01*
X87409523Y-125480952D01*
X88171428Y-125138095D02*
X88209523Y-125100000D01*
X88285714Y-125061904D01*
X88476190Y-125061904D01*
X88552380Y-125100000D01*
X88590476Y-125138095D01*
X88628571Y-125214285D01*
X88628571Y-125290476D01*
X88590476Y-125404761D01*
X88133333Y-125861904D01*
X88628571Y-125861904D01*
X87061904Y-134109523D02*
X87709523Y-134109523D01*
X87785714Y-134071428D01*
X87823809Y-134033333D01*
X87861904Y-133957142D01*
X87861904Y-133804761D01*
X87823809Y-133728571D01*
X87785714Y-133690476D01*
X87709523Y-133652380D01*
X87061904Y-133652380D01*
X87861904Y-132852380D02*
X87861904Y-133309523D01*
X87861904Y-133080952D02*
X87061904Y-133080952D01*
X87176190Y-133157142D01*
X87252380Y-133233333D01*
X87290476Y-133309523D01*
X80866666Y-122785714D02*
X80828571Y-122823809D01*
X80714285Y-122861904D01*
X80638095Y-122861904D01*
X80523809Y-122823809D01*
X80447619Y-122747619D01*
X80409523Y-122671428D01*
X80371428Y-122519047D01*
X80371428Y-122404761D01*
X80409523Y-122252380D01*
X80447619Y-122176190D01*
X80523809Y-122100000D01*
X80638095Y-122061904D01*
X80714285Y-122061904D01*
X80828571Y-122100000D01*
X80866666Y-122138095D01*
X81628571Y-122861904D02*
X81171428Y-122861904D01*
X81400000Y-122861904D02*
X81400000Y-122061904D01*
X81323809Y-122176190D01*
X81247619Y-122252380D01*
X81171428Y-122290476D01*
X70785714Y-134514285D02*
X70823809Y-134552380D01*
X70861904Y-134666666D01*
X70861904Y-134742857D01*
X70823809Y-134857142D01*
X70747619Y-134933333D01*
X70671428Y-134971428D01*
X70519047Y-135009523D01*
X70404761Y-135009523D01*
X70252380Y-134971428D01*
X70176190Y-134933333D01*
X70100000Y-134857142D01*
X70061904Y-134742857D01*
X70061904Y-134666666D01*
X70100000Y-134552380D01*
X70138095Y-134514285D01*
X70861904Y-133752380D02*
X70861904Y-134209523D01*
X70861904Y-133980952D02*
X70061904Y-133980952D01*
X70176190Y-134057142D01*
X70252380Y-134133333D01*
X70290476Y-134209523D01*
X70061904Y-133028571D02*
X70061904Y-133409523D01*
X70442857Y-133447619D01*
X70404761Y-133409523D01*
X70366666Y-133333333D01*
X70366666Y-133142857D01*
X70404761Y-133066666D01*
X70442857Y-133028571D01*
X70519047Y-132990476D01*
X70709523Y-132990476D01*
X70785714Y-133028571D01*
X70823809Y-133066666D01*
X70861904Y-133142857D01*
X70861904Y-133333333D01*
X70823809Y-133409523D01*
X70785714Y-133447619D01*
X70785714Y-128514285D02*
X70823809Y-128552380D01*
X70861904Y-128666666D01*
X70861904Y-128742857D01*
X70823809Y-128857142D01*
X70747619Y-128933333D01*
X70671428Y-128971428D01*
X70519047Y-129009523D01*
X70404761Y-129009523D01*
X70252380Y-128971428D01*
X70176190Y-128933333D01*
X70100000Y-128857142D01*
X70061904Y-128742857D01*
X70061904Y-128666666D01*
X70100000Y-128552380D01*
X70138095Y-128514285D01*
X70861904Y-127752380D02*
X70861904Y-128209523D01*
X70861904Y-127980952D02*
X70061904Y-127980952D01*
X70176190Y-128057142D01*
X70252380Y-128133333D01*
X70290476Y-128209523D01*
X70328571Y-127066666D02*
X70861904Y-127066666D01*
X70023809Y-127257142D02*
X70595238Y-127447619D01*
X70595238Y-126952380D01*
X70785714Y-125514285D02*
X70823809Y-125552380D01*
X70861904Y-125666666D01*
X70861904Y-125742857D01*
X70823809Y-125857142D01*
X70747619Y-125933333D01*
X70671428Y-125971428D01*
X70519047Y-126009523D01*
X70404761Y-126009523D01*
X70252380Y-125971428D01*
X70176190Y-125933333D01*
X70100000Y-125857142D01*
X70061904Y-125742857D01*
X70061904Y-125666666D01*
X70100000Y-125552380D01*
X70138095Y-125514285D01*
X70861904Y-124752380D02*
X70861904Y-125209523D01*
X70861904Y-124980952D02*
X70061904Y-124980952D01*
X70176190Y-125057142D01*
X70252380Y-125133333D01*
X70290476Y-125209523D01*
X70138095Y-124447619D02*
X70100000Y-124409523D01*
X70061904Y-124333333D01*
X70061904Y-124142857D01*
X70100000Y-124066666D01*
X70138095Y-124028571D01*
X70214285Y-123990476D01*
X70290476Y-123990476D01*
X70404761Y-124028571D01*
X70861904Y-124485714D01*
X70861904Y-123990476D01*
X77485714Y-122285714D02*
X77447619Y-122323809D01*
X77333333Y-122361904D01*
X77257142Y-122361904D01*
X77142857Y-122323809D01*
X77066666Y-122247619D01*
X77028571Y-122171428D01*
X76990476Y-122019047D01*
X76990476Y-121904761D01*
X77028571Y-121752380D01*
X77066666Y-121676190D01*
X77142857Y-121600000D01*
X77257142Y-121561904D01*
X77333333Y-121561904D01*
X77447619Y-121600000D01*
X77485714Y-121638095D01*
X78247619Y-122361904D02*
X77790476Y-122361904D01*
X78019047Y-122361904D02*
X78019047Y-121561904D01*
X77942857Y-121676190D01*
X77866666Y-121752380D01*
X77790476Y-121790476D01*
X79009523Y-122361904D02*
X78552380Y-122361904D01*
X78780952Y-122361904D02*
X78780952Y-121561904D01*
X78704761Y-121676190D01*
X78628571Y-121752380D01*
X78552380Y-121790476D01*
X74485714Y-122285714D02*
X74447619Y-122323809D01*
X74333333Y-122361904D01*
X74257142Y-122361904D01*
X74142857Y-122323809D01*
X74066666Y-122247619D01*
X74028571Y-122171428D01*
X73990476Y-122019047D01*
X73990476Y-121904761D01*
X74028571Y-121752380D01*
X74066666Y-121676190D01*
X74142857Y-121600000D01*
X74257142Y-121561904D01*
X74333333Y-121561904D01*
X74447619Y-121600000D01*
X74485714Y-121638095D01*
X75247619Y-122361904D02*
X74790476Y-122361904D01*
X75019047Y-122361904D02*
X75019047Y-121561904D01*
X74942857Y-121676190D01*
X74866666Y-121752380D01*
X74790476Y-121790476D01*
X75742857Y-121561904D02*
X75819047Y-121561904D01*
X75895238Y-121600000D01*
X75933333Y-121638095D01*
X75971428Y-121714285D01*
X76009523Y-121866666D01*
X76009523Y-122057142D01*
X75971428Y-122209523D01*
X75933333Y-122285714D01*
X75895238Y-122323809D01*
X75819047Y-122361904D01*
X75742857Y-122361904D01*
X75666666Y-122323809D01*
X75628571Y-122285714D01*
X75590476Y-122209523D01*
X75552380Y-122057142D01*
X75552380Y-121866666D01*
X75590476Y-121714285D01*
X75628571Y-121638095D01*
X75666666Y-121600000D01*
X75742857Y-121561904D01*
X106366666Y-133785714D02*
X106328571Y-133823809D01*
X106214285Y-133861904D01*
X106138095Y-133861904D01*
X106023809Y-133823809D01*
X105947619Y-133747619D01*
X105909523Y-133671428D01*
X105871428Y-133519047D01*
X105871428Y-133404761D01*
X105909523Y-133252380D01*
X105947619Y-133176190D01*
X106023809Y-133100000D01*
X106138095Y-133061904D01*
X106214285Y-133061904D01*
X106328571Y-133100000D01*
X106366666Y-133138095D01*
X106823809Y-133404761D02*
X106747619Y-133366666D01*
X106709523Y-133328571D01*
X106671428Y-133252380D01*
X106671428Y-133214285D01*
X106709523Y-133138095D01*
X106747619Y-133100000D01*
X106823809Y-133061904D01*
X106976190Y-133061904D01*
X107052380Y-133100000D01*
X107090476Y-133138095D01*
X107128571Y-133214285D01*
X107128571Y-133252380D01*
X107090476Y-133328571D01*
X107052380Y-133366666D01*
X106976190Y-133404761D01*
X106823809Y-133404761D01*
X106747619Y-133442857D01*
X106709523Y-133480952D01*
X106671428Y-133557142D01*
X106671428Y-133709523D01*
X106709523Y-133785714D01*
X106747619Y-133823809D01*
X106823809Y-133861904D01*
X106976190Y-133861904D01*
X107052380Y-133823809D01*
X107090476Y-133785714D01*
X107128571Y-133709523D01*
X107128571Y-133557142D01*
X107090476Y-133480952D01*
X107052380Y-133442857D01*
X106976190Y-133404761D01*
X98866666Y-126285714D02*
X98828571Y-126323809D01*
X98714285Y-126361904D01*
X98638095Y-126361904D01*
X98523809Y-126323809D01*
X98447619Y-126247619D01*
X98409523Y-126171428D01*
X98371428Y-126019047D01*
X98371428Y-125904761D01*
X98409523Y-125752380D01*
X98447619Y-125676190D01*
X98523809Y-125600000D01*
X98638095Y-125561904D01*
X98714285Y-125561904D01*
X98828571Y-125600000D01*
X98866666Y-125638095D01*
X99133333Y-125561904D02*
X99666666Y-125561904D01*
X99323809Y-126361904D01*
X101866666Y-129285714D02*
X101828571Y-129323809D01*
X101714285Y-129361904D01*
X101638095Y-129361904D01*
X101523809Y-129323809D01*
X101447619Y-129247619D01*
X101409523Y-129171428D01*
X101371428Y-129019047D01*
X101371428Y-128904761D01*
X101409523Y-128752380D01*
X101447619Y-128676190D01*
X101523809Y-128600000D01*
X101638095Y-128561904D01*
X101714285Y-128561904D01*
X101828571Y-128600000D01*
X101866666Y-128638095D01*
X102552380Y-128561904D02*
X102400000Y-128561904D01*
X102323809Y-128600000D01*
X102285714Y-128638095D01*
X102209523Y-128752380D01*
X102171428Y-128904761D01*
X102171428Y-129209523D01*
X102209523Y-129285714D01*
X102247619Y-129323809D01*
X102323809Y-129361904D01*
X102476190Y-129361904D01*
X102552380Y-129323809D01*
X102590476Y-129285714D01*
X102628571Y-129209523D01*
X102628571Y-129019047D01*
X102590476Y-128942857D01*
X102552380Y-128904761D01*
X102476190Y-128866666D01*
X102323809Y-128866666D01*
X102247619Y-128904761D01*
X102209523Y-128942857D01*
X102171428Y-129019047D01*
X104866666Y-132285714D02*
X104828571Y-132323809D01*
X104714285Y-132361904D01*
X104638095Y-132361904D01*
X104523809Y-132323809D01*
X104447619Y-132247619D01*
X104409523Y-132171428D01*
X104371428Y-132019047D01*
X104371428Y-131904761D01*
X104409523Y-131752380D01*
X104447619Y-131676190D01*
X104523809Y-131600000D01*
X104638095Y-131561904D01*
X104714285Y-131561904D01*
X104828571Y-131600000D01*
X104866666Y-131638095D01*
X105590476Y-131561904D02*
X105209523Y-131561904D01*
X105171428Y-131942857D01*
X105209523Y-131904761D01*
X105285714Y-131866666D01*
X105476190Y-131866666D01*
X105552380Y-131904761D01*
X105590476Y-131942857D01*
X105628571Y-132019047D01*
X105628571Y-132209523D01*
X105590476Y-132285714D01*
X105552380Y-132323809D01*
X105476190Y-132361904D01*
X105285714Y-132361904D01*
X105209523Y-132323809D01*
X105171428Y-132285714D01*
X70785714Y-131514285D02*
X70823809Y-131552380D01*
X70861904Y-131666666D01*
X70861904Y-131742857D01*
X70823809Y-131857142D01*
X70747619Y-131933333D01*
X70671428Y-131971428D01*
X70519047Y-132009523D01*
X70404761Y-132009523D01*
X70252380Y-131971428D01*
X70176190Y-131933333D01*
X70100000Y-131857142D01*
X70061904Y-131742857D01*
X70061904Y-131666666D01*
X70100000Y-131552380D01*
X70138095Y-131514285D01*
X70861904Y-130752380D02*
X70861904Y-131209523D01*
X70861904Y-130980952D02*
X70061904Y-130980952D01*
X70176190Y-131057142D01*
X70252380Y-131133333D01*
X70290476Y-131209523D01*
X70061904Y-130485714D02*
X70061904Y-129990476D01*
X70366666Y-130257142D01*
X70366666Y-130142857D01*
X70404761Y-130066666D01*
X70442857Y-130028571D01*
X70519047Y-129990476D01*
X70709523Y-129990476D01*
X70785714Y-130028571D01*
X70823809Y-130066666D01*
X70861904Y-130142857D01*
X70861904Y-130371428D01*
X70823809Y-130447619D01*
X70785714Y-130485714D01*
X91866666Y-125785714D02*
X91828571Y-125823809D01*
X91714285Y-125861904D01*
X91638095Y-125861904D01*
X91523809Y-125823809D01*
X91447619Y-125747619D01*
X91409523Y-125671428D01*
X91371428Y-125519047D01*
X91371428Y-125404761D01*
X91409523Y-125252380D01*
X91447619Y-125176190D01*
X91523809Y-125100000D01*
X91638095Y-125061904D01*
X91714285Y-125061904D01*
X91828571Y-125100000D01*
X91866666Y-125138095D01*
X92552380Y-125328571D02*
X92552380Y-125861904D01*
X92361904Y-125023809D02*
X92171428Y-125595238D01*
X92666666Y-125595238D01*
X89866666Y-125785714D02*
X89828571Y-125823809D01*
X89714285Y-125861904D01*
X89638095Y-125861904D01*
X89523809Y-125823809D01*
X89447619Y-125747619D01*
X89409523Y-125671428D01*
X89371428Y-125519047D01*
X89371428Y-125404761D01*
X89409523Y-125252380D01*
X89447619Y-125176190D01*
X89523809Y-125100000D01*
X89638095Y-125061904D01*
X89714285Y-125061904D01*
X89828571Y-125100000D01*
X89866666Y-125138095D01*
X90133333Y-125061904D02*
X90628571Y-125061904D01*
X90361904Y-125366666D01*
X90476190Y-125366666D01*
X90552380Y-125404761D01*
X90590476Y-125442857D01*
X90628571Y-125519047D01*
X90628571Y-125709523D01*
X90590476Y-125785714D01*
X90552380Y-125823809D01*
X90476190Y-125861904D01*
X90247619Y-125861904D01*
X90171428Y-125823809D01*
X90133333Y-125785714D01*
X82366666Y-135785714D02*
X82328571Y-135823809D01*
X82214285Y-135861904D01*
X82138095Y-135861904D01*
X82023809Y-135823809D01*
X81947619Y-135747619D01*
X81909523Y-135671428D01*
X81871428Y-135519047D01*
X81871428Y-135404761D01*
X81909523Y-135252380D01*
X81947619Y-135176190D01*
X82023809Y-135100000D01*
X82138095Y-135061904D01*
X82214285Y-135061904D01*
X82328571Y-135100000D01*
X82366666Y-135138095D01*
X82671428Y-135138095D02*
X82709523Y-135100000D01*
X82785714Y-135061904D01*
X82976190Y-135061904D01*
X83052380Y-135100000D01*
X83090476Y-135138095D01*
X83128571Y-135214285D01*
X83128571Y-135290476D01*
X83090476Y-135404761D01*
X82633333Y-135861904D01*
X83128571Y-135861904D01*
X70733333Y-137561904D02*
X70733333Y-138133333D01*
X70695238Y-138247619D01*
X70619047Y-138323809D01*
X70504761Y-138361904D01*
X70428571Y-138361904D01*
X71076190Y-137638095D02*
X71114285Y-137600000D01*
X71190476Y-137561904D01*
X71380952Y-137561904D01*
X71457142Y-137600000D01*
X71495238Y-137638095D01*
X71533333Y-137714285D01*
X71533333Y-137790476D01*
X71495238Y-137904761D01*
X71038095Y-138361904D01*
X71533333Y-138361904D01*
X78890476Y-135061904D02*
X78890476Y-135709523D01*
X78928571Y-135785714D01*
X78966666Y-135823809D01*
X79042857Y-135861904D01*
X79195238Y-135861904D01*
X79271428Y-135823809D01*
X79309523Y-135785714D01*
X79347619Y-135709523D01*
X79347619Y-135061904D01*
X79652380Y-135061904D02*
X80147619Y-135061904D01*
X79880952Y-135366666D01*
X79995238Y-135366666D01*
X80071428Y-135404761D01*
X80109523Y-135442857D01*
X80147619Y-135519047D01*
X80147619Y-135709523D01*
X80109523Y-135785714D01*
X80071428Y-135823809D01*
X79995238Y-135861904D01*
X79766666Y-135861904D01*
X79690476Y-135823809D01*
X79652380Y-135785714D01*
X103366666Y-130861904D02*
X103100000Y-130480952D01*
X102909523Y-130861904D02*
X102909523Y-130061904D01*
X103214285Y-130061904D01*
X103290476Y-130100000D01*
X103328571Y-130138095D01*
X103366666Y-130214285D01*
X103366666Y-130328571D01*
X103328571Y-130404761D01*
X103290476Y-130442857D01*
X103214285Y-130480952D01*
X102909523Y-130480952D01*
X104128571Y-130861904D02*
X103671428Y-130861904D01*
X103900000Y-130861904D02*
X103900000Y-130061904D01*
X103823809Y-130176190D01*
X103747619Y-130252380D01*
X103671428Y-130290476D01*
M02*
