G04 #@! TF.GenerationSoftware,KiCad,Pcbnew,(5.0.0-rc2-dev-231-ge0e0687cd)*
G04 #@! TF.CreationDate,2018-07-23T22:11:47+02:00*
G04 #@! TF.ProjectId,WiFi_Plotter,576946695F506C6F747465722E6B6963,rev?*
G04 #@! TF.SameCoordinates,Original*
G04 #@! TF.FileFunction,Soldermask,Bot*
G04 #@! TF.FilePolarity,Negative*
%FSLAX46Y46*%
G04 Gerber Fmt 4.6, Leading zero omitted, Abs format (unit mm)*
G04 Created by KiCad (PCBNEW (5.0.0-rc2-dev-231-ge0e0687cd)) date Mon Jul 23 22:11:47 2018*
%MOMM*%
%LPD*%
G01*
G04 APERTURE LIST*
%ADD10C,0.300000*%
%ADD11R,1.200000X3.350000*%
%ADD12R,2.046667X3.680000*%
G04 APERTURE END LIST*
D10*
X75195000Y-125678571D02*
X74837857Y-126678571D01*
X74480714Y-125678571D01*
X73123571Y-126678571D02*
X73980714Y-126678571D01*
X73552142Y-126678571D02*
X73552142Y-125178571D01*
X73695000Y-125392857D01*
X73837857Y-125535714D01*
X73980714Y-125607142D01*
X72480714Y-126535714D02*
X72409285Y-126607142D01*
X72480714Y-126678571D01*
X72552142Y-126607142D01*
X72480714Y-126535714D01*
X72480714Y-126678571D01*
X71480714Y-125178571D02*
X71337857Y-125178571D01*
X71195000Y-125250000D01*
X71123571Y-125321428D01*
X71052142Y-125464285D01*
X70980714Y-125750000D01*
X70980714Y-126107142D01*
X71052142Y-126392857D01*
X71123571Y-126535714D01*
X71195000Y-126607142D01*
X71337857Y-126678571D01*
X71480714Y-126678571D01*
X71623571Y-126607142D01*
X71695000Y-126535714D01*
X71766428Y-126392857D01*
X71837857Y-126107142D01*
X71837857Y-125750000D01*
X71766428Y-125464285D01*
X71695000Y-125321428D01*
X71623571Y-125250000D01*
X71480714Y-125178571D01*
D11*
X92540000Y-122000000D03*
X90000000Y-122000000D03*
X87460000Y-122000000D03*
D12*
X74765000Y-138000000D03*
X77535000Y-138000000D03*
X80305000Y-138000000D03*
X83075000Y-138000000D03*
X85845000Y-138000000D03*
X88615000Y-138000000D03*
X91385000Y-138000000D03*
X94155000Y-138000000D03*
X96925000Y-138000000D03*
X99695000Y-138000000D03*
X102465000Y-138000000D03*
X105235000Y-138000000D03*
M02*
