G04 #@! TF.GenerationSoftware,KiCad,Pcbnew,(5.0.0-rc2-dev-231-ge0e0687cd)*
G04 #@! TF.CreationDate,2018-07-23T22:11:46+02:00*
G04 #@! TF.ProjectId,WiFi_Plotter,576946695F506C6F747465722E6B6963,rev?*
G04 #@! TF.SameCoordinates,Original*
G04 #@! TF.FileFunction,Paste,Top*
G04 #@! TF.FilePolarity,Positive*
%FSLAX46Y46*%
G04 Gerber Fmt 4.6, Leading zero omitted, Abs format (unit mm)*
G04 Created by KiCad (PCBNEW (5.0.0-rc2-dev-231-ge0e0687cd)) date Mon Jul 23 22:11:46 2018*
%MOMM*%
%LPD*%
G01*
G04 APERTURE LIST*
%ADD10R,0.900000X0.800000*%
%ADD11R,1.000000X3.150000*%
%ADD12R,0.670000X1.000000*%
%ADD13R,0.920000X0.920000*%
%ADD14R,0.700000X0.250000*%
%ADD15R,0.250000X0.700000*%
%ADD16R,0.845000X1.000000*%
%ADD17R,1.000000X0.670000*%
%ADD18R,0.800000X0.900000*%
%ADD19R,3.800000X2.000000*%
%ADD20R,1.500000X2.000000*%
%ADD21R,1.846667X3.480000*%
%ADD22R,1.500000X0.600000*%
G04 APERTURE END LIST*
D10*
X86000000Y-122000000D03*
X84000000Y-122950000D03*
X84000000Y-121050000D03*
D11*
X92540000Y-122000000D03*
X90000000Y-122000000D03*
X87460000Y-122000000D03*
D12*
X86875000Y-124500000D03*
X85125000Y-124500000D03*
X83875000Y-124500000D03*
X82125000Y-124500000D03*
X101625000Y-135000000D03*
X103375000Y-135000000D03*
D13*
X94150000Y-133150000D03*
X94150000Y-132000000D03*
X94150000Y-130850000D03*
X93000000Y-133150000D03*
X93000000Y-132000000D03*
X93000000Y-130850000D03*
X91850000Y-130850000D03*
X91850000Y-132000000D03*
X91850000Y-133150000D03*
D14*
X95400000Y-130250000D03*
X95400000Y-130750000D03*
X95400000Y-131250000D03*
X95400000Y-131750000D03*
X95400000Y-132250000D03*
X95400000Y-132750000D03*
X95400000Y-133250000D03*
X95400000Y-133750000D03*
D15*
X94750000Y-134400000D03*
X94250000Y-134400000D03*
X93750000Y-134400000D03*
X93250000Y-134400000D03*
X92750000Y-134400000D03*
X92250000Y-134400000D03*
X91750000Y-134400000D03*
X91250000Y-134400000D03*
D14*
X90600000Y-133750000D03*
X90600000Y-133250000D03*
X90600000Y-132750000D03*
X90600000Y-132250000D03*
X90600000Y-131750000D03*
X90600000Y-131250000D03*
X90600000Y-130750000D03*
X90600000Y-130250000D03*
D15*
X91250000Y-129600000D03*
X91750000Y-129600000D03*
X92250000Y-129600000D03*
X92750000Y-129600000D03*
X93250000Y-129600000D03*
X93750000Y-129600000D03*
X94250000Y-129600000D03*
X94750000Y-129600000D03*
D16*
X97462500Y-127500000D03*
X95537500Y-127500000D03*
D17*
X88500000Y-131375000D03*
X88500000Y-129625000D03*
D18*
X99550000Y-135200000D03*
X99550000Y-133800000D03*
X98450000Y-133800000D03*
X98450000Y-135200000D03*
D17*
X88500000Y-128375000D03*
X88500000Y-126625000D03*
D19*
X84000000Y-133650000D03*
D20*
X84000000Y-127350000D03*
X81700000Y-127350000D03*
X86300000Y-127350000D03*
D17*
X82500000Y-121124999D03*
X82500000Y-122874999D03*
X72000000Y-133125000D03*
X72000000Y-134875000D03*
X72000000Y-128875000D03*
X72000000Y-127125000D03*
X72000000Y-125875000D03*
X72000000Y-124125000D03*
D12*
X77125000Y-123500000D03*
X78875000Y-123500000D03*
X74125000Y-123500000D03*
X75875000Y-123500000D03*
X103375000Y-133500000D03*
X101625000Y-133500000D03*
X95875000Y-126000000D03*
X94125000Y-126000000D03*
X98875000Y-129000000D03*
X97125000Y-129000000D03*
X100125000Y-132000000D03*
X101875000Y-132000000D03*
D17*
X72000000Y-131875000D03*
X72000000Y-130125000D03*
X91500000Y-128375000D03*
X91500000Y-126625000D03*
X90000000Y-126625000D03*
X90000000Y-128375000D03*
X81000000Y-134875000D03*
X81000000Y-133125000D03*
D21*
X73380000Y-138000000D03*
X76150000Y-138000000D03*
X78920000Y-138000000D03*
X81690000Y-138000000D03*
X84460000Y-138000000D03*
X87230000Y-138000000D03*
X90000000Y-138000000D03*
X92770000Y-138000000D03*
X95540000Y-138000000D03*
X98310000Y-138000000D03*
X101080000Y-138000000D03*
X103850000Y-138000000D03*
X106620000Y-138000000D03*
D22*
X73800000Y-125555000D03*
X73800000Y-126825000D03*
X73800000Y-128095000D03*
X73800000Y-129365000D03*
X73800000Y-130635000D03*
X73800000Y-131905000D03*
X73800000Y-133175000D03*
X73800000Y-134445000D03*
X79200000Y-134445000D03*
X79200000Y-133175000D03*
X79200000Y-131905000D03*
X79200000Y-130635000D03*
X79200000Y-129365000D03*
X79200000Y-128095000D03*
X79200000Y-126825000D03*
X79200000Y-125555000D03*
D12*
X98625000Y-130500000D03*
X100375000Y-130500000D03*
M02*
