G04 #@! TF.GenerationSoftware,KiCad,Pcbnew,(5.0.0-rc2-dev-231-ge0e0687cd)*
G04 #@! TF.CreationDate,2018-07-23T22:11:46+02:00*
G04 #@! TF.ProjectId,WiFi_Plotter,576946695F506C6F747465722E6B6963,rev?*
G04 #@! TF.SameCoordinates,Original*
G04 #@! TF.FileFunction,Copper,L1,Top,Signal*
G04 #@! TF.FilePolarity,Positive*
%FSLAX46Y46*%
G04 Gerber Fmt 4.6, Leading zero omitted, Abs format (unit mm)*
G04 Created by KiCad (PCBNEW (5.0.0-rc2-dev-231-ge0e0687cd)) date Mon Jul 23 22:11:46 2018*
%MOMM*%
%LPD*%
G01*
G04 APERTURE LIST*
%ADD10C,0.100000*%
%ADD11R,0.900000X0.800000*%
%ADD12R,1.000000X3.150000*%
%ADD13R,0.670000X1.000000*%
%ADD14C,0.500000*%
%ADD15R,3.450000X3.450000*%
%ADD16R,0.700000X0.250000*%
%ADD17R,0.250000X0.700000*%
%ADD18R,0.845000X1.000000*%
%ADD19R,1.000000X0.670000*%
%ADD20R,0.800000X0.900000*%
%ADD21R,3.800000X2.000000*%
%ADD22R,1.500000X2.000000*%
%ADD23R,1.846667X3.480000*%
%ADD24R,1.500000X0.600000*%
%ADD25C,0.800000*%
%ADD26C,0.254000*%
%ADD27C,0.152400*%
G04 APERTURE END LIST*
D10*
G36*
X101507250Y-125957574D02*
X102921463Y-127371787D01*
X104788225Y-125505025D01*
X106697413Y-127414214D01*
X104830652Y-129280975D01*
X106244865Y-130695189D01*
X108111627Y-128828427D01*
X110020815Y-130737615D01*
X106881261Y-133877170D01*
X106527708Y-133523616D01*
X109313708Y-130737615D01*
X108111627Y-129535534D01*
X106244865Y-131402296D01*
X104123545Y-129280975D01*
X105990307Y-127414214D01*
X104788225Y-126212132D01*
X102921463Y-128078894D01*
X100800143Y-125957574D01*
X102666905Y-124090812D01*
X101464823Y-122888730D01*
X98000000Y-126353553D01*
X97646447Y-126000000D01*
X101111270Y-122535177D01*
X100121320Y-121545227D01*
X96656497Y-125010051D01*
X96020101Y-124373654D01*
X96192080Y-124201675D01*
X96405921Y-124415517D01*
X96379214Y-124456141D01*
X96366250Y-124503142D01*
X96369898Y-124553153D01*
X96372414Y-124561827D01*
X96394020Y-124600556D01*
X96428853Y-124634339D01*
X96470159Y-124657401D01*
X96490823Y-124663056D01*
X96539527Y-124661931D01*
X96586015Y-124644518D01*
X96625653Y-124614116D01*
X96653809Y-124574024D01*
X96664651Y-124539291D01*
X96662819Y-124491257D01*
X96644990Y-124445009D01*
X96614576Y-124405298D01*
X96574995Y-124376875D01*
X96539783Y-124365571D01*
X96489076Y-124366865D01*
X96443499Y-124384636D01*
X96405921Y-124415517D01*
X96192080Y-124201675D01*
X99838478Y-120555278D01*
X103374012Y-124090812D01*
X101507250Y-125957574D01*
X101507250Y-125957574D01*
G37*
D11*
X86000000Y-122000000D03*
X84000000Y-122950000D03*
X84000000Y-121050000D03*
D12*
X92540000Y-122000000D03*
X90000000Y-122000000D03*
X87460000Y-122000000D03*
D13*
X86875000Y-124500000D03*
X85125000Y-124500000D03*
X83875000Y-124500000D03*
X82125000Y-124500000D03*
D14*
X96515076Y-124515076D03*
D10*
G36*
X96020101Y-124373655D02*
X96373655Y-124020101D01*
X97010051Y-124656497D01*
X96656497Y-125010051D01*
X96020101Y-124373655D01*
X96020101Y-124373655D01*
G37*
D14*
X98000000Y-126000000D03*
D10*
G36*
X97646447Y-126000000D02*
X98000000Y-125646447D01*
X98353553Y-126000000D01*
X98000000Y-126353553D01*
X97646447Y-126000000D01*
X97646447Y-126000000D01*
G37*
D13*
X101625000Y-135000000D03*
X103375000Y-135000000D03*
D15*
X93000000Y-132000000D03*
D16*
X95400000Y-130250000D03*
X95400000Y-130750000D03*
X95400000Y-131250000D03*
X95400000Y-131750000D03*
X95400000Y-132250000D03*
X95400000Y-132750000D03*
X95400000Y-133250000D03*
X95400000Y-133750000D03*
D17*
X94750000Y-134400000D03*
X94250000Y-134400000D03*
X93750000Y-134400000D03*
X93250000Y-134400000D03*
X92750000Y-134400000D03*
X92250000Y-134400000D03*
X91750000Y-134400000D03*
X91250000Y-134400000D03*
D16*
X90600000Y-133750000D03*
X90600000Y-133250000D03*
X90600000Y-132750000D03*
X90600000Y-132250000D03*
X90600000Y-131750000D03*
X90600000Y-131250000D03*
X90600000Y-130750000D03*
X90600000Y-130250000D03*
D17*
X91250000Y-129600000D03*
X91750000Y-129600000D03*
X92250000Y-129600000D03*
X92750000Y-129600000D03*
X93250000Y-129600000D03*
X93750000Y-129600000D03*
X94250000Y-129600000D03*
X94750000Y-129600000D03*
D18*
X97462500Y-127500000D03*
X95537500Y-127500000D03*
D19*
X88500000Y-131375000D03*
X88500000Y-129625000D03*
D20*
X99550000Y-135200000D03*
X99550000Y-133800000D03*
X98450000Y-133800000D03*
X98450000Y-135200000D03*
D19*
X88500000Y-128375000D03*
X88500000Y-126625000D03*
D21*
X84000000Y-133650000D03*
D22*
X84000000Y-127350000D03*
X81700000Y-127350000D03*
X86300000Y-127350000D03*
D19*
X82500000Y-121124999D03*
X82500000Y-122874999D03*
X72000000Y-133125000D03*
X72000000Y-134875000D03*
X72000000Y-128875000D03*
X72000000Y-127125000D03*
X72000000Y-125875000D03*
X72000000Y-124125000D03*
D13*
X77125000Y-123500000D03*
X78875000Y-123500000D03*
X74125000Y-123500000D03*
X75875000Y-123500000D03*
X103375000Y-133500000D03*
X101625000Y-133500000D03*
X95875000Y-126000000D03*
X94125000Y-126000000D03*
X98875000Y-129000000D03*
X97125000Y-129000000D03*
X100125000Y-132000000D03*
X101875000Y-132000000D03*
D19*
X72000000Y-131875000D03*
X72000000Y-130125000D03*
X91500000Y-128375000D03*
X91500000Y-126625000D03*
X90000000Y-126625000D03*
X90000000Y-128375000D03*
X81000000Y-134875000D03*
X81000000Y-133125000D03*
D23*
X73380000Y-138000000D03*
X76150000Y-138000000D03*
X78920000Y-138000000D03*
X81690000Y-138000000D03*
X84460000Y-138000000D03*
X87230000Y-138000000D03*
X90000000Y-138000000D03*
X92770000Y-138000000D03*
X95540000Y-138000000D03*
X98310000Y-138000000D03*
X101080000Y-138000000D03*
X103850000Y-138000000D03*
X106620000Y-138000000D03*
D24*
X73800000Y-125555000D03*
X73800000Y-126825000D03*
X73800000Y-128095000D03*
X73800000Y-129365000D03*
X73800000Y-130635000D03*
X73800000Y-131905000D03*
X73800000Y-133175000D03*
X73800000Y-134445000D03*
X79200000Y-134445000D03*
X79200000Y-133175000D03*
X79200000Y-131905000D03*
X79200000Y-130635000D03*
X79200000Y-129365000D03*
X79200000Y-128095000D03*
X79200000Y-126825000D03*
X79200000Y-125555000D03*
D13*
X98625000Y-130500000D03*
X100375000Y-130500000D03*
D25*
X94991181Y-128538346D03*
X96254000Y-131500000D03*
X93500000Y-128500000D03*
X82987598Y-124500000D03*
X87500000Y-129000000D03*
X86500000Y-129000000D03*
X85500000Y-129000000D03*
X85000000Y-121000000D03*
X91500000Y-127487598D03*
X86500000Y-131000000D03*
X81000000Y-133987598D03*
X101500000Y-131000000D03*
X98500000Y-128000000D03*
X103000000Y-132500000D03*
X102500000Y-132000000D03*
X95000000Y-124500000D03*
X94500000Y-125000000D03*
X94500000Y-124000000D03*
X95000000Y-123500000D03*
X95500000Y-124000000D03*
X97000000Y-125500000D03*
X98500000Y-127000000D03*
X99000000Y-127500000D03*
X99500000Y-128000000D03*
X104000000Y-133500000D03*
X104500000Y-134000000D03*
X105000000Y-133500000D03*
X104500000Y-133000000D03*
X104000000Y-132500000D03*
X103500000Y-132000000D03*
X103000000Y-131500000D03*
X102500000Y-131000000D03*
X102000000Y-130500000D03*
X101500000Y-130000000D03*
X101000000Y-129500000D03*
X100000000Y-128500000D03*
X100000000Y-129500000D03*
X100500000Y-129000000D03*
X99500000Y-129000000D03*
X105500000Y-134000000D03*
X106000000Y-134500000D03*
X107000000Y-135500000D03*
X106500000Y-135000000D03*
X105000000Y-135500000D03*
X106000000Y-135500000D03*
X105000000Y-134500000D03*
X105500000Y-135000000D03*
X104500000Y-135000000D03*
X88000000Y-135000000D03*
X92000000Y-133000000D03*
X93000000Y-133000000D03*
X94000000Y-133000000D03*
X94000000Y-132000000D03*
X94000000Y-131000000D03*
X93000000Y-131000000D03*
X92000000Y-131000000D03*
X92000000Y-132000000D03*
X93000000Y-132000000D03*
X97500000Y-135000000D03*
X100500000Y-134000000D03*
X101012402Y-132000000D03*
X99512402Y-130500000D03*
X98012402Y-129000000D03*
X94987598Y-126000000D03*
X102512402Y-135000000D03*
X102512402Y-133500000D03*
X71000000Y-136500000D03*
X78000000Y-127000000D03*
X78500000Y-122500000D03*
X74500000Y-122500024D03*
X72000000Y-128012402D03*
X72000000Y-134012402D03*
X78000000Y-133500000D03*
X86500000Y-133452413D03*
X88947598Y-122000000D03*
X89500000Y-133500000D03*
X95500000Y-134500000D03*
X96500000Y-134500000D03*
X78000000Y-129500000D03*
X86500000Y-132000028D03*
X78000000Y-130500000D03*
X93592440Y-123000000D03*
X95500000Y-129500000D03*
D26*
X95400000Y-131250000D02*
X96004000Y-131250000D01*
X96004000Y-131250000D02*
X96254000Y-131500000D01*
X95400000Y-131750000D02*
X96004000Y-131750000D01*
X96004000Y-131750000D02*
X96254000Y-131500000D01*
X93500000Y-128500000D02*
X93750000Y-128750000D01*
X93750000Y-128750000D02*
X93750000Y-129600000D01*
X93250000Y-128750000D02*
X93500000Y-128500000D01*
X93250000Y-129600000D02*
X93250000Y-128750000D01*
X82125000Y-124500000D02*
X82987598Y-124500000D01*
X86300000Y-127800000D02*
X87500000Y-129000000D01*
X86300000Y-127350000D02*
X86300000Y-127800000D01*
X86300000Y-128800000D02*
X86500000Y-129000000D01*
X86300000Y-127350000D02*
X86300000Y-128800000D01*
X86300000Y-128200000D02*
X85500000Y-129000000D01*
X86300000Y-127350000D02*
X86300000Y-128200000D01*
X84950000Y-121050000D02*
X85000000Y-121000000D01*
X84000000Y-121050000D02*
X84950000Y-121050000D01*
X84000000Y-121050000D02*
X82574999Y-121050000D01*
X82574999Y-121050000D02*
X82500000Y-121124999D01*
X91500000Y-126625000D02*
X91500000Y-127487598D01*
X90000000Y-126625000D02*
X91500000Y-126625000D01*
X86875000Y-131375000D02*
X86500000Y-131000000D01*
X88000000Y-131375000D02*
X86875000Y-131375000D01*
X81000000Y-133125000D02*
X81000000Y-133987598D01*
X96515076Y-124515076D02*
X96015076Y-124515076D01*
X96015076Y-124515076D02*
X95500000Y-124000000D01*
X96515076Y-125015076D02*
X97000000Y-125500000D01*
X96515076Y-124515076D02*
X96515076Y-125015076D01*
X96515076Y-124515076D02*
X96030152Y-125000000D01*
X90000000Y-138000000D02*
X90000000Y-137183334D01*
X90000000Y-137183334D02*
X88000000Y-135183334D01*
X88000000Y-135183334D02*
X88000000Y-135000000D01*
X97700000Y-135200000D02*
X97500000Y-135000000D01*
X98450000Y-135200000D02*
X97700000Y-135200000D01*
X100300000Y-133800000D02*
X100500000Y-134000000D01*
X99550000Y-133800000D02*
X100300000Y-133800000D01*
X101875000Y-132000000D02*
X101012402Y-132000000D01*
X100375000Y-130500000D02*
X99512402Y-130500000D01*
X98875000Y-129000000D02*
X98012402Y-129000000D01*
X94125000Y-126000000D02*
X94987598Y-126000000D01*
X103375000Y-135000000D02*
X102512402Y-135000000D01*
X103375000Y-133500000D02*
X102512402Y-133500000D01*
X71500000Y-138000000D02*
X71000000Y-137500000D01*
X73380000Y-138000000D02*
X71500000Y-138000000D01*
X71000000Y-137500000D02*
X71000000Y-136500000D01*
X78175000Y-126825000D02*
X78000000Y-127000000D01*
X79200000Y-126825000D02*
X78175000Y-126825000D01*
X78875000Y-122746000D02*
X78629000Y-122500000D01*
X78629000Y-122500000D02*
X78500000Y-122500000D01*
X78875000Y-123500000D02*
X78875000Y-122746000D01*
X74125000Y-122746000D02*
X74370976Y-122500024D01*
X74370976Y-122500024D02*
X74500000Y-122500024D01*
X74125000Y-123500000D02*
X74125000Y-122746000D01*
X72000000Y-128875000D02*
X72000000Y-128012402D01*
X72000000Y-128000000D02*
X72000000Y-128012402D01*
X72000000Y-134875000D02*
X72000000Y-134012402D01*
D27*
X79200000Y-133175000D02*
X78297600Y-133175000D01*
X78000000Y-133472600D02*
X78000000Y-133500000D01*
X78297600Y-133175000D02*
X78000000Y-133472600D01*
X86899999Y-133052414D02*
X86500000Y-133452413D01*
X87202413Y-132750000D02*
X86899999Y-133052414D01*
X90600000Y-132750000D02*
X87202413Y-132750000D01*
X88947598Y-122000000D02*
X90000000Y-122000000D01*
X89750000Y-133250000D02*
X89500000Y-133500000D01*
X90600000Y-133250000D02*
X89750000Y-133250000D01*
X95500000Y-134500000D02*
X95500000Y-133850000D01*
X95500000Y-133850000D02*
X95400000Y-133750000D01*
X95400000Y-133250000D02*
X95902400Y-133250000D01*
X96500000Y-133847600D02*
X96500000Y-133934315D01*
X96500000Y-133934315D02*
X96500000Y-134500000D01*
X95902400Y-133250000D02*
X96500000Y-133847600D01*
X96750000Y-132250000D02*
X97500000Y-133000000D01*
X95400000Y-132250000D02*
X96750000Y-132250000D01*
X97500000Y-133000000D02*
X98500000Y-133000000D01*
X98500000Y-133000000D02*
X100637600Y-133000000D01*
X98450000Y-133800000D02*
X98450000Y-133050000D01*
X98450000Y-133050000D02*
X98500000Y-133000000D01*
X101137600Y-133500000D02*
X101625000Y-133500000D01*
X100637600Y-133000000D02*
X101137600Y-133500000D01*
X77236666Y-135500000D02*
X77500000Y-135763334D01*
X76000000Y-135500000D02*
X77236666Y-135500000D01*
X75236666Y-134736666D02*
X76000000Y-135500000D01*
X75236666Y-133500000D02*
X75236666Y-134736666D01*
X74911666Y-133175000D02*
X75236666Y-133500000D01*
X73800000Y-133175000D02*
X74911666Y-133175000D01*
X77500000Y-135763334D02*
X77500000Y-137655733D01*
X77500000Y-137655733D02*
X77844267Y-138000000D01*
X77844267Y-138000000D02*
X78920000Y-138000000D01*
X73800000Y-134445000D02*
X73800000Y-134897400D01*
X73800000Y-134897400D02*
X76150000Y-137247400D01*
X76150000Y-137247400D02*
X76150000Y-138000000D01*
X98625000Y-130500000D02*
X96323670Y-130500000D01*
X96323670Y-130500000D02*
X96073670Y-130750000D01*
X96073670Y-130750000D02*
X95902400Y-130750000D01*
X95902400Y-130750000D02*
X95400000Y-130750000D01*
X78135000Y-129365000D02*
X78000000Y-129500000D01*
X79200000Y-129365000D02*
X78135000Y-129365000D01*
X97462500Y-127500000D02*
X97628601Y-127333899D01*
X97628601Y-127333899D02*
X97628601Y-126371399D01*
X97628601Y-126371399D02*
X97752514Y-126247486D01*
X97752514Y-126247486D02*
X98000000Y-126000000D01*
X97125000Y-129000000D02*
X97125000Y-127837500D01*
X97125000Y-127837500D02*
X97462500Y-127500000D01*
D26*
X81000000Y-126650000D02*
X81000000Y-124209999D01*
X81000000Y-124209999D02*
X82335000Y-122874999D01*
X82335000Y-122874999D02*
X82500000Y-122874999D01*
X81700000Y-127350000D02*
X81000000Y-126650000D01*
X84000000Y-122950000D02*
X82575001Y-122950000D01*
X82575001Y-122950000D02*
X82500000Y-122874999D01*
D27*
X90600000Y-132250000D02*
X86749972Y-132250000D01*
X86749972Y-132250000D02*
X86500000Y-132000028D01*
X78135000Y-130635000D02*
X78000000Y-130500000D01*
X79200000Y-130635000D02*
X78135000Y-130635000D01*
X93192400Y-122000000D02*
X93592440Y-122400040D01*
X93592440Y-122400040D02*
X93592440Y-122434315D01*
X93592440Y-122434315D02*
X93592440Y-123000000D01*
X92540000Y-122000000D02*
X93192400Y-122000000D01*
X95500000Y-129500000D02*
X95500000Y-130150000D01*
X95500000Y-130150000D02*
X95400000Y-130250000D01*
X73800000Y-125555000D02*
X73350000Y-125555000D01*
X73350000Y-125555000D02*
X72000000Y-124205000D01*
X72000000Y-124205000D02*
X72000000Y-124125000D01*
X73800000Y-126825000D02*
X72300000Y-126825000D01*
X72300000Y-126825000D02*
X72000000Y-127125000D01*
X75000000Y-127500000D02*
X74405000Y-128095000D01*
X75000000Y-126500000D02*
X75000000Y-127500000D01*
X72000000Y-125875000D02*
X72652400Y-125875000D01*
X72861001Y-126083601D02*
X74583601Y-126083601D01*
X74583601Y-126083601D02*
X75000000Y-126500000D01*
X72652400Y-125875000D02*
X72861001Y-126083601D01*
X74405000Y-128095000D02*
X73800000Y-128095000D01*
X72000000Y-130125000D02*
X72590000Y-130125000D01*
X72590000Y-130125000D02*
X73350000Y-129365000D01*
X73350000Y-129365000D02*
X73800000Y-129365000D01*
X72000000Y-131875000D02*
X72165000Y-131875000D01*
X72165000Y-131875000D02*
X73405000Y-130635000D01*
X73405000Y-130635000D02*
X73800000Y-130635000D01*
X72000000Y-133125000D02*
X72165000Y-133125000D01*
X72165000Y-133125000D02*
X73385000Y-131905000D01*
X73385000Y-131905000D02*
X73800000Y-131905000D01*
X95875000Y-126000000D02*
X95875000Y-127162500D01*
X95875000Y-127162500D02*
X95537500Y-127500000D01*
X94250000Y-129600000D02*
X94250000Y-128212600D01*
X94962600Y-127500000D02*
X95537500Y-127500000D01*
X94250000Y-128212600D02*
X94962600Y-127500000D01*
X97909917Y-134521399D02*
X99473799Y-134521399D01*
X97500000Y-134111482D02*
X97909917Y-134521399D01*
X99473799Y-134521399D02*
X99550000Y-134597600D01*
X96750000Y-132750000D02*
X97500000Y-133500000D01*
X97500000Y-133500000D02*
X97500000Y-134111482D01*
X95400000Y-132750000D02*
X96750000Y-132750000D01*
X99550000Y-134597600D02*
X99550000Y-135200000D01*
X99550000Y-135200000D02*
X101425000Y-135200000D01*
X101425000Y-135200000D02*
X101625000Y-135000000D01*
X91652400Y-129000000D02*
X89500000Y-129000000D01*
X89500000Y-129000000D02*
X89290000Y-129000000D01*
X89290000Y-129000000D02*
X88665000Y-129625000D01*
X88665000Y-129625000D02*
X88500000Y-129625000D01*
X89290000Y-129000000D02*
X88665000Y-128375000D01*
X88665000Y-128375000D02*
X88500000Y-128375000D01*
X91750000Y-129600000D02*
X91750000Y-129097600D01*
X91750000Y-129097600D02*
X91652400Y-129000000D01*
X85125000Y-124500000D02*
X83875000Y-124500000D01*
X87460000Y-122000000D02*
X86000000Y-122000000D01*
D26*
G36*
X83314246Y-120414246D02*
X83241973Y-120522411D01*
X83235654Y-120554178D01*
X83127589Y-120481972D01*
X83000000Y-120456593D01*
X82000000Y-120456593D01*
X81872411Y-120481972D01*
X81764246Y-120554245D01*
X81691973Y-120662410D01*
X81666594Y-120789999D01*
X81666594Y-121459999D01*
X81691973Y-121587588D01*
X81764246Y-121695753D01*
X81872411Y-121768026D01*
X82000000Y-121793405D01*
X83000000Y-121793405D01*
X83127589Y-121768026D01*
X83235754Y-121695753D01*
X83278341Y-121632017D01*
X83314246Y-121685754D01*
X83422411Y-121758027D01*
X83550000Y-121783406D01*
X84450000Y-121783406D01*
X84577589Y-121758027D01*
X84685754Y-121685754D01*
X84700941Y-121663025D01*
X84855391Y-121727000D01*
X85144609Y-121727000D01*
X85216594Y-121697183D01*
X85216594Y-122400000D01*
X85241973Y-122527589D01*
X85314246Y-122635754D01*
X85422411Y-122708027D01*
X85550000Y-122733406D01*
X86450000Y-122733406D01*
X86577589Y-122708027D01*
X86626594Y-122675283D01*
X86626594Y-123402344D01*
X86589250Y-123365000D01*
X86413691Y-123365000D01*
X86180302Y-123461673D01*
X86001673Y-123640301D01*
X85905000Y-123873690D01*
X85905000Y-124214250D01*
X86063750Y-124373000D01*
X86748000Y-124373000D01*
X86748000Y-124353000D01*
X87002000Y-124353000D01*
X87002000Y-124373000D01*
X87686250Y-124373000D01*
X87845000Y-124214250D01*
X87845000Y-123908406D01*
X87960000Y-123908406D01*
X88087589Y-123883027D01*
X88195754Y-123810754D01*
X88268027Y-123702589D01*
X88293406Y-123575000D01*
X88293406Y-122320384D01*
X88331277Y-122411813D01*
X88535785Y-122616321D01*
X88802989Y-122727000D01*
X89092207Y-122727000D01*
X89166594Y-122696188D01*
X89166594Y-123575000D01*
X89191973Y-123702589D01*
X89264246Y-123810754D01*
X89372411Y-123883027D01*
X89500000Y-123908406D01*
X90500000Y-123908406D01*
X90627589Y-123883027D01*
X90735754Y-123810754D01*
X90808027Y-123702589D01*
X90833406Y-123575000D01*
X90833406Y-120425000D01*
X90828831Y-120402000D01*
X91711169Y-120402000D01*
X91706594Y-120425000D01*
X91706594Y-123575000D01*
X91731973Y-123702589D01*
X91804246Y-123810754D01*
X91912411Y-123883027D01*
X92040000Y-123908406D01*
X93040000Y-123908406D01*
X93167589Y-123883027D01*
X93275754Y-123810754D01*
X93348027Y-123702589D01*
X93351138Y-123686949D01*
X93373000Y-123696004D01*
X93373000Y-126500000D01*
X93382667Y-126548601D01*
X93410197Y-126589803D01*
X93451399Y-126617333D01*
X93481108Y-126623242D01*
X93481973Y-126627589D01*
X93554246Y-126735754D01*
X93662411Y-126808027D01*
X93790000Y-126833406D01*
X94460000Y-126833406D01*
X94587589Y-126808027D01*
X94695754Y-126735754D01*
X94732251Y-126681131D01*
X94842989Y-126727000D01*
X94934989Y-126727000D01*
X94879246Y-126764246D01*
X94806973Y-126872411D01*
X94781594Y-127000000D01*
X94781594Y-127136020D01*
X94671909Y-127209309D01*
X94649414Y-127242975D01*
X93992975Y-127899414D01*
X93959310Y-127921909D01*
X93936815Y-127955575D01*
X93870194Y-128055280D01*
X93838901Y-128212600D01*
X93846801Y-128252316D01*
X93846801Y-128739449D01*
X93812500Y-128773750D01*
X93812500Y-128789474D01*
X93734699Y-128711673D01*
X93548153Y-128634403D01*
X93528750Y-128615000D01*
X93471250Y-128615000D01*
X93451847Y-128634403D01*
X93265301Y-128711673D01*
X93187500Y-128789474D01*
X93187500Y-128773750D01*
X93028750Y-128615000D01*
X92998690Y-128615000D01*
X92765301Y-128711673D01*
X92630994Y-128845981D01*
X92635000Y-128836309D01*
X92635000Y-128660750D01*
X92476250Y-128502000D01*
X91627000Y-128502000D01*
X91627000Y-128522000D01*
X91373000Y-128522000D01*
X91373000Y-128502000D01*
X90127000Y-128502000D01*
X90127000Y-128522000D01*
X89873000Y-128522000D01*
X89873000Y-128502000D01*
X89853000Y-128502000D01*
X89853000Y-128248000D01*
X89873000Y-128248000D01*
X89873000Y-127563750D01*
X89714250Y-127405000D01*
X89453025Y-127405000D01*
X89538327Y-127319698D01*
X89549218Y-127293406D01*
X90500000Y-127293406D01*
X90627589Y-127268027D01*
X90735754Y-127195754D01*
X90750000Y-127174433D01*
X90764246Y-127195754D01*
X90818869Y-127232251D01*
X90773000Y-127342989D01*
X90773000Y-127446707D01*
X90750000Y-127456234D01*
X90626310Y-127405000D01*
X90285750Y-127405000D01*
X90127000Y-127563750D01*
X90127000Y-128248000D01*
X91373000Y-128248000D01*
X91373000Y-128228000D01*
X91627000Y-128228000D01*
X91627000Y-128248000D01*
X92476250Y-128248000D01*
X92635000Y-128089250D01*
X92635000Y-127913691D01*
X92538327Y-127680302D01*
X92359699Y-127501673D01*
X92227000Y-127446707D01*
X92227000Y-127342989D01*
X92181131Y-127232251D01*
X92235754Y-127195754D01*
X92308027Y-127087589D01*
X92333406Y-126960000D01*
X92333406Y-126290000D01*
X92308027Y-126162411D01*
X92235754Y-126054246D01*
X92127589Y-125981973D01*
X92000000Y-125956594D01*
X91000000Y-125956594D01*
X90872411Y-125981973D01*
X90764246Y-126054246D01*
X90750000Y-126075567D01*
X90735754Y-126054246D01*
X90627589Y-125981973D01*
X90500000Y-125956594D01*
X89549218Y-125956594D01*
X89538327Y-125930302D01*
X89359699Y-125751673D01*
X89126310Y-125655000D01*
X88785750Y-125655000D01*
X88627000Y-125813750D01*
X88627000Y-126498000D01*
X88647000Y-126498000D01*
X88647000Y-126752000D01*
X88627000Y-126752000D01*
X88627000Y-127436250D01*
X88785750Y-127595000D01*
X89046975Y-127595000D01*
X88961673Y-127680302D01*
X88950782Y-127706594D01*
X88000000Y-127706594D01*
X87872411Y-127731973D01*
X87764246Y-127804246D01*
X87691973Y-127912411D01*
X87666594Y-128040000D01*
X87666594Y-128282106D01*
X87644609Y-128273000D01*
X87415053Y-128273000D01*
X87383406Y-128241353D01*
X87383406Y-127130745D01*
X87461673Y-127319698D01*
X87640301Y-127498327D01*
X87873690Y-127595000D01*
X88214250Y-127595000D01*
X88373000Y-127436250D01*
X88373000Y-126752000D01*
X88353000Y-126752000D01*
X88353000Y-126498000D01*
X88373000Y-126498000D01*
X88373000Y-125813750D01*
X88214250Y-125655000D01*
X87873690Y-125655000D01*
X87640301Y-125751673D01*
X87461673Y-125930302D01*
X87365000Y-126163691D01*
X87365000Y-126257467D01*
X87358027Y-126222411D01*
X87285754Y-126114246D01*
X87177589Y-126041973D01*
X87050000Y-126016594D01*
X85550000Y-126016594D01*
X85422411Y-126041973D01*
X85334156Y-126100943D01*
X85288327Y-125990302D01*
X85109699Y-125811673D01*
X84876310Y-125715000D01*
X84285750Y-125715000D01*
X84127000Y-125873750D01*
X84127000Y-127223000D01*
X84147000Y-127223000D01*
X84147000Y-127477000D01*
X84127000Y-127477000D01*
X84127000Y-128826250D01*
X84285750Y-128985000D01*
X84773000Y-128985000D01*
X84773000Y-129144609D01*
X84883679Y-129411813D01*
X85088187Y-129616321D01*
X85355391Y-129727000D01*
X85644609Y-129727000D01*
X85911813Y-129616321D01*
X86000000Y-129528134D01*
X86088187Y-129616321D01*
X86355391Y-129727000D01*
X86644609Y-129727000D01*
X86911813Y-129616321D01*
X87000000Y-129528134D01*
X87088187Y-129616321D01*
X87355391Y-129727000D01*
X87644609Y-129727000D01*
X87666594Y-129717894D01*
X87666594Y-129960000D01*
X87691973Y-130087589D01*
X87764246Y-130195754D01*
X87872411Y-130268027D01*
X88000000Y-130293406D01*
X89000000Y-130293406D01*
X89127589Y-130268027D01*
X89235754Y-130195754D01*
X89308027Y-130087589D01*
X89333406Y-129960000D01*
X89333406Y-129526805D01*
X89457011Y-129403200D01*
X90791594Y-129403200D01*
X90791594Y-129791594D01*
X90250000Y-129791594D01*
X90122411Y-129816973D01*
X90014246Y-129889246D01*
X89941973Y-129997411D01*
X89916594Y-130125000D01*
X89916594Y-130375000D01*
X89941458Y-130500000D01*
X89927263Y-130571363D01*
X89890302Y-130586673D01*
X89711673Y-130765301D01*
X89615000Y-130998690D01*
X89615000Y-131028750D01*
X89773750Y-131187500D01*
X90144898Y-131187500D01*
X90250000Y-131208406D01*
X90747000Y-131208406D01*
X90747000Y-131291594D01*
X90250000Y-131291594D01*
X90144898Y-131312500D01*
X89773750Y-131312500D01*
X89615000Y-131471250D01*
X89615000Y-131501310D01*
X89711673Y-131734699D01*
X89823775Y-131846800D01*
X89301872Y-131846800D01*
X89308027Y-131837589D01*
X89333406Y-131710000D01*
X89333406Y-131040000D01*
X89308027Y-130912411D01*
X89235754Y-130804246D01*
X89127589Y-130731973D01*
X89000000Y-130706594D01*
X88000000Y-130706594D01*
X87872411Y-130731973D01*
X87764246Y-130804246D01*
X87691973Y-130912411D01*
X87690265Y-130921000D01*
X87227000Y-130921000D01*
X87227000Y-130855391D01*
X87116321Y-130588187D01*
X86911813Y-130383679D01*
X86644609Y-130273000D01*
X86355391Y-130273000D01*
X86088187Y-130383679D01*
X85883679Y-130588187D01*
X85773000Y-130855391D01*
X85773000Y-131144609D01*
X85883679Y-131411813D01*
X85971880Y-131500014D01*
X85883679Y-131588215D01*
X85773000Y-131855419D01*
X85773000Y-132015000D01*
X84285750Y-132015000D01*
X84127000Y-132173750D01*
X84127000Y-133523000D01*
X84147000Y-133523000D01*
X84147000Y-133777000D01*
X84127000Y-133777000D01*
X84127000Y-135126250D01*
X84285750Y-135285000D01*
X86026310Y-135285000D01*
X86259699Y-135188327D01*
X86438327Y-135009698D01*
X86535000Y-134776309D01*
X86535000Y-134179413D01*
X86644609Y-134179413D01*
X86911813Y-134068734D01*
X87116321Y-133864226D01*
X87227000Y-133597022D01*
X87227000Y-133307804D01*
X87223432Y-133299191D01*
X87369424Y-133153200D01*
X88856750Y-133153200D01*
X88773000Y-133355391D01*
X88773000Y-133644609D01*
X88883679Y-133911813D01*
X89088187Y-134116321D01*
X89355391Y-134227000D01*
X89644609Y-134227000D01*
X89911813Y-134116321D01*
X89975447Y-134052687D01*
X90014246Y-134110754D01*
X90122411Y-134183027D01*
X90250000Y-134208406D01*
X90584156Y-134208406D01*
X90648750Y-134273000D01*
X91187500Y-134273000D01*
X91187500Y-134253000D01*
X91291594Y-134253000D01*
X91291594Y-134750000D01*
X91312500Y-134855102D01*
X91312500Y-135226250D01*
X91471250Y-135385000D01*
X91501310Y-135385000D01*
X91734699Y-135288327D01*
X91913327Y-135109698D01*
X91928637Y-135072737D01*
X92000000Y-135058542D01*
X92125000Y-135083406D01*
X92375000Y-135083406D01*
X92500000Y-135058542D01*
X92625000Y-135083406D01*
X92875000Y-135083406D01*
X93000000Y-135058542D01*
X93125000Y-135083406D01*
X93375000Y-135083406D01*
X93500000Y-135058542D01*
X93625000Y-135083406D01*
X93875000Y-135083406D01*
X94000000Y-135058542D01*
X94125000Y-135083406D01*
X94375000Y-135083406D01*
X94500000Y-135058542D01*
X94625000Y-135083406D01*
X94875000Y-135083406D01*
X95002589Y-135058027D01*
X95018957Y-135047091D01*
X95088187Y-135116321D01*
X95355391Y-135227000D01*
X95644609Y-135227000D01*
X95911813Y-135116321D01*
X96000000Y-135028134D01*
X96088187Y-135116321D01*
X96355391Y-135227000D01*
X96644609Y-135227000D01*
X96783327Y-135169541D01*
X96883679Y-135411813D01*
X97088187Y-135616321D01*
X97355391Y-135727000D01*
X97644609Y-135727000D01*
X97725265Y-135693591D01*
X97741973Y-135777589D01*
X97814246Y-135885754D01*
X97875368Y-135926594D01*
X97386667Y-135926594D01*
X97259078Y-135951973D01*
X97150913Y-136024246D01*
X97078640Y-136132411D01*
X97053261Y-136260000D01*
X97053261Y-139573000D01*
X96796739Y-139573000D01*
X96796739Y-136260000D01*
X96771360Y-136132411D01*
X96699087Y-136024246D01*
X96590922Y-135951973D01*
X96463333Y-135926594D01*
X94616667Y-135926594D01*
X94489078Y-135951973D01*
X94380913Y-136024246D01*
X94308640Y-136132411D01*
X94283261Y-136260000D01*
X94283261Y-139573000D01*
X94026739Y-139573000D01*
X94026739Y-136260000D01*
X94001360Y-136132411D01*
X93929087Y-136024246D01*
X93820922Y-135951973D01*
X93693333Y-135926594D01*
X91846667Y-135926594D01*
X91719078Y-135951973D01*
X91610913Y-136024246D01*
X91538640Y-136132411D01*
X91513261Y-136260000D01*
X91513261Y-139573000D01*
X91256739Y-139573000D01*
X91256739Y-136260000D01*
X91231360Y-136132411D01*
X91159087Y-136024246D01*
X91050922Y-135951973D01*
X90923333Y-135926594D01*
X89385313Y-135926594D01*
X88690777Y-135232059D01*
X88727000Y-135144609D01*
X88727000Y-134855391D01*
X88656733Y-134685750D01*
X90490000Y-134685750D01*
X90490000Y-134876309D01*
X90586673Y-135109698D01*
X90765301Y-135288327D01*
X90998690Y-135385000D01*
X91028750Y-135385000D01*
X91187500Y-135226250D01*
X91187500Y-134527000D01*
X90648750Y-134527000D01*
X90490000Y-134685750D01*
X88656733Y-134685750D01*
X88616321Y-134588187D01*
X88411813Y-134383679D01*
X88144609Y-134273000D01*
X87855391Y-134273000D01*
X87588187Y-134383679D01*
X87383679Y-134588187D01*
X87273000Y-134855391D01*
X87273000Y-135144609D01*
X87383679Y-135411813D01*
X87588187Y-135616321D01*
X87855391Y-135727000D01*
X87901614Y-135727000D01*
X88101208Y-135926594D01*
X86306667Y-135926594D01*
X86179078Y-135951973D01*
X86070913Y-136024246D01*
X85998640Y-136132411D01*
X85973261Y-136260000D01*
X85973261Y-139573000D01*
X85716739Y-139573000D01*
X85716739Y-136260000D01*
X85691360Y-136132411D01*
X85619087Y-136024246D01*
X85510922Y-135951973D01*
X85383333Y-135926594D01*
X83536667Y-135926594D01*
X83409078Y-135951973D01*
X83300913Y-136024246D01*
X83228640Y-136132411D01*
X83203261Y-136260000D01*
X83203261Y-139573000D01*
X82946739Y-139573000D01*
X82946739Y-136260000D01*
X82921360Y-136132411D01*
X82849087Y-136024246D01*
X82740922Y-135951973D01*
X82613333Y-135926594D01*
X80766667Y-135926594D01*
X80639078Y-135951973D01*
X80530913Y-136024246D01*
X80458640Y-136132411D01*
X80433261Y-136260000D01*
X80433261Y-139573000D01*
X80176739Y-139573000D01*
X80176739Y-136260000D01*
X80151360Y-136132411D01*
X80079087Y-136024246D01*
X79970922Y-135951973D01*
X79843333Y-135926594D01*
X77996667Y-135926594D01*
X77903200Y-135945186D01*
X77903200Y-135803045D01*
X77911099Y-135763334D01*
X77879806Y-135606013D01*
X77837973Y-135543406D01*
X77790691Y-135472643D01*
X77757025Y-135450148D01*
X77549853Y-135242977D01*
X77527357Y-135209309D01*
X77393987Y-135120194D01*
X77276377Y-135096800D01*
X77236666Y-135088901D01*
X77196955Y-135096800D01*
X76167011Y-135096800D01*
X75639866Y-134569656D01*
X75639866Y-133539705D01*
X75647764Y-133499999D01*
X75639866Y-133460293D01*
X75639866Y-133460289D01*
X75619001Y-133355391D01*
X77273000Y-133355391D01*
X77273000Y-133644609D01*
X77383679Y-133911813D01*
X77588187Y-134116321D01*
X77855391Y-134227000D01*
X78116594Y-134227000D01*
X78116594Y-134745000D01*
X78141973Y-134872589D01*
X78214246Y-134980754D01*
X78322411Y-135053027D01*
X78450000Y-135078406D01*
X79947344Y-135078406D01*
X79865000Y-135160750D01*
X79865000Y-135336309D01*
X79961673Y-135569698D01*
X80140301Y-135748327D01*
X80373690Y-135845000D01*
X80714250Y-135845000D01*
X80873000Y-135686250D01*
X80873000Y-135002000D01*
X80853000Y-135002000D01*
X80853000Y-134748000D01*
X80873000Y-134748000D01*
X80873000Y-134728000D01*
X81127000Y-134728000D01*
X81127000Y-134748000D01*
X81147000Y-134748000D01*
X81147000Y-135002000D01*
X81127000Y-135002000D01*
X81127000Y-135686250D01*
X81285750Y-135845000D01*
X81626310Y-135845000D01*
X81859699Y-135748327D01*
X82038327Y-135569698D01*
X82135000Y-135336309D01*
X82135000Y-135285000D01*
X83714250Y-135285000D01*
X83873000Y-135126250D01*
X83873000Y-133777000D01*
X83853000Y-133777000D01*
X83853000Y-133523000D01*
X83873000Y-133523000D01*
X83873000Y-132173750D01*
X83714250Y-132015000D01*
X81973690Y-132015000D01*
X81740301Y-132111673D01*
X81561673Y-132290302D01*
X81492793Y-132456594D01*
X80500000Y-132456594D01*
X80372411Y-132481973D01*
X80264246Y-132554246D01*
X80196603Y-132655482D01*
X80185754Y-132639246D01*
X80077589Y-132566973D01*
X79950000Y-132541594D01*
X78450000Y-132541594D01*
X78322411Y-132566973D01*
X78214246Y-132639246D01*
X78141973Y-132747411D01*
X78136883Y-132773000D01*
X77855391Y-132773000D01*
X77588187Y-132883679D01*
X77383679Y-133088187D01*
X77273000Y-133355391D01*
X75619001Y-133355391D01*
X75616472Y-133342679D01*
X75527357Y-133209309D01*
X75493691Y-133186814D01*
X75224853Y-132917977D01*
X75202357Y-132884309D01*
X75068987Y-132795194D01*
X74951377Y-132771800D01*
X74911666Y-132763901D01*
X74871955Y-132771800D01*
X74862878Y-132771800D01*
X74858027Y-132747411D01*
X74785754Y-132639246D01*
X74677589Y-132566973D01*
X74550000Y-132541594D01*
X73318617Y-132541594D01*
X73321805Y-132538406D01*
X74550000Y-132538406D01*
X74677589Y-132513027D01*
X74785754Y-132440754D01*
X74858027Y-132332589D01*
X74883406Y-132205000D01*
X74883406Y-131605000D01*
X78116594Y-131605000D01*
X78116594Y-132205000D01*
X78141973Y-132332589D01*
X78214246Y-132440754D01*
X78322411Y-132513027D01*
X78450000Y-132538406D01*
X79950000Y-132538406D01*
X80077589Y-132513027D01*
X80185754Y-132440754D01*
X80258027Y-132332589D01*
X80283406Y-132205000D01*
X80283406Y-131605000D01*
X80258027Y-131477411D01*
X80185754Y-131369246D01*
X80077589Y-131296973D01*
X79950000Y-131271594D01*
X78450000Y-131271594D01*
X78322411Y-131296973D01*
X78214246Y-131369246D01*
X78141973Y-131477411D01*
X78116594Y-131605000D01*
X74883406Y-131605000D01*
X74858027Y-131477411D01*
X74785754Y-131369246D01*
X74677589Y-131296973D01*
X74550000Y-131271594D01*
X73338617Y-131271594D01*
X73341805Y-131268406D01*
X74550000Y-131268406D01*
X74677589Y-131243027D01*
X74785754Y-131170754D01*
X74858027Y-131062589D01*
X74883406Y-130935000D01*
X74883406Y-130335000D01*
X74858027Y-130207411D01*
X74785754Y-130099246D01*
X74677589Y-130026973D01*
X74550000Y-130001594D01*
X73283617Y-130001594D01*
X73286805Y-129998406D01*
X74550000Y-129998406D01*
X74677589Y-129973027D01*
X74785754Y-129900754D01*
X74858027Y-129792589D01*
X74883406Y-129665000D01*
X74883406Y-129355391D01*
X77273000Y-129355391D01*
X77273000Y-129644609D01*
X77383679Y-129911813D01*
X77471866Y-130000000D01*
X77383679Y-130088187D01*
X77273000Y-130355391D01*
X77273000Y-130644609D01*
X77383679Y-130911813D01*
X77588187Y-131116321D01*
X77855391Y-131227000D01*
X78144609Y-131227000D01*
X78239562Y-131187669D01*
X78322411Y-131243027D01*
X78450000Y-131268406D01*
X79950000Y-131268406D01*
X80077589Y-131243027D01*
X80185754Y-131170754D01*
X80258027Y-131062589D01*
X80283406Y-130935000D01*
X80283406Y-130335000D01*
X80258027Y-130207411D01*
X80185754Y-130099246D01*
X80077589Y-130026973D01*
X79950000Y-130001594D01*
X78529728Y-130001594D01*
X78528134Y-130000000D01*
X78529728Y-129998406D01*
X79950000Y-129998406D01*
X80077589Y-129973027D01*
X80185754Y-129900754D01*
X80258027Y-129792589D01*
X80283406Y-129665000D01*
X80283406Y-129065000D01*
X80258027Y-128937411D01*
X80185754Y-128829246D01*
X80077589Y-128756973D01*
X79950000Y-128731594D01*
X78450000Y-128731594D01*
X78322411Y-128756973D01*
X78239562Y-128812331D01*
X78144609Y-128773000D01*
X77855391Y-128773000D01*
X77588187Y-128883679D01*
X77383679Y-129088187D01*
X77273000Y-129355391D01*
X74883406Y-129355391D01*
X74883406Y-129065000D01*
X74858027Y-128937411D01*
X74785754Y-128829246D01*
X74677589Y-128756973D01*
X74550000Y-128731594D01*
X73050000Y-128731594D01*
X72922411Y-128756973D01*
X72833406Y-128816444D01*
X72833406Y-128643556D01*
X72922411Y-128703027D01*
X73050000Y-128728406D01*
X74550000Y-128728406D01*
X74677589Y-128703027D01*
X74785754Y-128630754D01*
X74858027Y-128522589D01*
X74883406Y-128395000D01*
X74883406Y-128186804D01*
X75257026Y-127813185D01*
X75290691Y-127790691D01*
X75379806Y-127657321D01*
X75384097Y-127635750D01*
X75411099Y-127500001D01*
X75403200Y-127460290D01*
X75403200Y-126855391D01*
X77273000Y-126855391D01*
X77273000Y-127144609D01*
X77383679Y-127411813D01*
X77588187Y-127616321D01*
X77855391Y-127727000D01*
X78130120Y-127727000D01*
X78116594Y-127795000D01*
X78116594Y-128395000D01*
X78141973Y-128522589D01*
X78214246Y-128630754D01*
X78322411Y-128703027D01*
X78450000Y-128728406D01*
X79950000Y-128728406D01*
X80077589Y-128703027D01*
X80185754Y-128630754D01*
X80258027Y-128522589D01*
X80283406Y-128395000D01*
X80283406Y-127795000D01*
X80258027Y-127667411D01*
X80185754Y-127559246D01*
X80077589Y-127486973D01*
X79950000Y-127461594D01*
X78566540Y-127461594D01*
X78569728Y-127458406D01*
X79950000Y-127458406D01*
X80077589Y-127433027D01*
X80185754Y-127360754D01*
X80258027Y-127252589D01*
X80283406Y-127125000D01*
X80283406Y-126525000D01*
X80261210Y-126413412D01*
X80309698Y-126393327D01*
X80488327Y-126214699D01*
X80546000Y-126075464D01*
X80546000Y-126605291D01*
X80537107Y-126650000D01*
X80546000Y-126694709D01*
X80546000Y-126694712D01*
X80572342Y-126827141D01*
X80616594Y-126893369D01*
X80616594Y-128350000D01*
X80641973Y-128477589D01*
X80714246Y-128585754D01*
X80822411Y-128658027D01*
X80950000Y-128683406D01*
X82450000Y-128683406D01*
X82577589Y-128658027D01*
X82665844Y-128599057D01*
X82711673Y-128709698D01*
X82890301Y-128888327D01*
X83123690Y-128985000D01*
X83714250Y-128985000D01*
X83873000Y-128826250D01*
X83873000Y-127477000D01*
X83853000Y-127477000D01*
X83853000Y-127223000D01*
X83873000Y-127223000D01*
X83873000Y-125873750D01*
X83714250Y-125715000D01*
X83123690Y-125715000D01*
X82890301Y-125811673D01*
X82711673Y-125990302D01*
X82665844Y-126100943D01*
X82577589Y-126041973D01*
X82450000Y-126016594D01*
X81454000Y-126016594D01*
X81454000Y-124398051D01*
X81456594Y-124395457D01*
X81456594Y-125000000D01*
X81481973Y-125127589D01*
X81554246Y-125235754D01*
X81662411Y-125308027D01*
X81790000Y-125333406D01*
X82460000Y-125333406D01*
X82587589Y-125308027D01*
X82695754Y-125235754D01*
X82732251Y-125181131D01*
X82842989Y-125227000D01*
X83132207Y-125227000D01*
X83262372Y-125173084D01*
X83304246Y-125235754D01*
X83412411Y-125308027D01*
X83540000Y-125333406D01*
X84210000Y-125333406D01*
X84337589Y-125308027D01*
X84445754Y-125235754D01*
X84500000Y-125154569D01*
X84554246Y-125235754D01*
X84662411Y-125308027D01*
X84790000Y-125333406D01*
X85460000Y-125333406D01*
X85587589Y-125308027D01*
X85695754Y-125235754D01*
X85768027Y-125127589D01*
X85793406Y-125000000D01*
X85793406Y-124785750D01*
X85905000Y-124785750D01*
X85905000Y-125126310D01*
X86001673Y-125359699D01*
X86180302Y-125538327D01*
X86413691Y-125635000D01*
X86589250Y-125635000D01*
X86748000Y-125476250D01*
X86748000Y-124627000D01*
X87002000Y-124627000D01*
X87002000Y-125476250D01*
X87160750Y-125635000D01*
X87336309Y-125635000D01*
X87569698Y-125538327D01*
X87748327Y-125359699D01*
X87845000Y-125126310D01*
X87845000Y-124785750D01*
X87686250Y-124627000D01*
X87002000Y-124627000D01*
X86748000Y-124627000D01*
X86063750Y-124627000D01*
X85905000Y-124785750D01*
X85793406Y-124785750D01*
X85793406Y-124000000D01*
X85768027Y-123872411D01*
X85695754Y-123764246D01*
X85587589Y-123691973D01*
X85460000Y-123666594D01*
X84790000Y-123666594D01*
X84662411Y-123691973D01*
X84554246Y-123764246D01*
X84500000Y-123845431D01*
X84445754Y-123764246D01*
X84337589Y-123691973D01*
X84294520Y-123683406D01*
X84450000Y-123683406D01*
X84577589Y-123658027D01*
X84685754Y-123585754D01*
X84758027Y-123477589D01*
X84783406Y-123350000D01*
X84783406Y-122550000D01*
X84758027Y-122422411D01*
X84685754Y-122314246D01*
X84577589Y-122241973D01*
X84450000Y-122216594D01*
X83550000Y-122216594D01*
X83422411Y-122241973D01*
X83314246Y-122314246D01*
X83278341Y-122367982D01*
X83235754Y-122304245D01*
X83127589Y-122231972D01*
X83000000Y-122206593D01*
X82000000Y-122206593D01*
X81872411Y-122231972D01*
X81764246Y-122304245D01*
X81691973Y-122412410D01*
X81666594Y-122539999D01*
X81666594Y-122901352D01*
X80710589Y-123857358D01*
X80672686Y-123882684D01*
X80647360Y-123920587D01*
X80647357Y-123920590D01*
X80572342Y-124032858D01*
X80537107Y-124209999D01*
X80546001Y-124254713D01*
X80546001Y-125034537D01*
X80488327Y-124895301D01*
X80309698Y-124716673D01*
X80076309Y-124620000D01*
X79485750Y-124620000D01*
X79327000Y-124778750D01*
X79327000Y-125428000D01*
X79347000Y-125428000D01*
X79347000Y-125682000D01*
X79327000Y-125682000D01*
X79327000Y-125702000D01*
X79073000Y-125702000D01*
X79073000Y-125682000D01*
X77973750Y-125682000D01*
X77815000Y-125840750D01*
X77815000Y-125981310D01*
X77911673Y-126214699D01*
X77969974Y-126273000D01*
X77855391Y-126273000D01*
X77588187Y-126383679D01*
X77383679Y-126588187D01*
X77273000Y-126855391D01*
X75403200Y-126855391D01*
X75403200Y-126539710D01*
X75411099Y-126499999D01*
X75379806Y-126342679D01*
X75340981Y-126284574D01*
X75290691Y-126209309D01*
X75257025Y-126186815D01*
X74896788Y-125826578D01*
X74883406Y-125806550D01*
X74883406Y-125255000D01*
X74858282Y-125128690D01*
X77815000Y-125128690D01*
X77815000Y-125269250D01*
X77973750Y-125428000D01*
X79073000Y-125428000D01*
X79073000Y-124778750D01*
X78914250Y-124620000D01*
X78323691Y-124620000D01*
X78090302Y-124716673D01*
X77911673Y-124895301D01*
X77815000Y-125128690D01*
X74858282Y-125128690D01*
X74858027Y-125127411D01*
X74785754Y-125019246D01*
X74677589Y-124946973D01*
X74550000Y-124921594D01*
X73286805Y-124921594D01*
X72832046Y-124466836D01*
X72833406Y-124460000D01*
X72833406Y-123790000D01*
X72808027Y-123662411D01*
X72735754Y-123554246D01*
X72627589Y-123481973D01*
X72500000Y-123456594D01*
X71500000Y-123456594D01*
X71372411Y-123481973D01*
X71264246Y-123554246D01*
X71191973Y-123662411D01*
X71166594Y-123790000D01*
X71166594Y-124460000D01*
X71191973Y-124587589D01*
X71264246Y-124695754D01*
X71372411Y-124768027D01*
X71500000Y-124793406D01*
X72018196Y-124793406D01*
X72431383Y-125206594D01*
X71500000Y-125206594D01*
X71372411Y-125231973D01*
X71264246Y-125304246D01*
X71191973Y-125412411D01*
X71166594Y-125540000D01*
X71166594Y-126210000D01*
X71191973Y-126337589D01*
X71264246Y-126445754D01*
X71345431Y-126500000D01*
X71264246Y-126554246D01*
X71191973Y-126662411D01*
X71166594Y-126790000D01*
X71166594Y-127460000D01*
X71191973Y-127587589D01*
X71264246Y-127695754D01*
X71326916Y-127737628D01*
X71273000Y-127867793D01*
X71273000Y-128157011D01*
X71318869Y-128267749D01*
X71264246Y-128304246D01*
X71191973Y-128412411D01*
X71166594Y-128540000D01*
X71166594Y-129210000D01*
X71191973Y-129337589D01*
X71264246Y-129445754D01*
X71345431Y-129500000D01*
X71264246Y-129554246D01*
X71191973Y-129662411D01*
X71166594Y-129790000D01*
X71166594Y-130460000D01*
X71191973Y-130587589D01*
X71264246Y-130695754D01*
X71372411Y-130768027D01*
X71500000Y-130793406D01*
X72500000Y-130793406D01*
X72627589Y-130768027D01*
X72716594Y-130708556D01*
X72716594Y-130753195D01*
X72263196Y-131206594D01*
X71500000Y-131206594D01*
X71372411Y-131231973D01*
X71264246Y-131304246D01*
X71191973Y-131412411D01*
X71166594Y-131540000D01*
X71166594Y-132210000D01*
X71191973Y-132337589D01*
X71264246Y-132445754D01*
X71345431Y-132500000D01*
X71264246Y-132554246D01*
X71191973Y-132662411D01*
X71166594Y-132790000D01*
X71166594Y-133460000D01*
X71191973Y-133587589D01*
X71264246Y-133695754D01*
X71326916Y-133737628D01*
X71273000Y-133867793D01*
X71273000Y-134157011D01*
X71318869Y-134267749D01*
X71264246Y-134304246D01*
X71191973Y-134412411D01*
X71166594Y-134540000D01*
X71166594Y-135210000D01*
X71191973Y-135337589D01*
X71264246Y-135445754D01*
X71372411Y-135518027D01*
X71500000Y-135543406D01*
X72500000Y-135543406D01*
X72627589Y-135518027D01*
X72735754Y-135445754D01*
X72808027Y-135337589D01*
X72833406Y-135210000D01*
X72833406Y-134993556D01*
X72922411Y-135053027D01*
X73050000Y-135078406D01*
X73436021Y-135078406D01*
X73467989Y-135126250D01*
X73509310Y-135188091D01*
X73542976Y-135210586D01*
X74258984Y-135926594D01*
X72456667Y-135926594D01*
X72329078Y-135951973D01*
X72220913Y-136024246D01*
X72148640Y-136132411D01*
X72123261Y-136260000D01*
X72123261Y-137546000D01*
X71688053Y-137546000D01*
X71454000Y-137311948D01*
X71454000Y-137074134D01*
X71616321Y-136911813D01*
X71727000Y-136644609D01*
X71727000Y-136355391D01*
X71616321Y-136088187D01*
X71411813Y-135883679D01*
X71144609Y-135773000D01*
X70855391Y-135773000D01*
X70588187Y-135883679D01*
X70383679Y-136088187D01*
X70273000Y-136355391D01*
X70273000Y-136644609D01*
X70383679Y-136911813D01*
X70546000Y-137074134D01*
X70546000Y-137455291D01*
X70537107Y-137500000D01*
X70546000Y-137544709D01*
X70546000Y-137544712D01*
X70572342Y-137677141D01*
X70672685Y-137827315D01*
X70710591Y-137852643D01*
X71147358Y-138289411D01*
X71172685Y-138327315D01*
X71210588Y-138352641D01*
X71210590Y-138352643D01*
X71286254Y-138403200D01*
X71322858Y-138427658D01*
X71455287Y-138454000D01*
X71455291Y-138454000D01*
X71500000Y-138462893D01*
X71544709Y-138454000D01*
X72123261Y-138454000D01*
X72123261Y-139573000D01*
X69902000Y-139573000D01*
X69902000Y-124224635D01*
X71892032Y-123000000D01*
X73456594Y-123000000D01*
X73456594Y-124000000D01*
X73481973Y-124127589D01*
X73554246Y-124235754D01*
X73662411Y-124308027D01*
X73790000Y-124333406D01*
X74460000Y-124333406D01*
X74587589Y-124308027D01*
X74695754Y-124235754D01*
X74768027Y-124127589D01*
X74793406Y-124000000D01*
X74793406Y-123785750D01*
X74905000Y-123785750D01*
X74905000Y-124126310D01*
X75001673Y-124359699D01*
X75180302Y-124538327D01*
X75413691Y-124635000D01*
X75589250Y-124635000D01*
X75748000Y-124476250D01*
X75748000Y-123627000D01*
X76002000Y-123627000D01*
X76002000Y-124476250D01*
X76160750Y-124635000D01*
X76336309Y-124635000D01*
X76500000Y-124567197D01*
X76663691Y-124635000D01*
X76839250Y-124635000D01*
X76998000Y-124476250D01*
X76998000Y-123627000D01*
X77252000Y-123627000D01*
X77252000Y-124476250D01*
X77410750Y-124635000D01*
X77586309Y-124635000D01*
X77819698Y-124538327D01*
X77998327Y-124359699D01*
X78095000Y-124126310D01*
X78095000Y-123785750D01*
X77936250Y-123627000D01*
X77252000Y-123627000D01*
X76998000Y-123627000D01*
X76002000Y-123627000D01*
X75748000Y-123627000D01*
X75063750Y-123627000D01*
X74905000Y-123785750D01*
X74793406Y-123785750D01*
X74793406Y-123165391D01*
X74905000Y-123119167D01*
X74905000Y-123214250D01*
X75063750Y-123373000D01*
X75748000Y-123373000D01*
X75748000Y-122523750D01*
X76002000Y-122523750D01*
X76002000Y-123373000D01*
X76998000Y-123373000D01*
X76998000Y-122523750D01*
X77252000Y-122523750D01*
X77252000Y-123373000D01*
X77936250Y-123373000D01*
X78095000Y-123214250D01*
X78095000Y-123119143D01*
X78206594Y-123165367D01*
X78206594Y-124000000D01*
X78231973Y-124127589D01*
X78304246Y-124235754D01*
X78412411Y-124308027D01*
X78540000Y-124333406D01*
X79210000Y-124333406D01*
X79337589Y-124308027D01*
X79445754Y-124235754D01*
X79518027Y-124127589D01*
X79543406Y-124000000D01*
X79543406Y-123000000D01*
X79518027Y-122872411D01*
X79445754Y-122764246D01*
X79337589Y-122691973D01*
X79326717Y-122689810D01*
X79302658Y-122568858D01*
X79227000Y-122455628D01*
X79227000Y-122355391D01*
X79116321Y-122088187D01*
X78911813Y-121883679D01*
X78644609Y-121773000D01*
X78355391Y-121773000D01*
X78088187Y-121883679D01*
X77883679Y-122088187D01*
X77773000Y-122355391D01*
X77773000Y-122442330D01*
X77586309Y-122365000D01*
X77410750Y-122365000D01*
X77252000Y-122523750D01*
X76998000Y-122523750D01*
X76839250Y-122365000D01*
X76663691Y-122365000D01*
X76500000Y-122432803D01*
X76336309Y-122365000D01*
X76160750Y-122365000D01*
X76002000Y-122523750D01*
X75748000Y-122523750D01*
X75589250Y-122365000D01*
X75413691Y-122365000D01*
X75227000Y-122442330D01*
X75227000Y-122355415D01*
X75116321Y-122088211D01*
X74911813Y-121883703D01*
X74644609Y-121773024D01*
X74355391Y-121773024D01*
X74088187Y-121883703D01*
X73883679Y-122088211D01*
X73773000Y-122355415D01*
X73773000Y-122455630D01*
X73772360Y-122456588D01*
X73772357Y-122456591D01*
X73697342Y-122568859D01*
X73673284Y-122689810D01*
X73662411Y-122691973D01*
X73554246Y-122764246D01*
X73481973Y-122872411D01*
X73456594Y-123000000D01*
X71892032Y-123000000D01*
X76113783Y-120402000D01*
X83332574Y-120402000D01*
X83314246Y-120414246D01*
X83314246Y-120414246D01*
G37*
X83314246Y-120414246D02*
X83241973Y-120522411D01*
X83235654Y-120554178D01*
X83127589Y-120481972D01*
X83000000Y-120456593D01*
X82000000Y-120456593D01*
X81872411Y-120481972D01*
X81764246Y-120554245D01*
X81691973Y-120662410D01*
X81666594Y-120789999D01*
X81666594Y-121459999D01*
X81691973Y-121587588D01*
X81764246Y-121695753D01*
X81872411Y-121768026D01*
X82000000Y-121793405D01*
X83000000Y-121793405D01*
X83127589Y-121768026D01*
X83235754Y-121695753D01*
X83278341Y-121632017D01*
X83314246Y-121685754D01*
X83422411Y-121758027D01*
X83550000Y-121783406D01*
X84450000Y-121783406D01*
X84577589Y-121758027D01*
X84685754Y-121685754D01*
X84700941Y-121663025D01*
X84855391Y-121727000D01*
X85144609Y-121727000D01*
X85216594Y-121697183D01*
X85216594Y-122400000D01*
X85241973Y-122527589D01*
X85314246Y-122635754D01*
X85422411Y-122708027D01*
X85550000Y-122733406D01*
X86450000Y-122733406D01*
X86577589Y-122708027D01*
X86626594Y-122675283D01*
X86626594Y-123402344D01*
X86589250Y-123365000D01*
X86413691Y-123365000D01*
X86180302Y-123461673D01*
X86001673Y-123640301D01*
X85905000Y-123873690D01*
X85905000Y-124214250D01*
X86063750Y-124373000D01*
X86748000Y-124373000D01*
X86748000Y-124353000D01*
X87002000Y-124353000D01*
X87002000Y-124373000D01*
X87686250Y-124373000D01*
X87845000Y-124214250D01*
X87845000Y-123908406D01*
X87960000Y-123908406D01*
X88087589Y-123883027D01*
X88195754Y-123810754D01*
X88268027Y-123702589D01*
X88293406Y-123575000D01*
X88293406Y-122320384D01*
X88331277Y-122411813D01*
X88535785Y-122616321D01*
X88802989Y-122727000D01*
X89092207Y-122727000D01*
X89166594Y-122696188D01*
X89166594Y-123575000D01*
X89191973Y-123702589D01*
X89264246Y-123810754D01*
X89372411Y-123883027D01*
X89500000Y-123908406D01*
X90500000Y-123908406D01*
X90627589Y-123883027D01*
X90735754Y-123810754D01*
X90808027Y-123702589D01*
X90833406Y-123575000D01*
X90833406Y-120425000D01*
X90828831Y-120402000D01*
X91711169Y-120402000D01*
X91706594Y-120425000D01*
X91706594Y-123575000D01*
X91731973Y-123702589D01*
X91804246Y-123810754D01*
X91912411Y-123883027D01*
X92040000Y-123908406D01*
X93040000Y-123908406D01*
X93167589Y-123883027D01*
X93275754Y-123810754D01*
X93348027Y-123702589D01*
X93351138Y-123686949D01*
X93373000Y-123696004D01*
X93373000Y-126500000D01*
X93382667Y-126548601D01*
X93410197Y-126589803D01*
X93451399Y-126617333D01*
X93481108Y-126623242D01*
X93481973Y-126627589D01*
X93554246Y-126735754D01*
X93662411Y-126808027D01*
X93790000Y-126833406D01*
X94460000Y-126833406D01*
X94587589Y-126808027D01*
X94695754Y-126735754D01*
X94732251Y-126681131D01*
X94842989Y-126727000D01*
X94934989Y-126727000D01*
X94879246Y-126764246D01*
X94806973Y-126872411D01*
X94781594Y-127000000D01*
X94781594Y-127136020D01*
X94671909Y-127209309D01*
X94649414Y-127242975D01*
X93992975Y-127899414D01*
X93959310Y-127921909D01*
X93936815Y-127955575D01*
X93870194Y-128055280D01*
X93838901Y-128212600D01*
X93846801Y-128252316D01*
X93846801Y-128739449D01*
X93812500Y-128773750D01*
X93812500Y-128789474D01*
X93734699Y-128711673D01*
X93548153Y-128634403D01*
X93528750Y-128615000D01*
X93471250Y-128615000D01*
X93451847Y-128634403D01*
X93265301Y-128711673D01*
X93187500Y-128789474D01*
X93187500Y-128773750D01*
X93028750Y-128615000D01*
X92998690Y-128615000D01*
X92765301Y-128711673D01*
X92630994Y-128845981D01*
X92635000Y-128836309D01*
X92635000Y-128660750D01*
X92476250Y-128502000D01*
X91627000Y-128502000D01*
X91627000Y-128522000D01*
X91373000Y-128522000D01*
X91373000Y-128502000D01*
X90127000Y-128502000D01*
X90127000Y-128522000D01*
X89873000Y-128522000D01*
X89873000Y-128502000D01*
X89853000Y-128502000D01*
X89853000Y-128248000D01*
X89873000Y-128248000D01*
X89873000Y-127563750D01*
X89714250Y-127405000D01*
X89453025Y-127405000D01*
X89538327Y-127319698D01*
X89549218Y-127293406D01*
X90500000Y-127293406D01*
X90627589Y-127268027D01*
X90735754Y-127195754D01*
X90750000Y-127174433D01*
X90764246Y-127195754D01*
X90818869Y-127232251D01*
X90773000Y-127342989D01*
X90773000Y-127446707D01*
X90750000Y-127456234D01*
X90626310Y-127405000D01*
X90285750Y-127405000D01*
X90127000Y-127563750D01*
X90127000Y-128248000D01*
X91373000Y-128248000D01*
X91373000Y-128228000D01*
X91627000Y-128228000D01*
X91627000Y-128248000D01*
X92476250Y-128248000D01*
X92635000Y-128089250D01*
X92635000Y-127913691D01*
X92538327Y-127680302D01*
X92359699Y-127501673D01*
X92227000Y-127446707D01*
X92227000Y-127342989D01*
X92181131Y-127232251D01*
X92235754Y-127195754D01*
X92308027Y-127087589D01*
X92333406Y-126960000D01*
X92333406Y-126290000D01*
X92308027Y-126162411D01*
X92235754Y-126054246D01*
X92127589Y-125981973D01*
X92000000Y-125956594D01*
X91000000Y-125956594D01*
X90872411Y-125981973D01*
X90764246Y-126054246D01*
X90750000Y-126075567D01*
X90735754Y-126054246D01*
X90627589Y-125981973D01*
X90500000Y-125956594D01*
X89549218Y-125956594D01*
X89538327Y-125930302D01*
X89359699Y-125751673D01*
X89126310Y-125655000D01*
X88785750Y-125655000D01*
X88627000Y-125813750D01*
X88627000Y-126498000D01*
X88647000Y-126498000D01*
X88647000Y-126752000D01*
X88627000Y-126752000D01*
X88627000Y-127436250D01*
X88785750Y-127595000D01*
X89046975Y-127595000D01*
X88961673Y-127680302D01*
X88950782Y-127706594D01*
X88000000Y-127706594D01*
X87872411Y-127731973D01*
X87764246Y-127804246D01*
X87691973Y-127912411D01*
X87666594Y-128040000D01*
X87666594Y-128282106D01*
X87644609Y-128273000D01*
X87415053Y-128273000D01*
X87383406Y-128241353D01*
X87383406Y-127130745D01*
X87461673Y-127319698D01*
X87640301Y-127498327D01*
X87873690Y-127595000D01*
X88214250Y-127595000D01*
X88373000Y-127436250D01*
X88373000Y-126752000D01*
X88353000Y-126752000D01*
X88353000Y-126498000D01*
X88373000Y-126498000D01*
X88373000Y-125813750D01*
X88214250Y-125655000D01*
X87873690Y-125655000D01*
X87640301Y-125751673D01*
X87461673Y-125930302D01*
X87365000Y-126163691D01*
X87365000Y-126257467D01*
X87358027Y-126222411D01*
X87285754Y-126114246D01*
X87177589Y-126041973D01*
X87050000Y-126016594D01*
X85550000Y-126016594D01*
X85422411Y-126041973D01*
X85334156Y-126100943D01*
X85288327Y-125990302D01*
X85109699Y-125811673D01*
X84876310Y-125715000D01*
X84285750Y-125715000D01*
X84127000Y-125873750D01*
X84127000Y-127223000D01*
X84147000Y-127223000D01*
X84147000Y-127477000D01*
X84127000Y-127477000D01*
X84127000Y-128826250D01*
X84285750Y-128985000D01*
X84773000Y-128985000D01*
X84773000Y-129144609D01*
X84883679Y-129411813D01*
X85088187Y-129616321D01*
X85355391Y-129727000D01*
X85644609Y-129727000D01*
X85911813Y-129616321D01*
X86000000Y-129528134D01*
X86088187Y-129616321D01*
X86355391Y-129727000D01*
X86644609Y-129727000D01*
X86911813Y-129616321D01*
X87000000Y-129528134D01*
X87088187Y-129616321D01*
X87355391Y-129727000D01*
X87644609Y-129727000D01*
X87666594Y-129717894D01*
X87666594Y-129960000D01*
X87691973Y-130087589D01*
X87764246Y-130195754D01*
X87872411Y-130268027D01*
X88000000Y-130293406D01*
X89000000Y-130293406D01*
X89127589Y-130268027D01*
X89235754Y-130195754D01*
X89308027Y-130087589D01*
X89333406Y-129960000D01*
X89333406Y-129526805D01*
X89457011Y-129403200D01*
X90791594Y-129403200D01*
X90791594Y-129791594D01*
X90250000Y-129791594D01*
X90122411Y-129816973D01*
X90014246Y-129889246D01*
X89941973Y-129997411D01*
X89916594Y-130125000D01*
X89916594Y-130375000D01*
X89941458Y-130500000D01*
X89927263Y-130571363D01*
X89890302Y-130586673D01*
X89711673Y-130765301D01*
X89615000Y-130998690D01*
X89615000Y-131028750D01*
X89773750Y-131187500D01*
X90144898Y-131187500D01*
X90250000Y-131208406D01*
X90747000Y-131208406D01*
X90747000Y-131291594D01*
X90250000Y-131291594D01*
X90144898Y-131312500D01*
X89773750Y-131312500D01*
X89615000Y-131471250D01*
X89615000Y-131501310D01*
X89711673Y-131734699D01*
X89823775Y-131846800D01*
X89301872Y-131846800D01*
X89308027Y-131837589D01*
X89333406Y-131710000D01*
X89333406Y-131040000D01*
X89308027Y-130912411D01*
X89235754Y-130804246D01*
X89127589Y-130731973D01*
X89000000Y-130706594D01*
X88000000Y-130706594D01*
X87872411Y-130731973D01*
X87764246Y-130804246D01*
X87691973Y-130912411D01*
X87690265Y-130921000D01*
X87227000Y-130921000D01*
X87227000Y-130855391D01*
X87116321Y-130588187D01*
X86911813Y-130383679D01*
X86644609Y-130273000D01*
X86355391Y-130273000D01*
X86088187Y-130383679D01*
X85883679Y-130588187D01*
X85773000Y-130855391D01*
X85773000Y-131144609D01*
X85883679Y-131411813D01*
X85971880Y-131500014D01*
X85883679Y-131588215D01*
X85773000Y-131855419D01*
X85773000Y-132015000D01*
X84285750Y-132015000D01*
X84127000Y-132173750D01*
X84127000Y-133523000D01*
X84147000Y-133523000D01*
X84147000Y-133777000D01*
X84127000Y-133777000D01*
X84127000Y-135126250D01*
X84285750Y-135285000D01*
X86026310Y-135285000D01*
X86259699Y-135188327D01*
X86438327Y-135009698D01*
X86535000Y-134776309D01*
X86535000Y-134179413D01*
X86644609Y-134179413D01*
X86911813Y-134068734D01*
X87116321Y-133864226D01*
X87227000Y-133597022D01*
X87227000Y-133307804D01*
X87223432Y-133299191D01*
X87369424Y-133153200D01*
X88856750Y-133153200D01*
X88773000Y-133355391D01*
X88773000Y-133644609D01*
X88883679Y-133911813D01*
X89088187Y-134116321D01*
X89355391Y-134227000D01*
X89644609Y-134227000D01*
X89911813Y-134116321D01*
X89975447Y-134052687D01*
X90014246Y-134110754D01*
X90122411Y-134183027D01*
X90250000Y-134208406D01*
X90584156Y-134208406D01*
X90648750Y-134273000D01*
X91187500Y-134273000D01*
X91187500Y-134253000D01*
X91291594Y-134253000D01*
X91291594Y-134750000D01*
X91312500Y-134855102D01*
X91312500Y-135226250D01*
X91471250Y-135385000D01*
X91501310Y-135385000D01*
X91734699Y-135288327D01*
X91913327Y-135109698D01*
X91928637Y-135072737D01*
X92000000Y-135058542D01*
X92125000Y-135083406D01*
X92375000Y-135083406D01*
X92500000Y-135058542D01*
X92625000Y-135083406D01*
X92875000Y-135083406D01*
X93000000Y-135058542D01*
X93125000Y-135083406D01*
X93375000Y-135083406D01*
X93500000Y-135058542D01*
X93625000Y-135083406D01*
X93875000Y-135083406D01*
X94000000Y-135058542D01*
X94125000Y-135083406D01*
X94375000Y-135083406D01*
X94500000Y-135058542D01*
X94625000Y-135083406D01*
X94875000Y-135083406D01*
X95002589Y-135058027D01*
X95018957Y-135047091D01*
X95088187Y-135116321D01*
X95355391Y-135227000D01*
X95644609Y-135227000D01*
X95911813Y-135116321D01*
X96000000Y-135028134D01*
X96088187Y-135116321D01*
X96355391Y-135227000D01*
X96644609Y-135227000D01*
X96783327Y-135169541D01*
X96883679Y-135411813D01*
X97088187Y-135616321D01*
X97355391Y-135727000D01*
X97644609Y-135727000D01*
X97725265Y-135693591D01*
X97741973Y-135777589D01*
X97814246Y-135885754D01*
X97875368Y-135926594D01*
X97386667Y-135926594D01*
X97259078Y-135951973D01*
X97150913Y-136024246D01*
X97078640Y-136132411D01*
X97053261Y-136260000D01*
X97053261Y-139573000D01*
X96796739Y-139573000D01*
X96796739Y-136260000D01*
X96771360Y-136132411D01*
X96699087Y-136024246D01*
X96590922Y-135951973D01*
X96463333Y-135926594D01*
X94616667Y-135926594D01*
X94489078Y-135951973D01*
X94380913Y-136024246D01*
X94308640Y-136132411D01*
X94283261Y-136260000D01*
X94283261Y-139573000D01*
X94026739Y-139573000D01*
X94026739Y-136260000D01*
X94001360Y-136132411D01*
X93929087Y-136024246D01*
X93820922Y-135951973D01*
X93693333Y-135926594D01*
X91846667Y-135926594D01*
X91719078Y-135951973D01*
X91610913Y-136024246D01*
X91538640Y-136132411D01*
X91513261Y-136260000D01*
X91513261Y-139573000D01*
X91256739Y-139573000D01*
X91256739Y-136260000D01*
X91231360Y-136132411D01*
X91159087Y-136024246D01*
X91050922Y-135951973D01*
X90923333Y-135926594D01*
X89385313Y-135926594D01*
X88690777Y-135232059D01*
X88727000Y-135144609D01*
X88727000Y-134855391D01*
X88656733Y-134685750D01*
X90490000Y-134685750D01*
X90490000Y-134876309D01*
X90586673Y-135109698D01*
X90765301Y-135288327D01*
X90998690Y-135385000D01*
X91028750Y-135385000D01*
X91187500Y-135226250D01*
X91187500Y-134527000D01*
X90648750Y-134527000D01*
X90490000Y-134685750D01*
X88656733Y-134685750D01*
X88616321Y-134588187D01*
X88411813Y-134383679D01*
X88144609Y-134273000D01*
X87855391Y-134273000D01*
X87588187Y-134383679D01*
X87383679Y-134588187D01*
X87273000Y-134855391D01*
X87273000Y-135144609D01*
X87383679Y-135411813D01*
X87588187Y-135616321D01*
X87855391Y-135727000D01*
X87901614Y-135727000D01*
X88101208Y-135926594D01*
X86306667Y-135926594D01*
X86179078Y-135951973D01*
X86070913Y-136024246D01*
X85998640Y-136132411D01*
X85973261Y-136260000D01*
X85973261Y-139573000D01*
X85716739Y-139573000D01*
X85716739Y-136260000D01*
X85691360Y-136132411D01*
X85619087Y-136024246D01*
X85510922Y-135951973D01*
X85383333Y-135926594D01*
X83536667Y-135926594D01*
X83409078Y-135951973D01*
X83300913Y-136024246D01*
X83228640Y-136132411D01*
X83203261Y-136260000D01*
X83203261Y-139573000D01*
X82946739Y-139573000D01*
X82946739Y-136260000D01*
X82921360Y-136132411D01*
X82849087Y-136024246D01*
X82740922Y-135951973D01*
X82613333Y-135926594D01*
X80766667Y-135926594D01*
X80639078Y-135951973D01*
X80530913Y-136024246D01*
X80458640Y-136132411D01*
X80433261Y-136260000D01*
X80433261Y-139573000D01*
X80176739Y-139573000D01*
X80176739Y-136260000D01*
X80151360Y-136132411D01*
X80079087Y-136024246D01*
X79970922Y-135951973D01*
X79843333Y-135926594D01*
X77996667Y-135926594D01*
X77903200Y-135945186D01*
X77903200Y-135803045D01*
X77911099Y-135763334D01*
X77879806Y-135606013D01*
X77837973Y-135543406D01*
X77790691Y-135472643D01*
X77757025Y-135450148D01*
X77549853Y-135242977D01*
X77527357Y-135209309D01*
X77393987Y-135120194D01*
X77276377Y-135096800D01*
X77236666Y-135088901D01*
X77196955Y-135096800D01*
X76167011Y-135096800D01*
X75639866Y-134569656D01*
X75639866Y-133539705D01*
X75647764Y-133499999D01*
X75639866Y-133460293D01*
X75639866Y-133460289D01*
X75619001Y-133355391D01*
X77273000Y-133355391D01*
X77273000Y-133644609D01*
X77383679Y-133911813D01*
X77588187Y-134116321D01*
X77855391Y-134227000D01*
X78116594Y-134227000D01*
X78116594Y-134745000D01*
X78141973Y-134872589D01*
X78214246Y-134980754D01*
X78322411Y-135053027D01*
X78450000Y-135078406D01*
X79947344Y-135078406D01*
X79865000Y-135160750D01*
X79865000Y-135336309D01*
X79961673Y-135569698D01*
X80140301Y-135748327D01*
X80373690Y-135845000D01*
X80714250Y-135845000D01*
X80873000Y-135686250D01*
X80873000Y-135002000D01*
X80853000Y-135002000D01*
X80853000Y-134748000D01*
X80873000Y-134748000D01*
X80873000Y-134728000D01*
X81127000Y-134728000D01*
X81127000Y-134748000D01*
X81147000Y-134748000D01*
X81147000Y-135002000D01*
X81127000Y-135002000D01*
X81127000Y-135686250D01*
X81285750Y-135845000D01*
X81626310Y-135845000D01*
X81859699Y-135748327D01*
X82038327Y-135569698D01*
X82135000Y-135336309D01*
X82135000Y-135285000D01*
X83714250Y-135285000D01*
X83873000Y-135126250D01*
X83873000Y-133777000D01*
X83853000Y-133777000D01*
X83853000Y-133523000D01*
X83873000Y-133523000D01*
X83873000Y-132173750D01*
X83714250Y-132015000D01*
X81973690Y-132015000D01*
X81740301Y-132111673D01*
X81561673Y-132290302D01*
X81492793Y-132456594D01*
X80500000Y-132456594D01*
X80372411Y-132481973D01*
X80264246Y-132554246D01*
X80196603Y-132655482D01*
X80185754Y-132639246D01*
X80077589Y-132566973D01*
X79950000Y-132541594D01*
X78450000Y-132541594D01*
X78322411Y-132566973D01*
X78214246Y-132639246D01*
X78141973Y-132747411D01*
X78136883Y-132773000D01*
X77855391Y-132773000D01*
X77588187Y-132883679D01*
X77383679Y-133088187D01*
X77273000Y-133355391D01*
X75619001Y-133355391D01*
X75616472Y-133342679D01*
X75527357Y-133209309D01*
X75493691Y-133186814D01*
X75224853Y-132917977D01*
X75202357Y-132884309D01*
X75068987Y-132795194D01*
X74951377Y-132771800D01*
X74911666Y-132763901D01*
X74871955Y-132771800D01*
X74862878Y-132771800D01*
X74858027Y-132747411D01*
X74785754Y-132639246D01*
X74677589Y-132566973D01*
X74550000Y-132541594D01*
X73318617Y-132541594D01*
X73321805Y-132538406D01*
X74550000Y-132538406D01*
X74677589Y-132513027D01*
X74785754Y-132440754D01*
X74858027Y-132332589D01*
X74883406Y-132205000D01*
X74883406Y-131605000D01*
X78116594Y-131605000D01*
X78116594Y-132205000D01*
X78141973Y-132332589D01*
X78214246Y-132440754D01*
X78322411Y-132513027D01*
X78450000Y-132538406D01*
X79950000Y-132538406D01*
X80077589Y-132513027D01*
X80185754Y-132440754D01*
X80258027Y-132332589D01*
X80283406Y-132205000D01*
X80283406Y-131605000D01*
X80258027Y-131477411D01*
X80185754Y-131369246D01*
X80077589Y-131296973D01*
X79950000Y-131271594D01*
X78450000Y-131271594D01*
X78322411Y-131296973D01*
X78214246Y-131369246D01*
X78141973Y-131477411D01*
X78116594Y-131605000D01*
X74883406Y-131605000D01*
X74858027Y-131477411D01*
X74785754Y-131369246D01*
X74677589Y-131296973D01*
X74550000Y-131271594D01*
X73338617Y-131271594D01*
X73341805Y-131268406D01*
X74550000Y-131268406D01*
X74677589Y-131243027D01*
X74785754Y-131170754D01*
X74858027Y-131062589D01*
X74883406Y-130935000D01*
X74883406Y-130335000D01*
X74858027Y-130207411D01*
X74785754Y-130099246D01*
X74677589Y-130026973D01*
X74550000Y-130001594D01*
X73283617Y-130001594D01*
X73286805Y-129998406D01*
X74550000Y-129998406D01*
X74677589Y-129973027D01*
X74785754Y-129900754D01*
X74858027Y-129792589D01*
X74883406Y-129665000D01*
X74883406Y-129355391D01*
X77273000Y-129355391D01*
X77273000Y-129644609D01*
X77383679Y-129911813D01*
X77471866Y-130000000D01*
X77383679Y-130088187D01*
X77273000Y-130355391D01*
X77273000Y-130644609D01*
X77383679Y-130911813D01*
X77588187Y-131116321D01*
X77855391Y-131227000D01*
X78144609Y-131227000D01*
X78239562Y-131187669D01*
X78322411Y-131243027D01*
X78450000Y-131268406D01*
X79950000Y-131268406D01*
X80077589Y-131243027D01*
X80185754Y-131170754D01*
X80258027Y-131062589D01*
X80283406Y-130935000D01*
X80283406Y-130335000D01*
X80258027Y-130207411D01*
X80185754Y-130099246D01*
X80077589Y-130026973D01*
X79950000Y-130001594D01*
X78529728Y-130001594D01*
X78528134Y-130000000D01*
X78529728Y-129998406D01*
X79950000Y-129998406D01*
X80077589Y-129973027D01*
X80185754Y-129900754D01*
X80258027Y-129792589D01*
X80283406Y-129665000D01*
X80283406Y-129065000D01*
X80258027Y-128937411D01*
X80185754Y-128829246D01*
X80077589Y-128756973D01*
X79950000Y-128731594D01*
X78450000Y-128731594D01*
X78322411Y-128756973D01*
X78239562Y-128812331D01*
X78144609Y-128773000D01*
X77855391Y-128773000D01*
X77588187Y-128883679D01*
X77383679Y-129088187D01*
X77273000Y-129355391D01*
X74883406Y-129355391D01*
X74883406Y-129065000D01*
X74858027Y-128937411D01*
X74785754Y-128829246D01*
X74677589Y-128756973D01*
X74550000Y-128731594D01*
X73050000Y-128731594D01*
X72922411Y-128756973D01*
X72833406Y-128816444D01*
X72833406Y-128643556D01*
X72922411Y-128703027D01*
X73050000Y-128728406D01*
X74550000Y-128728406D01*
X74677589Y-128703027D01*
X74785754Y-128630754D01*
X74858027Y-128522589D01*
X74883406Y-128395000D01*
X74883406Y-128186804D01*
X75257026Y-127813185D01*
X75290691Y-127790691D01*
X75379806Y-127657321D01*
X75384097Y-127635750D01*
X75411099Y-127500001D01*
X75403200Y-127460290D01*
X75403200Y-126855391D01*
X77273000Y-126855391D01*
X77273000Y-127144609D01*
X77383679Y-127411813D01*
X77588187Y-127616321D01*
X77855391Y-127727000D01*
X78130120Y-127727000D01*
X78116594Y-127795000D01*
X78116594Y-128395000D01*
X78141973Y-128522589D01*
X78214246Y-128630754D01*
X78322411Y-128703027D01*
X78450000Y-128728406D01*
X79950000Y-128728406D01*
X80077589Y-128703027D01*
X80185754Y-128630754D01*
X80258027Y-128522589D01*
X80283406Y-128395000D01*
X80283406Y-127795000D01*
X80258027Y-127667411D01*
X80185754Y-127559246D01*
X80077589Y-127486973D01*
X79950000Y-127461594D01*
X78566540Y-127461594D01*
X78569728Y-127458406D01*
X79950000Y-127458406D01*
X80077589Y-127433027D01*
X80185754Y-127360754D01*
X80258027Y-127252589D01*
X80283406Y-127125000D01*
X80283406Y-126525000D01*
X80261210Y-126413412D01*
X80309698Y-126393327D01*
X80488327Y-126214699D01*
X80546000Y-126075464D01*
X80546000Y-126605291D01*
X80537107Y-126650000D01*
X80546000Y-126694709D01*
X80546000Y-126694712D01*
X80572342Y-126827141D01*
X80616594Y-126893369D01*
X80616594Y-128350000D01*
X80641973Y-128477589D01*
X80714246Y-128585754D01*
X80822411Y-128658027D01*
X80950000Y-128683406D01*
X82450000Y-128683406D01*
X82577589Y-128658027D01*
X82665844Y-128599057D01*
X82711673Y-128709698D01*
X82890301Y-128888327D01*
X83123690Y-128985000D01*
X83714250Y-128985000D01*
X83873000Y-128826250D01*
X83873000Y-127477000D01*
X83853000Y-127477000D01*
X83853000Y-127223000D01*
X83873000Y-127223000D01*
X83873000Y-125873750D01*
X83714250Y-125715000D01*
X83123690Y-125715000D01*
X82890301Y-125811673D01*
X82711673Y-125990302D01*
X82665844Y-126100943D01*
X82577589Y-126041973D01*
X82450000Y-126016594D01*
X81454000Y-126016594D01*
X81454000Y-124398051D01*
X81456594Y-124395457D01*
X81456594Y-125000000D01*
X81481973Y-125127589D01*
X81554246Y-125235754D01*
X81662411Y-125308027D01*
X81790000Y-125333406D01*
X82460000Y-125333406D01*
X82587589Y-125308027D01*
X82695754Y-125235754D01*
X82732251Y-125181131D01*
X82842989Y-125227000D01*
X83132207Y-125227000D01*
X83262372Y-125173084D01*
X83304246Y-125235754D01*
X83412411Y-125308027D01*
X83540000Y-125333406D01*
X84210000Y-125333406D01*
X84337589Y-125308027D01*
X84445754Y-125235754D01*
X84500000Y-125154569D01*
X84554246Y-125235754D01*
X84662411Y-125308027D01*
X84790000Y-125333406D01*
X85460000Y-125333406D01*
X85587589Y-125308027D01*
X85695754Y-125235754D01*
X85768027Y-125127589D01*
X85793406Y-125000000D01*
X85793406Y-124785750D01*
X85905000Y-124785750D01*
X85905000Y-125126310D01*
X86001673Y-125359699D01*
X86180302Y-125538327D01*
X86413691Y-125635000D01*
X86589250Y-125635000D01*
X86748000Y-125476250D01*
X86748000Y-124627000D01*
X87002000Y-124627000D01*
X87002000Y-125476250D01*
X87160750Y-125635000D01*
X87336309Y-125635000D01*
X87569698Y-125538327D01*
X87748327Y-125359699D01*
X87845000Y-125126310D01*
X87845000Y-124785750D01*
X87686250Y-124627000D01*
X87002000Y-124627000D01*
X86748000Y-124627000D01*
X86063750Y-124627000D01*
X85905000Y-124785750D01*
X85793406Y-124785750D01*
X85793406Y-124000000D01*
X85768027Y-123872411D01*
X85695754Y-123764246D01*
X85587589Y-123691973D01*
X85460000Y-123666594D01*
X84790000Y-123666594D01*
X84662411Y-123691973D01*
X84554246Y-123764246D01*
X84500000Y-123845431D01*
X84445754Y-123764246D01*
X84337589Y-123691973D01*
X84294520Y-123683406D01*
X84450000Y-123683406D01*
X84577589Y-123658027D01*
X84685754Y-123585754D01*
X84758027Y-123477589D01*
X84783406Y-123350000D01*
X84783406Y-122550000D01*
X84758027Y-122422411D01*
X84685754Y-122314246D01*
X84577589Y-122241973D01*
X84450000Y-122216594D01*
X83550000Y-122216594D01*
X83422411Y-122241973D01*
X83314246Y-122314246D01*
X83278341Y-122367982D01*
X83235754Y-122304245D01*
X83127589Y-122231972D01*
X83000000Y-122206593D01*
X82000000Y-122206593D01*
X81872411Y-122231972D01*
X81764246Y-122304245D01*
X81691973Y-122412410D01*
X81666594Y-122539999D01*
X81666594Y-122901352D01*
X80710589Y-123857358D01*
X80672686Y-123882684D01*
X80647360Y-123920587D01*
X80647357Y-123920590D01*
X80572342Y-124032858D01*
X80537107Y-124209999D01*
X80546001Y-124254713D01*
X80546001Y-125034537D01*
X80488327Y-124895301D01*
X80309698Y-124716673D01*
X80076309Y-124620000D01*
X79485750Y-124620000D01*
X79327000Y-124778750D01*
X79327000Y-125428000D01*
X79347000Y-125428000D01*
X79347000Y-125682000D01*
X79327000Y-125682000D01*
X79327000Y-125702000D01*
X79073000Y-125702000D01*
X79073000Y-125682000D01*
X77973750Y-125682000D01*
X77815000Y-125840750D01*
X77815000Y-125981310D01*
X77911673Y-126214699D01*
X77969974Y-126273000D01*
X77855391Y-126273000D01*
X77588187Y-126383679D01*
X77383679Y-126588187D01*
X77273000Y-126855391D01*
X75403200Y-126855391D01*
X75403200Y-126539710D01*
X75411099Y-126499999D01*
X75379806Y-126342679D01*
X75340981Y-126284574D01*
X75290691Y-126209309D01*
X75257025Y-126186815D01*
X74896788Y-125826578D01*
X74883406Y-125806550D01*
X74883406Y-125255000D01*
X74858282Y-125128690D01*
X77815000Y-125128690D01*
X77815000Y-125269250D01*
X77973750Y-125428000D01*
X79073000Y-125428000D01*
X79073000Y-124778750D01*
X78914250Y-124620000D01*
X78323691Y-124620000D01*
X78090302Y-124716673D01*
X77911673Y-124895301D01*
X77815000Y-125128690D01*
X74858282Y-125128690D01*
X74858027Y-125127411D01*
X74785754Y-125019246D01*
X74677589Y-124946973D01*
X74550000Y-124921594D01*
X73286805Y-124921594D01*
X72832046Y-124466836D01*
X72833406Y-124460000D01*
X72833406Y-123790000D01*
X72808027Y-123662411D01*
X72735754Y-123554246D01*
X72627589Y-123481973D01*
X72500000Y-123456594D01*
X71500000Y-123456594D01*
X71372411Y-123481973D01*
X71264246Y-123554246D01*
X71191973Y-123662411D01*
X71166594Y-123790000D01*
X71166594Y-124460000D01*
X71191973Y-124587589D01*
X71264246Y-124695754D01*
X71372411Y-124768027D01*
X71500000Y-124793406D01*
X72018196Y-124793406D01*
X72431383Y-125206594D01*
X71500000Y-125206594D01*
X71372411Y-125231973D01*
X71264246Y-125304246D01*
X71191973Y-125412411D01*
X71166594Y-125540000D01*
X71166594Y-126210000D01*
X71191973Y-126337589D01*
X71264246Y-126445754D01*
X71345431Y-126500000D01*
X71264246Y-126554246D01*
X71191973Y-126662411D01*
X71166594Y-126790000D01*
X71166594Y-127460000D01*
X71191973Y-127587589D01*
X71264246Y-127695754D01*
X71326916Y-127737628D01*
X71273000Y-127867793D01*
X71273000Y-128157011D01*
X71318869Y-128267749D01*
X71264246Y-128304246D01*
X71191973Y-128412411D01*
X71166594Y-128540000D01*
X71166594Y-129210000D01*
X71191973Y-129337589D01*
X71264246Y-129445754D01*
X71345431Y-129500000D01*
X71264246Y-129554246D01*
X71191973Y-129662411D01*
X71166594Y-129790000D01*
X71166594Y-130460000D01*
X71191973Y-130587589D01*
X71264246Y-130695754D01*
X71372411Y-130768027D01*
X71500000Y-130793406D01*
X72500000Y-130793406D01*
X72627589Y-130768027D01*
X72716594Y-130708556D01*
X72716594Y-130753195D01*
X72263196Y-131206594D01*
X71500000Y-131206594D01*
X71372411Y-131231973D01*
X71264246Y-131304246D01*
X71191973Y-131412411D01*
X71166594Y-131540000D01*
X71166594Y-132210000D01*
X71191973Y-132337589D01*
X71264246Y-132445754D01*
X71345431Y-132500000D01*
X71264246Y-132554246D01*
X71191973Y-132662411D01*
X71166594Y-132790000D01*
X71166594Y-133460000D01*
X71191973Y-133587589D01*
X71264246Y-133695754D01*
X71326916Y-133737628D01*
X71273000Y-133867793D01*
X71273000Y-134157011D01*
X71318869Y-134267749D01*
X71264246Y-134304246D01*
X71191973Y-134412411D01*
X71166594Y-134540000D01*
X71166594Y-135210000D01*
X71191973Y-135337589D01*
X71264246Y-135445754D01*
X71372411Y-135518027D01*
X71500000Y-135543406D01*
X72500000Y-135543406D01*
X72627589Y-135518027D01*
X72735754Y-135445754D01*
X72808027Y-135337589D01*
X72833406Y-135210000D01*
X72833406Y-134993556D01*
X72922411Y-135053027D01*
X73050000Y-135078406D01*
X73436021Y-135078406D01*
X73467989Y-135126250D01*
X73509310Y-135188091D01*
X73542976Y-135210586D01*
X74258984Y-135926594D01*
X72456667Y-135926594D01*
X72329078Y-135951973D01*
X72220913Y-136024246D01*
X72148640Y-136132411D01*
X72123261Y-136260000D01*
X72123261Y-137546000D01*
X71688053Y-137546000D01*
X71454000Y-137311948D01*
X71454000Y-137074134D01*
X71616321Y-136911813D01*
X71727000Y-136644609D01*
X71727000Y-136355391D01*
X71616321Y-136088187D01*
X71411813Y-135883679D01*
X71144609Y-135773000D01*
X70855391Y-135773000D01*
X70588187Y-135883679D01*
X70383679Y-136088187D01*
X70273000Y-136355391D01*
X70273000Y-136644609D01*
X70383679Y-136911813D01*
X70546000Y-137074134D01*
X70546000Y-137455291D01*
X70537107Y-137500000D01*
X70546000Y-137544709D01*
X70546000Y-137544712D01*
X70572342Y-137677141D01*
X70672685Y-137827315D01*
X70710591Y-137852643D01*
X71147358Y-138289411D01*
X71172685Y-138327315D01*
X71210588Y-138352641D01*
X71210590Y-138352643D01*
X71286254Y-138403200D01*
X71322858Y-138427658D01*
X71455287Y-138454000D01*
X71455291Y-138454000D01*
X71500000Y-138462893D01*
X71544709Y-138454000D01*
X72123261Y-138454000D01*
X72123261Y-139573000D01*
X69902000Y-139573000D01*
X69902000Y-124224635D01*
X71892032Y-123000000D01*
X73456594Y-123000000D01*
X73456594Y-124000000D01*
X73481973Y-124127589D01*
X73554246Y-124235754D01*
X73662411Y-124308027D01*
X73790000Y-124333406D01*
X74460000Y-124333406D01*
X74587589Y-124308027D01*
X74695754Y-124235754D01*
X74768027Y-124127589D01*
X74793406Y-124000000D01*
X74793406Y-123785750D01*
X74905000Y-123785750D01*
X74905000Y-124126310D01*
X75001673Y-124359699D01*
X75180302Y-124538327D01*
X75413691Y-124635000D01*
X75589250Y-124635000D01*
X75748000Y-124476250D01*
X75748000Y-123627000D01*
X76002000Y-123627000D01*
X76002000Y-124476250D01*
X76160750Y-124635000D01*
X76336309Y-124635000D01*
X76500000Y-124567197D01*
X76663691Y-124635000D01*
X76839250Y-124635000D01*
X76998000Y-124476250D01*
X76998000Y-123627000D01*
X77252000Y-123627000D01*
X77252000Y-124476250D01*
X77410750Y-124635000D01*
X77586309Y-124635000D01*
X77819698Y-124538327D01*
X77998327Y-124359699D01*
X78095000Y-124126310D01*
X78095000Y-123785750D01*
X77936250Y-123627000D01*
X77252000Y-123627000D01*
X76998000Y-123627000D01*
X76002000Y-123627000D01*
X75748000Y-123627000D01*
X75063750Y-123627000D01*
X74905000Y-123785750D01*
X74793406Y-123785750D01*
X74793406Y-123165391D01*
X74905000Y-123119167D01*
X74905000Y-123214250D01*
X75063750Y-123373000D01*
X75748000Y-123373000D01*
X75748000Y-122523750D01*
X76002000Y-122523750D01*
X76002000Y-123373000D01*
X76998000Y-123373000D01*
X76998000Y-122523750D01*
X77252000Y-122523750D01*
X77252000Y-123373000D01*
X77936250Y-123373000D01*
X78095000Y-123214250D01*
X78095000Y-123119143D01*
X78206594Y-123165367D01*
X78206594Y-124000000D01*
X78231973Y-124127589D01*
X78304246Y-124235754D01*
X78412411Y-124308027D01*
X78540000Y-124333406D01*
X79210000Y-124333406D01*
X79337589Y-124308027D01*
X79445754Y-124235754D01*
X79518027Y-124127589D01*
X79543406Y-124000000D01*
X79543406Y-123000000D01*
X79518027Y-122872411D01*
X79445754Y-122764246D01*
X79337589Y-122691973D01*
X79326717Y-122689810D01*
X79302658Y-122568858D01*
X79227000Y-122455628D01*
X79227000Y-122355391D01*
X79116321Y-122088187D01*
X78911813Y-121883679D01*
X78644609Y-121773000D01*
X78355391Y-121773000D01*
X78088187Y-121883679D01*
X77883679Y-122088187D01*
X77773000Y-122355391D01*
X77773000Y-122442330D01*
X77586309Y-122365000D01*
X77410750Y-122365000D01*
X77252000Y-122523750D01*
X76998000Y-122523750D01*
X76839250Y-122365000D01*
X76663691Y-122365000D01*
X76500000Y-122432803D01*
X76336309Y-122365000D01*
X76160750Y-122365000D01*
X76002000Y-122523750D01*
X75748000Y-122523750D01*
X75589250Y-122365000D01*
X75413691Y-122365000D01*
X75227000Y-122442330D01*
X75227000Y-122355415D01*
X75116321Y-122088211D01*
X74911813Y-121883703D01*
X74644609Y-121773024D01*
X74355391Y-121773024D01*
X74088187Y-121883703D01*
X73883679Y-122088211D01*
X73773000Y-122355415D01*
X73773000Y-122455630D01*
X73772360Y-122456588D01*
X73772357Y-122456591D01*
X73697342Y-122568859D01*
X73673284Y-122689810D01*
X73662411Y-122691973D01*
X73554246Y-122764246D01*
X73481973Y-122872411D01*
X73456594Y-123000000D01*
X71892032Y-123000000D01*
X76113783Y-120402000D01*
X83332574Y-120402000D01*
X83314246Y-120414246D01*
G36*
X97956594Y-131000000D02*
X97981973Y-131127589D01*
X98054246Y-131235754D01*
X98162411Y-131308027D01*
X98290000Y-131333406D01*
X98960000Y-131333406D01*
X99087589Y-131308027D01*
X99195754Y-131235754D01*
X99237628Y-131173084D01*
X99238026Y-131173249D01*
X99155000Y-131373690D01*
X99155000Y-131714250D01*
X99313750Y-131873000D01*
X99998000Y-131873000D01*
X99998000Y-131853000D01*
X100252000Y-131853000D01*
X100252000Y-131873000D01*
X100272000Y-131873000D01*
X100272000Y-132127000D01*
X100252000Y-132127000D01*
X100252000Y-132147000D01*
X99998000Y-132147000D01*
X99998000Y-132127000D01*
X99313750Y-132127000D01*
X99155000Y-132285750D01*
X99155000Y-132596800D01*
X98539711Y-132596800D01*
X98500000Y-132588901D01*
X98460289Y-132596800D01*
X97667011Y-132596800D01*
X97063188Y-131992978D01*
X97040691Y-131959309D01*
X96907321Y-131870194D01*
X96789711Y-131846800D01*
X96750000Y-131838901D01*
X96710289Y-131846800D01*
X96260550Y-131846800D01*
X96226250Y-131812500D01*
X96210526Y-131812500D01*
X96288327Y-131734699D01*
X96365597Y-131548153D01*
X96385000Y-131528750D01*
X96385000Y-131471250D01*
X96365597Y-131451847D01*
X96288327Y-131265301D01*
X96210526Y-131187500D01*
X96226250Y-131187500D01*
X96385000Y-131028750D01*
X96385000Y-131009803D01*
X96386858Y-131007022D01*
X96490680Y-130903200D01*
X97956594Y-130903200D01*
X97956594Y-131000000D01*
X97956594Y-131000000D01*
G37*
X97956594Y-131000000D02*
X97981973Y-131127589D01*
X98054246Y-131235754D01*
X98162411Y-131308027D01*
X98290000Y-131333406D01*
X98960000Y-131333406D01*
X99087589Y-131308027D01*
X99195754Y-131235754D01*
X99237628Y-131173084D01*
X99238026Y-131173249D01*
X99155000Y-131373690D01*
X99155000Y-131714250D01*
X99313750Y-131873000D01*
X99998000Y-131873000D01*
X99998000Y-131853000D01*
X100252000Y-131853000D01*
X100252000Y-131873000D01*
X100272000Y-131873000D01*
X100272000Y-132127000D01*
X100252000Y-132127000D01*
X100252000Y-132147000D01*
X99998000Y-132147000D01*
X99998000Y-132127000D01*
X99313750Y-132127000D01*
X99155000Y-132285750D01*
X99155000Y-132596800D01*
X98539711Y-132596800D01*
X98500000Y-132588901D01*
X98460289Y-132596800D01*
X97667011Y-132596800D01*
X97063188Y-131992978D01*
X97040691Y-131959309D01*
X96907321Y-131870194D01*
X96789711Y-131846800D01*
X96750000Y-131838901D01*
X96710289Y-131846800D01*
X96260550Y-131846800D01*
X96226250Y-131812500D01*
X96210526Y-131812500D01*
X96288327Y-131734699D01*
X96365597Y-131548153D01*
X96385000Y-131528750D01*
X96385000Y-131471250D01*
X96365597Y-131451847D01*
X96288327Y-131265301D01*
X96210526Y-131187500D01*
X96226250Y-131187500D01*
X96385000Y-131028750D01*
X96385000Y-131009803D01*
X96386858Y-131007022D01*
X96490680Y-130903200D01*
X97956594Y-130903200D01*
X97956594Y-131000000D01*
G36*
X94879246Y-128235754D02*
X94987411Y-128308027D01*
X95115000Y-128333406D01*
X95373000Y-128333406D01*
X95373000Y-128773000D01*
X95355391Y-128773000D01*
X95313413Y-128790388D01*
X95234699Y-128711673D01*
X95001310Y-128615000D01*
X94971250Y-128615000D01*
X94812500Y-128773750D01*
X94812500Y-129260029D01*
X94773000Y-129355391D01*
X94773000Y-129644609D01*
X94812500Y-129739971D01*
X94812500Y-129747000D01*
X94708406Y-129747000D01*
X94708406Y-129250000D01*
X94687500Y-129144898D01*
X94687500Y-128773750D01*
X94653200Y-128739450D01*
X94653200Y-128379610D01*
X94846326Y-128186485D01*
X94879246Y-128235754D01*
X94879246Y-128235754D01*
G37*
X94879246Y-128235754D02*
X94987411Y-128308027D01*
X95115000Y-128333406D01*
X95373000Y-128333406D01*
X95373000Y-128773000D01*
X95355391Y-128773000D01*
X95313413Y-128790388D01*
X95234699Y-128711673D01*
X95001310Y-128615000D01*
X94971250Y-128615000D01*
X94812500Y-128773750D01*
X94812500Y-129260029D01*
X94773000Y-129355391D01*
X94773000Y-129644609D01*
X94812500Y-129739971D01*
X94812500Y-129747000D01*
X94708406Y-129747000D01*
X94708406Y-129250000D01*
X94687500Y-129144898D01*
X94687500Y-128773750D01*
X94653200Y-128739450D01*
X94653200Y-128379610D01*
X94846326Y-128186485D01*
X94879246Y-128235754D01*
G36*
X95875851Y-124055457D02*
X95788877Y-124142430D01*
X95717992Y-124248516D01*
X95700134Y-124338295D01*
X95693101Y-124373654D01*
X95717992Y-124498792D01*
X95788877Y-124604878D01*
X96425273Y-125241275D01*
X96531359Y-125312160D01*
X96656497Y-125337051D01*
X96781635Y-125312160D01*
X96887721Y-125241275D01*
X96974695Y-125154301D01*
X97497667Y-125677273D01*
X97410693Y-125764246D01*
X97338420Y-125872411D01*
X97313041Y-126000000D01*
X97331117Y-126090876D01*
X97315416Y-126114374D01*
X97248795Y-126214079D01*
X97217502Y-126371399D01*
X97225402Y-126411114D01*
X97225402Y-126666594D01*
X97040000Y-126666594D01*
X96912411Y-126691973D01*
X96804246Y-126764246D01*
X96731973Y-126872411D01*
X96706594Y-127000000D01*
X96706594Y-128000000D01*
X96721801Y-128076450D01*
X96721801Y-128180160D01*
X96662411Y-128191973D01*
X96554246Y-128264246D01*
X96481973Y-128372411D01*
X96456594Y-128500000D01*
X96456594Y-129500000D01*
X96481973Y-129627589D01*
X96554246Y-129735754D01*
X96662411Y-129808027D01*
X96790000Y-129833406D01*
X97460000Y-129833406D01*
X97587589Y-129808027D01*
X97695754Y-129735754D01*
X97768027Y-129627589D01*
X97793406Y-129500000D01*
X97793406Y-128500000D01*
X97768027Y-128372411D01*
X97741965Y-128333406D01*
X97885000Y-128333406D01*
X97924980Y-128325453D01*
X97905000Y-128373690D01*
X97905000Y-128714250D01*
X98063750Y-128873000D01*
X98748000Y-128873000D01*
X98748000Y-128023750D01*
X99002000Y-128023750D01*
X99002000Y-128873000D01*
X99686250Y-128873000D01*
X99845000Y-128714250D01*
X99845000Y-128373690D01*
X99748327Y-128140301D01*
X99569698Y-127961673D01*
X99336309Y-127865000D01*
X99160750Y-127865000D01*
X99002000Y-128023750D01*
X98748000Y-128023750D01*
X98589250Y-127865000D01*
X98413691Y-127865000D01*
X98218406Y-127945890D01*
X98218406Y-127000000D01*
X98193027Y-126872411D01*
X98120754Y-126764246D01*
X98031801Y-126704810D01*
X98031801Y-126680633D01*
X98127589Y-126661580D01*
X98235754Y-126589307D01*
X98322728Y-126502334D01*
X109910197Y-138089803D01*
X109951399Y-138117333D01*
X110000000Y-138127000D01*
X110048601Y-138117333D01*
X110089803Y-138089803D01*
X110098000Y-138081606D01*
X110098000Y-139573000D01*
X107876739Y-139573000D01*
X107876739Y-136260000D01*
X107851360Y-136132411D01*
X107779087Y-136024246D01*
X107670922Y-135951973D01*
X107543333Y-135926594D01*
X105696667Y-135926594D01*
X105569078Y-135951973D01*
X105460913Y-136024246D01*
X105388640Y-136132411D01*
X105363261Y-136260000D01*
X105363261Y-139573000D01*
X105106739Y-139573000D01*
X105106739Y-136260000D01*
X105081360Y-136132411D01*
X105009087Y-136024246D01*
X104900922Y-135951973D01*
X104773333Y-135926594D01*
X104181432Y-135926594D01*
X104248327Y-135859699D01*
X104345000Y-135626310D01*
X104345000Y-135285750D01*
X104186250Y-135127000D01*
X103502000Y-135127000D01*
X103502000Y-135147000D01*
X103248000Y-135147000D01*
X103248000Y-135127000D01*
X102563750Y-135127000D01*
X102405000Y-135285750D01*
X102405000Y-135626310D01*
X102501673Y-135859699D01*
X102680302Y-136038327D01*
X102681244Y-136038717D01*
X102618640Y-136132411D01*
X102593261Y-136260000D01*
X102593261Y-139573000D01*
X102336739Y-139573000D01*
X102336739Y-136260000D01*
X102311360Y-136132411D01*
X102239087Y-136024246D01*
X102130922Y-135951973D01*
X102003333Y-135926594D01*
X101627000Y-135926594D01*
X101627000Y-135833406D01*
X101960000Y-135833406D01*
X102087589Y-135808027D01*
X102195754Y-135735754D01*
X102268027Y-135627589D01*
X102293406Y-135500000D01*
X102293406Y-134500000D01*
X102268027Y-134372411D01*
X102195754Y-134264246D01*
X102174433Y-134250000D01*
X102195754Y-134235754D01*
X102268027Y-134127589D01*
X102293406Y-134000000D01*
X102293406Y-133785750D01*
X102405000Y-133785750D01*
X102405000Y-134126310D01*
X102456234Y-134250000D01*
X102405000Y-134373690D01*
X102405000Y-134714250D01*
X102563750Y-134873000D01*
X103248000Y-134873000D01*
X103248000Y-133627000D01*
X103502000Y-133627000D01*
X103502000Y-134873000D01*
X104186250Y-134873000D01*
X104345000Y-134714250D01*
X104345000Y-134373690D01*
X104293766Y-134250000D01*
X104345000Y-134126310D01*
X104345000Y-133785750D01*
X104186250Y-133627000D01*
X103502000Y-133627000D01*
X103248000Y-133627000D01*
X102563750Y-133627000D01*
X102405000Y-133785750D01*
X102293406Y-133785750D01*
X102293406Y-133135000D01*
X102336309Y-133135000D01*
X102405000Y-133106547D01*
X102405000Y-133214250D01*
X102563750Y-133373000D01*
X103248000Y-133373000D01*
X103248000Y-132523750D01*
X103502000Y-132523750D01*
X103502000Y-133373000D01*
X104186250Y-133373000D01*
X104345000Y-133214250D01*
X104345000Y-132873690D01*
X104248327Y-132640301D01*
X104069698Y-132461673D01*
X103836309Y-132365000D01*
X103660750Y-132365000D01*
X103502000Y-132523750D01*
X103248000Y-132523750D01*
X103089250Y-132365000D01*
X102913691Y-132365000D01*
X102845000Y-132393453D01*
X102845000Y-132285750D01*
X102686250Y-132127000D01*
X102002000Y-132127000D01*
X102002000Y-132147000D01*
X101748000Y-132147000D01*
X101748000Y-132127000D01*
X101728000Y-132127000D01*
X101728000Y-131873000D01*
X101748000Y-131873000D01*
X101748000Y-131023750D01*
X102002000Y-131023750D01*
X102002000Y-131873000D01*
X102686250Y-131873000D01*
X102845000Y-131714250D01*
X102845000Y-131373690D01*
X102748327Y-131140301D01*
X102569698Y-130961673D01*
X102336309Y-130865000D01*
X102160750Y-130865000D01*
X102002000Y-131023750D01*
X101748000Y-131023750D01*
X101589250Y-130865000D01*
X101544606Y-130865000D01*
X101089803Y-130410197D01*
X101048601Y-130382667D01*
X101000000Y-130373000D01*
X101186250Y-130373000D01*
X101345000Y-130214250D01*
X101345000Y-129873690D01*
X101248327Y-129640301D01*
X101069698Y-129461673D01*
X100836309Y-129365000D01*
X100660750Y-129365000D01*
X100502000Y-129523750D01*
X100502000Y-130373000D01*
X100248000Y-130373000D01*
X100248000Y-129523750D01*
X100089250Y-129365000D01*
X99913691Y-129365000D01*
X99845000Y-129393453D01*
X99845000Y-129285750D01*
X99686250Y-129127000D01*
X99002000Y-129127000D01*
X99002000Y-129147000D01*
X98748000Y-129147000D01*
X98748000Y-129127000D01*
X98063750Y-129127000D01*
X97905000Y-129285750D01*
X97905000Y-129626310D01*
X97997385Y-129849346D01*
X97981973Y-129872411D01*
X97981856Y-129873000D01*
X96132398Y-129873000D01*
X96227000Y-129644609D01*
X96227000Y-129355391D01*
X96127000Y-129113969D01*
X96127000Y-128281694D01*
X96195754Y-128235754D01*
X96268027Y-128127589D01*
X96293406Y-128000000D01*
X96293406Y-127000000D01*
X96278200Y-126923554D01*
X96278200Y-126819840D01*
X96337589Y-126808027D01*
X96445754Y-126735754D01*
X96518027Y-126627589D01*
X96543406Y-126500000D01*
X96543406Y-125500000D01*
X96518027Y-125372411D01*
X96445754Y-125264246D01*
X96337589Y-125191973D01*
X96210000Y-125166594D01*
X95540000Y-125166594D01*
X95412411Y-125191973D01*
X95304246Y-125264246D01*
X95231973Y-125372411D01*
X95206594Y-125500000D01*
X95206594Y-125873000D01*
X95095000Y-125873000D01*
X95095000Y-125872998D01*
X94936252Y-125872998D01*
X95095000Y-125714250D01*
X95095000Y-125373690D01*
X94998327Y-125140301D01*
X94819698Y-124961673D01*
X94586309Y-124865000D01*
X94410750Y-124865000D01*
X94252002Y-125023748D01*
X94252002Y-124865000D01*
X94127000Y-124865000D01*
X94127000Y-123493574D01*
X94208761Y-123411813D01*
X94319440Y-123144609D01*
X94319440Y-122855391D01*
X94208761Y-122588187D01*
X94127000Y-122506426D01*
X94127000Y-122306606D01*
X95875851Y-124055457D01*
X95875851Y-124055457D01*
G37*
X95875851Y-124055457D02*
X95788877Y-124142430D01*
X95717992Y-124248516D01*
X95700134Y-124338295D01*
X95693101Y-124373654D01*
X95717992Y-124498792D01*
X95788877Y-124604878D01*
X96425273Y-125241275D01*
X96531359Y-125312160D01*
X96656497Y-125337051D01*
X96781635Y-125312160D01*
X96887721Y-125241275D01*
X96974695Y-125154301D01*
X97497667Y-125677273D01*
X97410693Y-125764246D01*
X97338420Y-125872411D01*
X97313041Y-126000000D01*
X97331117Y-126090876D01*
X97315416Y-126114374D01*
X97248795Y-126214079D01*
X97217502Y-126371399D01*
X97225402Y-126411114D01*
X97225402Y-126666594D01*
X97040000Y-126666594D01*
X96912411Y-126691973D01*
X96804246Y-126764246D01*
X96731973Y-126872411D01*
X96706594Y-127000000D01*
X96706594Y-128000000D01*
X96721801Y-128076450D01*
X96721801Y-128180160D01*
X96662411Y-128191973D01*
X96554246Y-128264246D01*
X96481973Y-128372411D01*
X96456594Y-128500000D01*
X96456594Y-129500000D01*
X96481973Y-129627589D01*
X96554246Y-129735754D01*
X96662411Y-129808027D01*
X96790000Y-129833406D01*
X97460000Y-129833406D01*
X97587589Y-129808027D01*
X97695754Y-129735754D01*
X97768027Y-129627589D01*
X97793406Y-129500000D01*
X97793406Y-128500000D01*
X97768027Y-128372411D01*
X97741965Y-128333406D01*
X97885000Y-128333406D01*
X97924980Y-128325453D01*
X97905000Y-128373690D01*
X97905000Y-128714250D01*
X98063750Y-128873000D01*
X98748000Y-128873000D01*
X98748000Y-128023750D01*
X99002000Y-128023750D01*
X99002000Y-128873000D01*
X99686250Y-128873000D01*
X99845000Y-128714250D01*
X99845000Y-128373690D01*
X99748327Y-128140301D01*
X99569698Y-127961673D01*
X99336309Y-127865000D01*
X99160750Y-127865000D01*
X99002000Y-128023750D01*
X98748000Y-128023750D01*
X98589250Y-127865000D01*
X98413691Y-127865000D01*
X98218406Y-127945890D01*
X98218406Y-127000000D01*
X98193027Y-126872411D01*
X98120754Y-126764246D01*
X98031801Y-126704810D01*
X98031801Y-126680633D01*
X98127589Y-126661580D01*
X98235754Y-126589307D01*
X98322728Y-126502334D01*
X109910197Y-138089803D01*
X109951399Y-138117333D01*
X110000000Y-138127000D01*
X110048601Y-138117333D01*
X110089803Y-138089803D01*
X110098000Y-138081606D01*
X110098000Y-139573000D01*
X107876739Y-139573000D01*
X107876739Y-136260000D01*
X107851360Y-136132411D01*
X107779087Y-136024246D01*
X107670922Y-135951973D01*
X107543333Y-135926594D01*
X105696667Y-135926594D01*
X105569078Y-135951973D01*
X105460913Y-136024246D01*
X105388640Y-136132411D01*
X105363261Y-136260000D01*
X105363261Y-139573000D01*
X105106739Y-139573000D01*
X105106739Y-136260000D01*
X105081360Y-136132411D01*
X105009087Y-136024246D01*
X104900922Y-135951973D01*
X104773333Y-135926594D01*
X104181432Y-135926594D01*
X104248327Y-135859699D01*
X104345000Y-135626310D01*
X104345000Y-135285750D01*
X104186250Y-135127000D01*
X103502000Y-135127000D01*
X103502000Y-135147000D01*
X103248000Y-135147000D01*
X103248000Y-135127000D01*
X102563750Y-135127000D01*
X102405000Y-135285750D01*
X102405000Y-135626310D01*
X102501673Y-135859699D01*
X102680302Y-136038327D01*
X102681244Y-136038717D01*
X102618640Y-136132411D01*
X102593261Y-136260000D01*
X102593261Y-139573000D01*
X102336739Y-139573000D01*
X102336739Y-136260000D01*
X102311360Y-136132411D01*
X102239087Y-136024246D01*
X102130922Y-135951973D01*
X102003333Y-135926594D01*
X101627000Y-135926594D01*
X101627000Y-135833406D01*
X101960000Y-135833406D01*
X102087589Y-135808027D01*
X102195754Y-135735754D01*
X102268027Y-135627589D01*
X102293406Y-135500000D01*
X102293406Y-134500000D01*
X102268027Y-134372411D01*
X102195754Y-134264246D01*
X102174433Y-134250000D01*
X102195754Y-134235754D01*
X102268027Y-134127589D01*
X102293406Y-134000000D01*
X102293406Y-133785750D01*
X102405000Y-133785750D01*
X102405000Y-134126310D01*
X102456234Y-134250000D01*
X102405000Y-134373690D01*
X102405000Y-134714250D01*
X102563750Y-134873000D01*
X103248000Y-134873000D01*
X103248000Y-133627000D01*
X103502000Y-133627000D01*
X103502000Y-134873000D01*
X104186250Y-134873000D01*
X104345000Y-134714250D01*
X104345000Y-134373690D01*
X104293766Y-134250000D01*
X104345000Y-134126310D01*
X104345000Y-133785750D01*
X104186250Y-133627000D01*
X103502000Y-133627000D01*
X103248000Y-133627000D01*
X102563750Y-133627000D01*
X102405000Y-133785750D01*
X102293406Y-133785750D01*
X102293406Y-133135000D01*
X102336309Y-133135000D01*
X102405000Y-133106547D01*
X102405000Y-133214250D01*
X102563750Y-133373000D01*
X103248000Y-133373000D01*
X103248000Y-132523750D01*
X103502000Y-132523750D01*
X103502000Y-133373000D01*
X104186250Y-133373000D01*
X104345000Y-133214250D01*
X104345000Y-132873690D01*
X104248327Y-132640301D01*
X104069698Y-132461673D01*
X103836309Y-132365000D01*
X103660750Y-132365000D01*
X103502000Y-132523750D01*
X103248000Y-132523750D01*
X103089250Y-132365000D01*
X102913691Y-132365000D01*
X102845000Y-132393453D01*
X102845000Y-132285750D01*
X102686250Y-132127000D01*
X102002000Y-132127000D01*
X102002000Y-132147000D01*
X101748000Y-132147000D01*
X101748000Y-132127000D01*
X101728000Y-132127000D01*
X101728000Y-131873000D01*
X101748000Y-131873000D01*
X101748000Y-131023750D01*
X102002000Y-131023750D01*
X102002000Y-131873000D01*
X102686250Y-131873000D01*
X102845000Y-131714250D01*
X102845000Y-131373690D01*
X102748327Y-131140301D01*
X102569698Y-130961673D01*
X102336309Y-130865000D01*
X102160750Y-130865000D01*
X102002000Y-131023750D01*
X101748000Y-131023750D01*
X101589250Y-130865000D01*
X101544606Y-130865000D01*
X101089803Y-130410197D01*
X101048601Y-130382667D01*
X101000000Y-130373000D01*
X101186250Y-130373000D01*
X101345000Y-130214250D01*
X101345000Y-129873690D01*
X101248327Y-129640301D01*
X101069698Y-129461673D01*
X100836309Y-129365000D01*
X100660750Y-129365000D01*
X100502000Y-129523750D01*
X100502000Y-130373000D01*
X100248000Y-130373000D01*
X100248000Y-129523750D01*
X100089250Y-129365000D01*
X99913691Y-129365000D01*
X99845000Y-129393453D01*
X99845000Y-129285750D01*
X99686250Y-129127000D01*
X99002000Y-129127000D01*
X99002000Y-129147000D01*
X98748000Y-129147000D01*
X98748000Y-129127000D01*
X98063750Y-129127000D01*
X97905000Y-129285750D01*
X97905000Y-129626310D01*
X97997385Y-129849346D01*
X97981973Y-129872411D01*
X97981856Y-129873000D01*
X96132398Y-129873000D01*
X96227000Y-129644609D01*
X96227000Y-129355391D01*
X96127000Y-129113969D01*
X96127000Y-128281694D01*
X96195754Y-128235754D01*
X96268027Y-128127589D01*
X96293406Y-128000000D01*
X96293406Y-127000000D01*
X96278200Y-126923554D01*
X96278200Y-126819840D01*
X96337589Y-126808027D01*
X96445754Y-126735754D01*
X96518027Y-126627589D01*
X96543406Y-126500000D01*
X96543406Y-125500000D01*
X96518027Y-125372411D01*
X96445754Y-125264246D01*
X96337589Y-125191973D01*
X96210000Y-125166594D01*
X95540000Y-125166594D01*
X95412411Y-125191973D01*
X95304246Y-125264246D01*
X95231973Y-125372411D01*
X95206594Y-125500000D01*
X95206594Y-125873000D01*
X95095000Y-125873000D01*
X95095000Y-125872998D01*
X94936252Y-125872998D01*
X95095000Y-125714250D01*
X95095000Y-125373690D01*
X94998327Y-125140301D01*
X94819698Y-124961673D01*
X94586309Y-124865000D01*
X94410750Y-124865000D01*
X94252002Y-125023748D01*
X94252002Y-124865000D01*
X94127000Y-124865000D01*
X94127000Y-123493574D01*
X94208761Y-123411813D01*
X94319440Y-123144609D01*
X94319440Y-122855391D01*
X94208761Y-122588187D01*
X94127000Y-122506426D01*
X94127000Y-122306606D01*
X95875851Y-124055457D01*
M02*
