G04 #@! TF.GenerationSoftware,KiCad,Pcbnew,(5.0.0-rc2-dev-231-ge0e0687cd)*
G04 #@! TF.CreationDate,2018-07-23T22:11:46+02:00*
G04 #@! TF.ProjectId,WiFi_Plotter,576946695F506C6F747465722E6B6963,rev?*
G04 #@! TF.SameCoordinates,Original*
G04 #@! TF.FileFunction,Copper,L2,Bot,Signal*
G04 #@! TF.FilePolarity,Positive*
%FSLAX46Y46*%
G04 Gerber Fmt 4.6, Leading zero omitted, Abs format (unit mm)*
G04 Created by KiCad (PCBNEW (5.0.0-rc2-dev-231-ge0e0687cd)) date Mon Jul 23 22:11:46 2018*
%MOMM*%
%LPD*%
G01*
G04 APERTURE LIST*
%ADD10R,1.000000X3.150000*%
%ADD11C,0.500000*%
%ADD12C,0.100000*%
%ADD13R,1.846667X3.480000*%
%ADD14C,0.800000*%
%ADD15C,0.254000*%
%ADD16C,0.152400*%
G04 APERTURE END LIST*
D10*
X92540000Y-122000000D03*
X90000000Y-122000000D03*
X87460000Y-122000000D03*
D11*
X96515076Y-124515076D03*
D12*
G36*
X96020101Y-124373655D02*
X96373655Y-124020101D01*
X97010051Y-124656497D01*
X96656497Y-125010051D01*
X96020101Y-124373655D01*
X96020101Y-124373655D01*
G37*
D13*
X74765000Y-138000000D03*
X77535000Y-138000000D03*
X80305000Y-138000000D03*
X83075000Y-138000000D03*
X85845000Y-138000000D03*
X88615000Y-138000000D03*
X91385000Y-138000000D03*
X94155000Y-138000000D03*
X96925000Y-138000000D03*
X99695000Y-138000000D03*
X102465000Y-138000000D03*
X105235000Y-138000000D03*
D14*
X94991181Y-128538346D03*
X96254000Y-131500000D03*
X93500000Y-128500000D03*
X82987598Y-124500000D03*
X87500000Y-129000000D03*
X86500000Y-129000000D03*
X85500000Y-129000000D03*
X85000000Y-121000000D03*
X91500000Y-127487598D03*
X86500000Y-131000000D03*
X81000000Y-133987598D03*
X101500000Y-131000000D03*
X98500000Y-128000000D03*
X103000000Y-132500000D03*
X102500000Y-132000000D03*
X95000000Y-124500000D03*
X94500000Y-125000000D03*
X94500000Y-124000000D03*
X95000000Y-123500000D03*
X95500000Y-124000000D03*
X97000000Y-125500000D03*
X98500000Y-127000000D03*
X99000000Y-127500000D03*
X99500000Y-128000000D03*
X104000000Y-133500000D03*
X104500000Y-134000000D03*
X105000000Y-133500000D03*
X104500000Y-133000000D03*
X104000000Y-132500000D03*
X103500000Y-132000000D03*
X103000000Y-131500000D03*
X102500000Y-131000000D03*
X102000000Y-130500000D03*
X101500000Y-130000000D03*
X101000000Y-129500000D03*
X100000000Y-128500000D03*
X100000000Y-129500000D03*
X100500000Y-129000000D03*
X99500000Y-129000000D03*
X105500000Y-134000000D03*
X106000000Y-134500000D03*
X107000000Y-135500000D03*
X106500000Y-135000000D03*
X105000000Y-135500000D03*
X106000000Y-135500000D03*
X105000000Y-134500000D03*
X105500000Y-135000000D03*
X104500000Y-135000000D03*
X88000000Y-135000000D03*
X92000000Y-133000000D03*
X93000000Y-133000000D03*
X94000000Y-133000000D03*
X94000000Y-132000000D03*
X94000000Y-131000000D03*
X93000000Y-131000000D03*
X92000000Y-131000000D03*
X92000000Y-132000000D03*
X93000000Y-132000000D03*
X97500000Y-135000000D03*
X100500000Y-134000000D03*
X101012402Y-132000000D03*
X99512402Y-130500000D03*
X98012402Y-129000000D03*
X94987598Y-126000000D03*
X102512402Y-135000000D03*
X102512402Y-133500000D03*
X71000000Y-136500000D03*
X78000000Y-127000000D03*
X78500000Y-122500000D03*
X74500000Y-122500024D03*
X72000000Y-128012402D03*
X72000000Y-134012402D03*
X78000000Y-133500000D03*
X86500000Y-133452413D03*
X88947598Y-122000000D03*
X89500000Y-133500000D03*
X95500000Y-134500000D03*
X96500000Y-134500000D03*
X78000000Y-129500000D03*
X86500000Y-132000028D03*
X78000000Y-130500000D03*
X93592440Y-123000000D03*
X95500000Y-129500000D03*
D15*
X96254000Y-131500000D02*
X96254000Y-129235480D01*
X96254000Y-129235480D02*
X95556866Y-128538346D01*
X95556866Y-128538346D02*
X94991181Y-128538346D01*
X95000000Y-128500000D02*
X95000000Y-128529527D01*
X95000000Y-128500000D02*
X93500000Y-128500000D01*
X95000000Y-128529527D02*
X94991181Y-128538346D01*
D16*
X86500000Y-133452413D02*
X84452413Y-135500000D01*
X84452413Y-135500000D02*
X79434315Y-135500000D01*
X78000000Y-134065685D02*
X78000000Y-133500000D01*
X79434315Y-135500000D02*
X78000000Y-134065685D01*
X88947598Y-127947598D02*
X90000000Y-129000000D01*
X88947598Y-122000000D02*
X88947598Y-127947598D01*
X90000000Y-129000000D02*
X90000000Y-133000000D01*
X90000000Y-133000000D02*
X89500000Y-133500000D01*
X89500000Y-124500000D02*
X90000000Y-124000000D01*
X90000000Y-124000000D02*
X90000000Y-122000000D01*
X89500000Y-128000000D02*
X89500000Y-124500000D01*
X91500000Y-134500000D02*
X90500000Y-133500000D01*
X90500000Y-129000000D02*
X89500000Y-128000000D01*
X90500000Y-133500000D02*
X90500000Y-129000000D01*
X95500000Y-134500000D02*
X91500000Y-134500000D01*
X95000000Y-134000000D02*
X91500000Y-134000000D01*
X95500000Y-133500000D02*
X95000000Y-134000000D01*
X96000000Y-133500000D02*
X95500000Y-133500000D01*
X96500000Y-134500000D02*
X96500000Y-134000000D01*
X91500000Y-134000000D02*
X91000000Y-133500000D01*
X90000000Y-128000000D02*
X90000000Y-124500000D01*
X96500000Y-134000000D02*
X96000000Y-133500000D01*
X91000000Y-133500000D02*
X91000000Y-129000000D01*
X90000000Y-124500000D02*
X91000000Y-123500000D01*
X92500000Y-121000000D02*
X92500000Y-121960000D01*
X91000000Y-129000000D02*
X90000000Y-128000000D01*
X91000000Y-123500000D02*
X91000000Y-121500000D01*
X92500000Y-121960000D02*
X92540000Y-122000000D01*
X91000000Y-121500000D02*
X91500000Y-121000000D01*
X91500000Y-121000000D02*
X92500000Y-121000000D01*
X77000000Y-133500000D02*
X77000000Y-130000000D01*
X79500000Y-136000000D02*
X77000000Y-133500000D01*
X90000000Y-136000000D02*
X79500000Y-136000000D01*
X77500000Y-129500000D02*
X78000000Y-129500000D01*
X77000000Y-130000000D02*
X77500000Y-129500000D01*
X91385000Y-138000000D02*
X90000000Y-138000000D01*
X90000000Y-138000000D02*
X90000000Y-136000000D01*
X79000000Y-133500000D02*
X79000000Y-134500000D01*
X78000000Y-132500000D02*
X79000000Y-133500000D01*
X78000000Y-130500000D02*
X78000000Y-132500000D01*
X83500028Y-135000000D02*
X86500000Y-132000028D01*
X79000000Y-134500000D02*
X79500000Y-135000000D01*
X79500000Y-135000000D02*
X83500028Y-135000000D01*
X93000000Y-129500000D02*
X92500000Y-129000000D01*
X93592440Y-123565685D02*
X93592440Y-123000000D01*
X95500000Y-129500000D02*
X93000000Y-129500000D01*
X92500000Y-125000000D02*
X93592440Y-123907560D01*
X92500000Y-129000000D02*
X92500000Y-125000000D01*
X93592440Y-123907560D02*
X93592440Y-123565685D01*
D15*
G36*
X86325000Y-121714250D02*
X86483750Y-121873000D01*
X87333000Y-121873000D01*
X87333000Y-121853000D01*
X87587000Y-121853000D01*
X87587000Y-121873000D01*
X87607000Y-121873000D01*
X87607000Y-122127000D01*
X87587000Y-122127000D01*
X87587000Y-124051250D01*
X87745750Y-124210000D01*
X88086310Y-124210000D01*
X88319699Y-124113327D01*
X88498327Y-123934698D01*
X88544398Y-123823472D01*
X88544399Y-127907882D01*
X88536499Y-127947598D01*
X88567792Y-128104918D01*
X88582235Y-128126533D01*
X88656908Y-128238289D01*
X88690574Y-128260784D01*
X89596800Y-129167011D01*
X89596801Y-132773000D01*
X89355391Y-132773000D01*
X89088187Y-132883679D01*
X88883679Y-133088187D01*
X88773000Y-133355391D01*
X88773000Y-133644609D01*
X88883679Y-133911813D01*
X89088187Y-134116321D01*
X89355391Y-134227000D01*
X89644609Y-134227000D01*
X89911813Y-134116321D01*
X90116321Y-133911813D01*
X90182877Y-133751132D01*
X90209309Y-133790691D01*
X90242978Y-133813188D01*
X91186814Y-134757025D01*
X91209309Y-134790691D01*
X91242974Y-134813185D01*
X91342679Y-134879806D01*
X91500000Y-134911099D01*
X91539711Y-134903200D01*
X94880111Y-134903200D01*
X94883679Y-134911813D01*
X95088187Y-135116321D01*
X95355391Y-135227000D01*
X95644609Y-135227000D01*
X95911813Y-135116321D01*
X96000000Y-135028134D01*
X96088187Y-135116321D01*
X96355391Y-135227000D01*
X96644609Y-135227000D01*
X96911813Y-135116321D01*
X97116321Y-134911813D01*
X97227000Y-134644609D01*
X97227000Y-134355391D01*
X97116321Y-134088187D01*
X96911813Y-133883679D01*
X96885820Y-133872912D01*
X96879806Y-133842679D01*
X96813185Y-133742974D01*
X96790691Y-133709309D01*
X96757025Y-133686814D01*
X96313188Y-133242977D01*
X96290691Y-133209309D01*
X96157321Y-133120194D01*
X96039711Y-133096800D01*
X96000000Y-133088901D01*
X95960289Y-133096800D01*
X95539711Y-133096800D01*
X95500000Y-133088901D01*
X95460289Y-133096800D01*
X95342679Y-133120194D01*
X95209309Y-133209309D01*
X95186815Y-133242974D01*
X94832990Y-133596800D01*
X91667011Y-133596800D01*
X91403200Y-133332990D01*
X91403200Y-129039710D01*
X91411099Y-129000000D01*
X91379806Y-128842679D01*
X91313185Y-128742974D01*
X91290691Y-128709309D01*
X91257025Y-128686814D01*
X90403200Y-127832990D01*
X90403200Y-124667010D01*
X91257026Y-123813185D01*
X91290691Y-123790691D01*
X91379806Y-123657321D01*
X91403200Y-123539711D01*
X91403200Y-123539710D01*
X91411099Y-123500000D01*
X91403200Y-123460289D01*
X91403200Y-121667010D01*
X91667011Y-121403200D01*
X91706594Y-121403200D01*
X91706594Y-123575000D01*
X91731973Y-123702589D01*
X91804246Y-123810754D01*
X91912411Y-123883027D01*
X92040000Y-123908406D01*
X93021383Y-123908406D01*
X92242976Y-124686814D01*
X92209310Y-124709309D01*
X92186815Y-124742975D01*
X92120194Y-124842680D01*
X92088901Y-125000000D01*
X92096801Y-125039716D01*
X92096800Y-128960289D01*
X92088901Y-129000000D01*
X92096800Y-129039710D01*
X92120194Y-129157320D01*
X92209309Y-129290691D01*
X92242977Y-129313188D01*
X92686814Y-129757025D01*
X92709309Y-129790691D01*
X92742974Y-129813185D01*
X92842679Y-129879806D01*
X93000000Y-129911099D01*
X93039711Y-129903200D01*
X94880111Y-129903200D01*
X94883679Y-129911813D01*
X95088187Y-130116321D01*
X95355391Y-130227000D01*
X95644609Y-130227000D01*
X95800001Y-130162635D01*
X95800000Y-130925866D01*
X95637679Y-131088187D01*
X95527000Y-131355391D01*
X95527000Y-131644609D01*
X95637679Y-131911813D01*
X95842187Y-132116321D01*
X96109391Y-132227000D01*
X96398609Y-132227000D01*
X96665813Y-132116321D01*
X96870321Y-131911813D01*
X96981000Y-131644609D01*
X96981000Y-131355391D01*
X96870321Y-131088187D01*
X96708000Y-130925866D01*
X96708000Y-129280187D01*
X96716893Y-129235479D01*
X96708000Y-129190771D01*
X96708000Y-129190767D01*
X96681658Y-129058338D01*
X96616144Y-128960290D01*
X96606643Y-128946070D01*
X96606641Y-128946068D01*
X96581315Y-128908165D01*
X96543411Y-128882838D01*
X95909509Y-128248937D01*
X95884181Y-128211031D01*
X95734008Y-128110688D01*
X95601579Y-128084346D01*
X95601575Y-128084346D01*
X95556866Y-128075453D01*
X95556496Y-128075527D01*
X95402994Y-127922025D01*
X95135790Y-127811346D01*
X94846572Y-127811346D01*
X94579368Y-127922025D01*
X94455393Y-128046000D01*
X94074134Y-128046000D01*
X93911813Y-127883679D01*
X93644609Y-127773000D01*
X93355391Y-127773000D01*
X93088187Y-127883679D01*
X92903200Y-128068666D01*
X92903200Y-125167010D01*
X93849466Y-124220745D01*
X93883131Y-124198251D01*
X93972246Y-124064881D01*
X93995640Y-123947271D01*
X93995640Y-123947267D01*
X94003538Y-123907561D01*
X93995640Y-123867855D01*
X93995640Y-123619889D01*
X94004253Y-123616321D01*
X94208761Y-123411813D01*
X94319440Y-123144609D01*
X94319440Y-122855391D01*
X94208761Y-122588187D01*
X94004253Y-122383679D01*
X93737049Y-122273000D01*
X93447831Y-122273000D01*
X93373406Y-122303828D01*
X93373406Y-121553012D01*
X109910197Y-138089803D01*
X109951399Y-138117333D01*
X110000000Y-138127000D01*
X110048601Y-138117333D01*
X110089803Y-138089803D01*
X110098000Y-138081606D01*
X110098000Y-139573000D01*
X106491739Y-139573000D01*
X106491739Y-136260000D01*
X106466360Y-136132411D01*
X106394087Y-136024246D01*
X106285922Y-135951973D01*
X106158333Y-135926594D01*
X104311667Y-135926594D01*
X104184078Y-135951973D01*
X104075913Y-136024246D01*
X104003640Y-136132411D01*
X103978261Y-136260000D01*
X103978261Y-139573000D01*
X103721739Y-139573000D01*
X103721739Y-136260000D01*
X103696360Y-136132411D01*
X103624087Y-136024246D01*
X103515922Y-135951973D01*
X103388333Y-135926594D01*
X101541667Y-135926594D01*
X101414078Y-135951973D01*
X101305913Y-136024246D01*
X101233640Y-136132411D01*
X101208261Y-136260000D01*
X101208261Y-139573000D01*
X100951739Y-139573000D01*
X100951739Y-136260000D01*
X100926360Y-136132411D01*
X100854087Y-136024246D01*
X100745922Y-135951973D01*
X100618333Y-135926594D01*
X98771667Y-135926594D01*
X98644078Y-135951973D01*
X98535913Y-136024246D01*
X98463640Y-136132411D01*
X98438261Y-136260000D01*
X98438261Y-139573000D01*
X98181739Y-139573000D01*
X98181739Y-136260000D01*
X98156360Y-136132411D01*
X98084087Y-136024246D01*
X97975922Y-135951973D01*
X97848333Y-135926594D01*
X96001667Y-135926594D01*
X95874078Y-135951973D01*
X95765913Y-136024246D01*
X95693640Y-136132411D01*
X95668261Y-136260000D01*
X95668261Y-139573000D01*
X95411739Y-139573000D01*
X95411739Y-136260000D01*
X95386360Y-136132411D01*
X95314087Y-136024246D01*
X95205922Y-135951973D01*
X95078333Y-135926594D01*
X93231667Y-135926594D01*
X93104078Y-135951973D01*
X92995913Y-136024246D01*
X92923640Y-136132411D01*
X92898261Y-136260000D01*
X92898261Y-139573000D01*
X92641739Y-139573000D01*
X92641739Y-136260000D01*
X92616360Y-136132411D01*
X92544087Y-136024246D01*
X92435922Y-135951973D01*
X92308333Y-135926594D01*
X90461667Y-135926594D01*
X90398978Y-135939064D01*
X90379806Y-135842679D01*
X90290691Y-135709309D01*
X90157321Y-135620194D01*
X90039711Y-135596800D01*
X90000000Y-135588901D01*
X89960289Y-135596800D01*
X84925823Y-135596800D01*
X86346778Y-134175846D01*
X86355391Y-134179413D01*
X86644609Y-134179413D01*
X86911813Y-134068734D01*
X87116321Y-133864226D01*
X87227000Y-133597022D01*
X87227000Y-133307804D01*
X87116321Y-133040600D01*
X86911813Y-132836092D01*
X86646558Y-132726220D01*
X86911813Y-132616349D01*
X87116321Y-132411841D01*
X87227000Y-132144637D01*
X87227000Y-131855419D01*
X87116321Y-131588215D01*
X86911813Y-131383707D01*
X86644609Y-131273028D01*
X86355391Y-131273028D01*
X86088187Y-131383707D01*
X85883679Y-131588215D01*
X85773000Y-131855419D01*
X85773000Y-132144637D01*
X85776567Y-132153250D01*
X83333018Y-134596800D01*
X79667011Y-134596800D01*
X79403200Y-134332990D01*
X79403200Y-133539710D01*
X79411099Y-133500000D01*
X79379806Y-133342679D01*
X79313185Y-133242974D01*
X79290691Y-133209309D01*
X79257026Y-133186815D01*
X78403200Y-132332990D01*
X78403200Y-131119889D01*
X78411813Y-131116321D01*
X78616321Y-130911813D01*
X78727000Y-130644609D01*
X78727000Y-130355391D01*
X78616321Y-130088187D01*
X78528134Y-130000000D01*
X78616321Y-129911813D01*
X78727000Y-129644609D01*
X78727000Y-129355391D01*
X78616321Y-129088187D01*
X78411813Y-128883679D01*
X78144609Y-128773000D01*
X77855391Y-128773000D01*
X77588187Y-128883679D01*
X77383679Y-129088187D01*
X77372912Y-129114180D01*
X77342679Y-129120194D01*
X77209309Y-129209309D01*
X77186815Y-129242974D01*
X76742975Y-129686814D01*
X76709310Y-129709309D01*
X76686815Y-129742975D01*
X76620194Y-129842680D01*
X76588901Y-130000000D01*
X76596801Y-130039716D01*
X76596800Y-133460289D01*
X76588901Y-133500000D01*
X76596800Y-133539710D01*
X76620194Y-133657320D01*
X76709309Y-133790691D01*
X76742978Y-133813188D01*
X79071742Y-136141953D01*
X79048261Y-136260000D01*
X79048261Y-139573000D01*
X78791739Y-139573000D01*
X78791739Y-136260000D01*
X78766360Y-136132411D01*
X78694087Y-136024246D01*
X78585922Y-135951973D01*
X78458333Y-135926594D01*
X76611667Y-135926594D01*
X76484078Y-135951973D01*
X76375913Y-136024246D01*
X76303640Y-136132411D01*
X76278261Y-136260000D01*
X76278261Y-139573000D01*
X76021739Y-139573000D01*
X76021739Y-136260000D01*
X75996360Y-136132411D01*
X75924087Y-136024246D01*
X75815922Y-135951973D01*
X75688333Y-135926594D01*
X73841667Y-135926594D01*
X73714078Y-135951973D01*
X73605913Y-136024246D01*
X73533640Y-136132411D01*
X73508261Y-136260000D01*
X73508261Y-139573000D01*
X69902000Y-139573000D01*
X69902000Y-124224635D01*
X73052688Y-122285750D01*
X86325000Y-122285750D01*
X86325000Y-123701309D01*
X86421673Y-123934698D01*
X86600301Y-124113327D01*
X86833690Y-124210000D01*
X87174250Y-124210000D01*
X87333000Y-124051250D01*
X87333000Y-122127000D01*
X86483750Y-122127000D01*
X86325000Y-122285750D01*
X73052688Y-122285750D01*
X76113783Y-120402000D01*
X86325000Y-120402000D01*
X86325000Y-121714250D01*
X86325000Y-121714250D01*
G37*
X86325000Y-121714250D02*
X86483750Y-121873000D01*
X87333000Y-121873000D01*
X87333000Y-121853000D01*
X87587000Y-121853000D01*
X87587000Y-121873000D01*
X87607000Y-121873000D01*
X87607000Y-122127000D01*
X87587000Y-122127000D01*
X87587000Y-124051250D01*
X87745750Y-124210000D01*
X88086310Y-124210000D01*
X88319699Y-124113327D01*
X88498327Y-123934698D01*
X88544398Y-123823472D01*
X88544399Y-127907882D01*
X88536499Y-127947598D01*
X88567792Y-128104918D01*
X88582235Y-128126533D01*
X88656908Y-128238289D01*
X88690574Y-128260784D01*
X89596800Y-129167011D01*
X89596801Y-132773000D01*
X89355391Y-132773000D01*
X89088187Y-132883679D01*
X88883679Y-133088187D01*
X88773000Y-133355391D01*
X88773000Y-133644609D01*
X88883679Y-133911813D01*
X89088187Y-134116321D01*
X89355391Y-134227000D01*
X89644609Y-134227000D01*
X89911813Y-134116321D01*
X90116321Y-133911813D01*
X90182877Y-133751132D01*
X90209309Y-133790691D01*
X90242978Y-133813188D01*
X91186814Y-134757025D01*
X91209309Y-134790691D01*
X91242974Y-134813185D01*
X91342679Y-134879806D01*
X91500000Y-134911099D01*
X91539711Y-134903200D01*
X94880111Y-134903200D01*
X94883679Y-134911813D01*
X95088187Y-135116321D01*
X95355391Y-135227000D01*
X95644609Y-135227000D01*
X95911813Y-135116321D01*
X96000000Y-135028134D01*
X96088187Y-135116321D01*
X96355391Y-135227000D01*
X96644609Y-135227000D01*
X96911813Y-135116321D01*
X97116321Y-134911813D01*
X97227000Y-134644609D01*
X97227000Y-134355391D01*
X97116321Y-134088187D01*
X96911813Y-133883679D01*
X96885820Y-133872912D01*
X96879806Y-133842679D01*
X96813185Y-133742974D01*
X96790691Y-133709309D01*
X96757025Y-133686814D01*
X96313188Y-133242977D01*
X96290691Y-133209309D01*
X96157321Y-133120194D01*
X96039711Y-133096800D01*
X96000000Y-133088901D01*
X95960289Y-133096800D01*
X95539711Y-133096800D01*
X95500000Y-133088901D01*
X95460289Y-133096800D01*
X95342679Y-133120194D01*
X95209309Y-133209309D01*
X95186815Y-133242974D01*
X94832990Y-133596800D01*
X91667011Y-133596800D01*
X91403200Y-133332990D01*
X91403200Y-129039710D01*
X91411099Y-129000000D01*
X91379806Y-128842679D01*
X91313185Y-128742974D01*
X91290691Y-128709309D01*
X91257025Y-128686814D01*
X90403200Y-127832990D01*
X90403200Y-124667010D01*
X91257026Y-123813185D01*
X91290691Y-123790691D01*
X91379806Y-123657321D01*
X91403200Y-123539711D01*
X91403200Y-123539710D01*
X91411099Y-123500000D01*
X91403200Y-123460289D01*
X91403200Y-121667010D01*
X91667011Y-121403200D01*
X91706594Y-121403200D01*
X91706594Y-123575000D01*
X91731973Y-123702589D01*
X91804246Y-123810754D01*
X91912411Y-123883027D01*
X92040000Y-123908406D01*
X93021383Y-123908406D01*
X92242976Y-124686814D01*
X92209310Y-124709309D01*
X92186815Y-124742975D01*
X92120194Y-124842680D01*
X92088901Y-125000000D01*
X92096801Y-125039716D01*
X92096800Y-128960289D01*
X92088901Y-129000000D01*
X92096800Y-129039710D01*
X92120194Y-129157320D01*
X92209309Y-129290691D01*
X92242977Y-129313188D01*
X92686814Y-129757025D01*
X92709309Y-129790691D01*
X92742974Y-129813185D01*
X92842679Y-129879806D01*
X93000000Y-129911099D01*
X93039711Y-129903200D01*
X94880111Y-129903200D01*
X94883679Y-129911813D01*
X95088187Y-130116321D01*
X95355391Y-130227000D01*
X95644609Y-130227000D01*
X95800001Y-130162635D01*
X95800000Y-130925866D01*
X95637679Y-131088187D01*
X95527000Y-131355391D01*
X95527000Y-131644609D01*
X95637679Y-131911813D01*
X95842187Y-132116321D01*
X96109391Y-132227000D01*
X96398609Y-132227000D01*
X96665813Y-132116321D01*
X96870321Y-131911813D01*
X96981000Y-131644609D01*
X96981000Y-131355391D01*
X96870321Y-131088187D01*
X96708000Y-130925866D01*
X96708000Y-129280187D01*
X96716893Y-129235479D01*
X96708000Y-129190771D01*
X96708000Y-129190767D01*
X96681658Y-129058338D01*
X96616144Y-128960290D01*
X96606643Y-128946070D01*
X96606641Y-128946068D01*
X96581315Y-128908165D01*
X96543411Y-128882838D01*
X95909509Y-128248937D01*
X95884181Y-128211031D01*
X95734008Y-128110688D01*
X95601579Y-128084346D01*
X95601575Y-128084346D01*
X95556866Y-128075453D01*
X95556496Y-128075527D01*
X95402994Y-127922025D01*
X95135790Y-127811346D01*
X94846572Y-127811346D01*
X94579368Y-127922025D01*
X94455393Y-128046000D01*
X94074134Y-128046000D01*
X93911813Y-127883679D01*
X93644609Y-127773000D01*
X93355391Y-127773000D01*
X93088187Y-127883679D01*
X92903200Y-128068666D01*
X92903200Y-125167010D01*
X93849466Y-124220745D01*
X93883131Y-124198251D01*
X93972246Y-124064881D01*
X93995640Y-123947271D01*
X93995640Y-123947267D01*
X94003538Y-123907561D01*
X93995640Y-123867855D01*
X93995640Y-123619889D01*
X94004253Y-123616321D01*
X94208761Y-123411813D01*
X94319440Y-123144609D01*
X94319440Y-122855391D01*
X94208761Y-122588187D01*
X94004253Y-122383679D01*
X93737049Y-122273000D01*
X93447831Y-122273000D01*
X93373406Y-122303828D01*
X93373406Y-121553012D01*
X109910197Y-138089803D01*
X109951399Y-138117333D01*
X110000000Y-138127000D01*
X110048601Y-138117333D01*
X110089803Y-138089803D01*
X110098000Y-138081606D01*
X110098000Y-139573000D01*
X106491739Y-139573000D01*
X106491739Y-136260000D01*
X106466360Y-136132411D01*
X106394087Y-136024246D01*
X106285922Y-135951973D01*
X106158333Y-135926594D01*
X104311667Y-135926594D01*
X104184078Y-135951973D01*
X104075913Y-136024246D01*
X104003640Y-136132411D01*
X103978261Y-136260000D01*
X103978261Y-139573000D01*
X103721739Y-139573000D01*
X103721739Y-136260000D01*
X103696360Y-136132411D01*
X103624087Y-136024246D01*
X103515922Y-135951973D01*
X103388333Y-135926594D01*
X101541667Y-135926594D01*
X101414078Y-135951973D01*
X101305913Y-136024246D01*
X101233640Y-136132411D01*
X101208261Y-136260000D01*
X101208261Y-139573000D01*
X100951739Y-139573000D01*
X100951739Y-136260000D01*
X100926360Y-136132411D01*
X100854087Y-136024246D01*
X100745922Y-135951973D01*
X100618333Y-135926594D01*
X98771667Y-135926594D01*
X98644078Y-135951973D01*
X98535913Y-136024246D01*
X98463640Y-136132411D01*
X98438261Y-136260000D01*
X98438261Y-139573000D01*
X98181739Y-139573000D01*
X98181739Y-136260000D01*
X98156360Y-136132411D01*
X98084087Y-136024246D01*
X97975922Y-135951973D01*
X97848333Y-135926594D01*
X96001667Y-135926594D01*
X95874078Y-135951973D01*
X95765913Y-136024246D01*
X95693640Y-136132411D01*
X95668261Y-136260000D01*
X95668261Y-139573000D01*
X95411739Y-139573000D01*
X95411739Y-136260000D01*
X95386360Y-136132411D01*
X95314087Y-136024246D01*
X95205922Y-135951973D01*
X95078333Y-135926594D01*
X93231667Y-135926594D01*
X93104078Y-135951973D01*
X92995913Y-136024246D01*
X92923640Y-136132411D01*
X92898261Y-136260000D01*
X92898261Y-139573000D01*
X92641739Y-139573000D01*
X92641739Y-136260000D01*
X92616360Y-136132411D01*
X92544087Y-136024246D01*
X92435922Y-135951973D01*
X92308333Y-135926594D01*
X90461667Y-135926594D01*
X90398978Y-135939064D01*
X90379806Y-135842679D01*
X90290691Y-135709309D01*
X90157321Y-135620194D01*
X90039711Y-135596800D01*
X90000000Y-135588901D01*
X89960289Y-135596800D01*
X84925823Y-135596800D01*
X86346778Y-134175846D01*
X86355391Y-134179413D01*
X86644609Y-134179413D01*
X86911813Y-134068734D01*
X87116321Y-133864226D01*
X87227000Y-133597022D01*
X87227000Y-133307804D01*
X87116321Y-133040600D01*
X86911813Y-132836092D01*
X86646558Y-132726220D01*
X86911813Y-132616349D01*
X87116321Y-132411841D01*
X87227000Y-132144637D01*
X87227000Y-131855419D01*
X87116321Y-131588215D01*
X86911813Y-131383707D01*
X86644609Y-131273028D01*
X86355391Y-131273028D01*
X86088187Y-131383707D01*
X85883679Y-131588215D01*
X85773000Y-131855419D01*
X85773000Y-132144637D01*
X85776567Y-132153250D01*
X83333018Y-134596800D01*
X79667011Y-134596800D01*
X79403200Y-134332990D01*
X79403200Y-133539710D01*
X79411099Y-133500000D01*
X79379806Y-133342679D01*
X79313185Y-133242974D01*
X79290691Y-133209309D01*
X79257026Y-133186815D01*
X78403200Y-132332990D01*
X78403200Y-131119889D01*
X78411813Y-131116321D01*
X78616321Y-130911813D01*
X78727000Y-130644609D01*
X78727000Y-130355391D01*
X78616321Y-130088187D01*
X78528134Y-130000000D01*
X78616321Y-129911813D01*
X78727000Y-129644609D01*
X78727000Y-129355391D01*
X78616321Y-129088187D01*
X78411813Y-128883679D01*
X78144609Y-128773000D01*
X77855391Y-128773000D01*
X77588187Y-128883679D01*
X77383679Y-129088187D01*
X77372912Y-129114180D01*
X77342679Y-129120194D01*
X77209309Y-129209309D01*
X77186815Y-129242974D01*
X76742975Y-129686814D01*
X76709310Y-129709309D01*
X76686815Y-129742975D01*
X76620194Y-129842680D01*
X76588901Y-130000000D01*
X76596801Y-130039716D01*
X76596800Y-133460289D01*
X76588901Y-133500000D01*
X76596800Y-133539710D01*
X76620194Y-133657320D01*
X76709309Y-133790691D01*
X76742978Y-133813188D01*
X79071742Y-136141953D01*
X79048261Y-136260000D01*
X79048261Y-139573000D01*
X78791739Y-139573000D01*
X78791739Y-136260000D01*
X78766360Y-136132411D01*
X78694087Y-136024246D01*
X78585922Y-135951973D01*
X78458333Y-135926594D01*
X76611667Y-135926594D01*
X76484078Y-135951973D01*
X76375913Y-136024246D01*
X76303640Y-136132411D01*
X76278261Y-136260000D01*
X76278261Y-139573000D01*
X76021739Y-139573000D01*
X76021739Y-136260000D01*
X75996360Y-136132411D01*
X75924087Y-136024246D01*
X75815922Y-135951973D01*
X75688333Y-135926594D01*
X73841667Y-135926594D01*
X73714078Y-135951973D01*
X73605913Y-136024246D01*
X73533640Y-136132411D01*
X73508261Y-136260000D01*
X73508261Y-139573000D01*
X69902000Y-139573000D01*
X69902000Y-124224635D01*
X73052688Y-122285750D01*
X86325000Y-122285750D01*
X86325000Y-123701309D01*
X86421673Y-123934698D01*
X86600301Y-124113327D01*
X86833690Y-124210000D01*
X87174250Y-124210000D01*
X87333000Y-124051250D01*
X87333000Y-122127000D01*
X86483750Y-122127000D01*
X86325000Y-122285750D01*
X73052688Y-122285750D01*
X76113783Y-120402000D01*
X86325000Y-120402000D01*
X86325000Y-121714250D01*
M02*
