M48
;DRILL file {KiCad (5.0.0-rc2-dev-231-ge0e0687cd)} date Mon Jul 23 22:11:48 2018
;FORMAT={3:3/ absolute / metric / suppress leading zeros}
FMAT,2
METRIC,TZ
T1C0.300
T2C0.400
%
G90
G05
M71
T1
X96515Y-124515
T2
X71000Y-136500
X72000Y-128012
X72000Y-134012
X74500Y-122500
X78000Y-127000
X78000Y-129500
X78000Y-130500
X78000Y-133500
X78500Y-122500
X81000Y-133988
X82988Y-124500
X85000Y-121000
X85500Y-129000
X86500Y-129000
X86500Y-131000
X86500Y-132000
X86500Y-133452
X87500Y-129000
X88000Y-135000
X88948Y-122000
X89500Y-133500
X91500Y-127488
X92000Y-131000
X92000Y-132000
X92000Y-133000
X93000Y-131000
X93000Y-132000
X93000Y-133000
X93500Y-128500
X93592Y-123000
X94000Y-131000
X94000Y-132000
X94000Y-133000
X94500Y-124000
X94500Y-125000
X94988Y-126000
X94991Y-128538
X95000Y-123500
X95000Y-124500
X95500Y-124000
X95500Y-129500
X95500Y-134500
X96254Y-131500
X96500Y-134500
X97000Y-125500
X97500Y-135000
X98012Y-129000
X98500Y-127000
X98500Y-128000
X99000Y-127500
X99500Y-128000
X99500Y-129000
X99512Y-130500
X100000Y-128500
X100000Y-129500
X100500Y-129000
X100500Y-134000
X101000Y-129500
X101012Y-132000
X101500Y-130000
X101500Y-131000
X102000Y-130500
X102500Y-131000
X102500Y-132000
X102512Y-133500
X102512Y-135000
X103000Y-131500
X103000Y-132500
X103500Y-132000
X104000Y-132500
X104000Y-133500
X104500Y-133000
X104500Y-134000
X104500Y-135000
X105000Y-133500
X105000Y-134500
X105000Y-135500
X105500Y-134000
X105500Y-135000
X106000Y-134500
X106000Y-135500
X106500Y-135000
X107000Y-135500
T0
M30
